<svg width="470" height="583" viewBox="0 0 470 583" fill="none" xmlns="http://www.w3.org/2000/svg">
<g filter="url(#filter0_d_45_15)">
<rect x="50" width="370" height="483" rx="50" fill="white"/>
</g>
<path d="M107 72C107 60.9543 115.954 52 127 52H187C198.046 52 207 60.9543 207 72V132C207 143.046 198.046 152 187 152H127C115.954 152 107 143.046 107 132V72Z" fill="#FFE8C8"/>
<path d="M101.16 224V206.864H114.72V224H111.096V209.888H104.784V224H101.16ZM130.011 224H126.435V213.584H123.147C122.987 215.504 122.787 217.144 122.547 218.504C122.323 219.848 122.035 220.944 121.683 221.792C121.347 222.64 120.915 223.264 120.387 223.664C119.859 224.048 119.211 224.24 118.443 224.24C118.027 224.24 117.651 224.208 117.315 224.144C116.979 224.08 116.675 223.984 116.403 223.856V221C116.579 221.064 116.763 221.12 116.955 221.168C117.147 221.216 117.347 221.24 117.555 221.24C117.779 221.24 117.987 221.152 118.179 220.976C118.387 220.8 118.579 220.488 118.755 220.04C118.947 219.592 119.123 218.976 119.283 218.192C119.443 217.408 119.587 216.424 119.715 215.24C119.859 214.04 119.987 212.592 120.099 210.896H130.011V224ZM138.64 210.632C140.4 210.632 141.744 211.016 142.672 211.784C143.616 212.536 144.088 213.696 144.088 215.264V224H141.592L140.896 222.224H140.8C140.432 222.688 140.048 223.072 139.648 223.376C139.264 223.68 138.816 223.896 138.304 224.024C137.808 224.168 137.192 224.24 136.456 224.24C135.688 224.24 134.992 224.096 134.368 223.808C133.76 223.504 133.28 223.048 132.928 222.44C132.576 221.816 132.4 221.032 132.4 220.088C132.4 218.696 132.888 217.672 133.864 217.016C134.84 216.344 136.304 215.976 138.256 215.912L140.536 215.84V215.264C140.536 214.576 140.352 214.072 139.984 213.752C139.632 213.432 139.136 213.272 138.496 213.272C137.856 213.272 137.232 213.368 136.624 213.56C136.016 213.736 135.408 213.96 134.8 214.232L133.624 211.808C134.328 211.44 135.104 211.152 135.952 210.944C136.816 210.736 137.712 210.632 138.64 210.632ZM139.144 217.976C137.992 218.008 137.192 218.216 136.744 218.6C136.296 218.984 136.072 219.488 136.072 220.112C136.072 220.656 136.232 221.048 136.552 221.288C136.872 221.512 137.288 221.624 137.8 221.624C138.568 221.624 139.216 221.4 139.744 220.952C140.272 220.488 140.536 219.84 140.536 219.008V217.928L139.144 217.976ZM150.844 210.896V215.936H155.836V210.896H159.412V224H155.836V218.6H150.844V224H147.268V210.896H150.844ZM179.821 210.896V224H176.245V213.584H171.493V224H167.917V210.896H179.821ZM186.55 216.08C186.55 216.352 186.534 216.688 186.502 217.088C186.486 217.488 186.462 217.896 186.43 218.312C186.414 218.728 186.39 219.096 186.358 219.416C186.326 219.736 186.302 219.96 186.286 220.088L192.334 210.896H196.63V224H193.174V218.768C193.174 218.336 193.19 217.864 193.222 217.352C193.254 216.824 193.286 216.336 193.318 215.888C193.366 215.424 193.398 215.072 193.414 214.832L187.39 224H183.094V210.896H186.55V216.08ZM210.735 213.584H206.439V224H202.863V213.584H198.567V210.896H210.735V213.584ZM218.049 210.632C219.809 210.632 221.153 211.016 222.081 211.784C223.025 212.536 223.497 213.696 223.497 215.264V224H221.001L220.305 222.224H220.209C219.841 222.688 219.457 223.072 219.057 223.376C218.673 223.68 218.225 223.896 217.713 224.024C217.217 224.168 216.601 224.24 215.865 224.24C215.097 224.24 214.401 224.096 213.777 223.808C213.169 223.504 212.689 223.048 212.337 222.44C211.985 221.816 211.809 221.032 211.809 220.088C211.809 218.696 212.297 217.672 213.273 217.016C214.249 216.344 215.713 215.976 217.665 215.912L219.945 215.84V215.264C219.945 214.576 219.761 214.072 219.393 213.752C219.041 213.432 218.545 213.272 217.905 213.272C217.265 213.272 216.641 213.368 216.033 213.56C215.425 213.736 214.817 213.96 214.209 214.232L213.033 211.808C213.737 211.44 214.513 211.152 215.361 210.944C216.225 210.736 217.121 210.632 218.049 210.632ZM218.553 217.976C217.401 218.008 216.601 218.216 216.153 218.6C215.705 218.984 215.481 219.488 215.481 220.112C215.481 220.656 215.641 221.048 215.961 221.288C216.281 221.512 216.697 221.624 217.209 221.624C217.977 221.624 218.625 221.4 219.153 220.952C219.681 220.488 219.945 219.84 219.945 219.008V217.928L218.553 217.976ZM230.253 210.896V215.936H235.245V210.896H238.821V224H235.245V218.6H230.253V224H226.677V210.896H230.253ZM245.544 216.08C245.544 216.352 245.528 216.688 245.496 217.088C245.48 217.488 245.456 217.896 245.424 218.312C245.408 218.728 245.384 219.096 245.352 219.416C245.32 219.736 245.296 219.96 245.28 220.088L251.328 210.896H255.624V224H252.168V218.768C252.168 218.336 252.184 217.864 252.216 217.352C252.248 216.824 252.28 216.336 252.312 215.888C252.36 215.424 252.392 215.072 252.408 214.832L246.384 224H242.088V210.896H245.544V216.08ZM260.873 224H257.009L260.537 218.816C260.089 218.624 259.665 218.368 259.265 218.048C258.881 217.712 258.569 217.288 258.329 216.776C258.089 216.264 257.969 215.656 257.969 214.952C257.969 213.64 258.465 212.64 259.457 211.952C260.449 211.248 261.721 210.896 263.273 210.896H269.369V224H265.793V219.128H263.825L260.873 224ZM261.473 214.976C261.473 215.52 261.689 215.952 262.121 216.272C262.553 216.576 263.113 216.728 263.801 216.728H265.793V213.416H263.345C262.705 213.416 262.233 213.576 261.929 213.896C261.625 214.2 261.473 214.56 261.473 214.976Z" fill="#2B2B2B"/>
<path d="M97.816 244.576C98.7653 244.576 99.56 244.667 100.2 244.848C100.851 245.029 101.336 245.328 101.656 245.744C101.987 246.16 102.152 246.715 102.152 247.408C102.152 247.856 102.067 248.256 101.896 248.608C101.736 248.949 101.491 249.237 101.16 249.472C100.84 249.696 100.445 249.851 99.976 249.936V250.016C100.456 250.091 100.888 250.229 101.272 250.432C101.667 250.635 101.976 250.923 102.2 251.296C102.424 251.669 102.536 252.155 102.536 252.752C102.536 253.445 102.376 254.037 102.056 254.528C101.736 255.008 101.277 255.376 100.68 255.632C100.093 255.877 99.3893 256 98.568 256H94.552V244.576H97.816ZM98.104 249.44C99.0853 249.44 99.7573 249.285 100.12 248.976C100.483 248.656 100.664 248.187 100.664 247.568C100.664 246.939 100.44 246.491 99.992 246.224C99.5547 245.947 98.8507 245.808 97.88 245.808H95.992V249.44H98.104ZM95.992 250.64V254.784H98.296C99.3093 254.784 100.013 254.587 100.408 254.192C100.803 253.797 101 253.28 101 252.64C101 252.235 100.909 251.883 100.728 251.584C100.557 251.285 100.264 251.056 99.848 250.896C99.4427 250.725 98.888 250.64 98.184 250.64H95.992ZM104.446 256V247.424H105.854V250.944H108.078C108.825 250.944 109.438 251.035 109.918 251.216C110.398 251.397 110.756 251.669 110.99 252.032C111.225 252.384 111.342 252.832 111.342 253.376C111.342 253.909 111.225 254.373 110.99 254.768C110.766 255.163 110.409 255.467 109.918 255.68C109.438 255.893 108.804 256 108.014 256H104.446ZM107.886 254.864C108.494 254.864 108.99 254.763 109.374 254.56C109.758 254.347 109.95 253.979 109.95 253.456C109.95 252.933 109.774 252.581 109.422 252.4C109.07 252.208 108.564 252.112 107.902 252.112H105.854V254.864H107.886ZM112.766 256V247.424H114.174V256H112.766ZM120.019 256.16C119.262 256.16 118.585 256.005 117.987 255.696C117.401 255.387 116.937 254.907 116.595 254.256C116.265 253.605 116.099 252.773 116.099 251.76C116.099 250.704 116.275 249.845 116.627 249.184C116.979 248.523 117.454 248.037 118.051 247.728C118.659 247.419 119.347 247.264 120.115 247.264C120.553 247.264 120.974 247.312 121.379 247.408C121.785 247.493 122.115 247.6 122.371 247.728L121.939 248.896C121.683 248.8 121.385 248.709 121.043 248.624C120.702 248.539 120.382 248.496 120.083 248.496C119.507 248.496 119.033 248.619 118.659 248.864C118.286 249.109 118.009 249.472 117.827 249.952C117.646 250.432 117.555 251.029 117.555 251.744C117.555 252.427 117.646 253.008 117.827 253.488C118.009 253.968 118.281 254.331 118.643 254.576C119.006 254.821 119.459 254.944 120.003 254.944C120.473 254.944 120.883 254.896 121.235 254.8C121.598 254.704 121.929 254.587 122.227 254.448V255.696C121.939 255.845 121.619 255.957 121.267 256.032C120.926 256.117 120.51 256.16 120.019 256.16ZM125.179 250.544C125.179 251.045 125.318 251.419 125.595 251.664C125.883 251.899 126.294 252.016 126.827 252.016C127.36 252.016 127.846 251.936 128.283 251.776C128.72 251.605 129.168 251.381 129.627 251.104V247.424H131.035V256H129.627V252.176C129.147 252.485 128.672 252.731 128.203 252.912C127.744 253.083 127.19 253.168 126.539 253.168C125.664 253.168 124.982 252.939 124.491 252.48C124.011 252.021 123.771 251.408 123.771 250.64V247.424H125.179V250.544ZM134.767 252.656C134.767 252.752 134.762 252.891 134.751 253.072C134.751 253.243 134.746 253.429 134.735 253.632C134.725 253.824 134.714 254.011 134.703 254.192C134.693 254.363 134.682 254.501 134.671 254.608L139.263 247.424H140.991V256H139.679V250.944C139.679 250.773 139.679 250.549 139.679 250.272C139.69 249.995 139.701 249.723 139.711 249.456C139.722 249.179 139.733 248.971 139.743 248.832L135.183 256H133.439V247.424H134.767V252.656ZM149.321 248.608H146.521V256H145.129V248.608H142.361V247.424H149.321V248.608ZM150.69 256V247.424H152.098V250.944H154.322C155.069 250.944 155.682 251.035 156.162 251.216C156.642 251.397 156.999 251.669 157.234 252.032C157.469 252.384 157.586 252.832 157.586 253.376C157.586 253.909 157.469 254.373 157.234 254.768C157.01 255.163 156.653 255.467 156.162 255.68C155.682 255.893 155.047 256 154.258 256H150.69ZM154.13 254.864C154.738 254.864 155.234 254.763 155.618 254.56C156.002 254.347 156.194 253.979 156.194 253.456C156.194 252.933 156.018 252.581 155.666 252.4C155.314 252.208 154.807 252.112 154.146 252.112H152.098V254.864H154.13ZM159.01 256V247.424H160.418V256H159.01ZM169.719 249.584C169.719 250.117 169.559 250.533 169.239 250.832C168.919 251.131 168.508 251.333 168.007 251.44V251.504C168.54 251.579 169.004 251.771 169.399 252.08C169.794 252.379 169.991 252.848 169.991 253.488C169.991 253.851 169.922 254.187 169.783 254.496C169.655 254.805 169.452 255.072 169.175 255.296C168.898 255.52 168.54 255.696 168.103 255.824C167.666 255.941 167.138 256 166.519 256H162.823V247.424H166.503C167.111 247.424 167.655 247.493 168.135 247.632C168.626 247.76 169.01 247.984 169.287 248.304C169.575 248.613 169.719 249.04 169.719 249.584ZM168.535 253.488C168.535 252.997 168.348 252.645 167.975 252.432C167.602 252.219 167.052 252.112 166.327 252.112H164.231V254.864H166.359C167.063 254.864 167.602 254.763 167.975 254.56C168.348 254.347 168.535 253.989 168.535 253.488ZM168.295 249.76C168.295 249.355 168.146 249.061 167.847 248.88C167.559 248.688 167.084 248.592 166.423 248.592H164.231V250.944H166.167C166.86 250.944 167.388 250.848 167.751 250.656C168.114 250.464 168.295 250.165 168.295 249.76ZM174.97 247.28C176.015 247.28 176.789 247.509 177.29 247.968C177.791 248.427 178.042 249.157 178.042 250.16V256H177.018L176.746 254.784H176.682C176.437 255.093 176.181 255.355 175.914 255.568C175.658 255.771 175.359 255.92 175.018 256.016C174.687 256.112 174.282 256.16 173.802 256.16C173.29 256.16 172.826 256.069 172.41 255.888C172.005 255.707 171.685 255.429 171.45 255.056C171.215 254.672 171.098 254.192 171.098 253.616C171.098 252.763 171.434 252.107 172.106 251.648C172.778 251.179 173.813 250.923 175.21 250.88L176.666 250.832V250.32C176.666 249.605 176.511 249.109 176.202 248.832C175.893 248.555 175.455 248.416 174.89 248.416C174.442 248.416 174.015 248.485 173.61 248.624C173.205 248.752 172.826 248.901 172.474 249.072L172.042 248.016C172.415 247.813 172.858 247.643 173.37 247.504C173.882 247.355 174.415 247.28 174.97 247.28ZM175.386 251.856C174.319 251.899 173.578 252.069 173.162 252.368C172.757 252.667 172.554 253.088 172.554 253.632C172.554 254.112 172.698 254.464 172.986 254.688C173.285 254.912 173.663 255.024 174.122 255.024C174.847 255.024 175.45 254.827 175.93 254.432C176.41 254.027 176.65 253.408 176.65 252.576V251.808L175.386 251.856ZM183.683 247.264C184.419 247.264 185.048 247.424 185.571 247.744C186.104 248.064 186.509 248.517 186.787 249.104C187.075 249.68 187.219 250.357 187.219 251.136V251.984H181.347C181.368 252.955 181.613 253.696 182.083 254.208C182.563 254.709 183.229 254.96 184.083 254.96C184.627 254.96 185.107 254.912 185.523 254.816C185.949 254.709 186.387 254.56 186.835 254.368V255.6C186.397 255.792 185.965 255.931 185.539 256.016C185.112 256.112 184.605 256.16 184.019 256.16C183.208 256.16 182.488 255.995 181.859 255.664C181.24 255.333 180.755 254.843 180.403 254.192C180.061 253.531 179.891 252.725 179.891 251.776C179.891 250.837 180.045 250.032 180.355 249.36C180.675 248.688 181.117 248.171 181.683 247.808C182.259 247.445 182.925 247.264 183.683 247.264ZM183.667 248.416C182.995 248.416 182.461 248.635 182.067 249.072C181.683 249.499 181.453 250.096 181.379 250.864H185.747C185.747 250.373 185.672 249.947 185.523 249.584C185.373 249.221 185.144 248.939 184.835 248.736C184.536 248.523 184.147 248.416 183.667 248.416ZM195.002 248.608H192.202V256H190.81V248.608H188.042V247.424H195.002V248.608ZM199.655 256.16C198.898 256.16 198.22 256.005 197.623 255.696C197.036 255.387 196.572 254.907 196.231 254.256C195.9 253.605 195.735 252.773 195.735 251.76C195.735 250.704 195.911 249.845 196.263 249.184C196.615 248.523 197.09 248.037 197.687 247.728C198.295 247.419 198.983 247.264 199.751 247.264C200.188 247.264 200.61 247.312 201.015 247.408C201.42 247.493 201.751 247.6 202.007 247.728L201.575 248.896C201.319 248.8 201.02 248.709 200.679 248.624C200.338 248.539 200.018 248.496 199.719 248.496C199.143 248.496 198.668 248.619 198.295 248.864C197.922 249.109 197.644 249.472 197.463 249.952C197.282 250.432 197.191 251.029 197.191 251.744C197.191 252.427 197.282 253.008 197.463 253.488C197.644 253.968 197.916 254.331 198.279 254.576C198.642 254.821 199.095 254.944 199.639 254.944C200.108 254.944 200.519 254.896 200.871 254.8C201.234 254.704 201.564 254.587 201.863 254.448V255.696C201.575 255.845 201.255 255.957 200.903 256.032C200.562 256.117 200.146 256.16 199.655 256.16ZM204.111 256H202.479L204.927 252.4C204.596 252.315 204.276 252.181 203.967 252C203.657 251.808 203.407 251.547 203.215 251.216C203.023 250.875 202.927 250.453 202.927 249.952C202.927 249.131 203.204 248.507 203.759 248.08C204.313 247.643 205.049 247.424 205.967 247.424H209.807V256H208.399V252.592H206.319L204.111 256ZM204.287 249.968C204.287 250.459 204.468 250.827 204.831 251.072C205.204 251.307 205.721 251.424 206.383 251.424H208.399V248.592H206.111C205.46 248.592 204.991 248.72 204.703 248.976C204.425 249.232 204.287 249.563 204.287 249.968ZM223.042 249.584C223.042 250.117 222.882 250.533 222.562 250.832C222.242 251.131 221.831 251.333 221.33 251.44V251.504C221.863 251.579 222.327 251.771 222.722 252.08C223.116 252.379 223.314 252.848 223.314 253.488C223.314 253.851 223.244 254.187 223.106 254.496C222.978 254.805 222.775 255.072 222.498 255.296C222.22 255.52 221.863 255.696 221.426 255.824C220.988 255.941 220.46 256 219.842 256H216.146V247.424H219.826C220.434 247.424 220.978 247.493 221.458 247.632C221.948 247.76 222.332 247.984 222.61 248.304C222.898 248.613 223.042 249.04 223.042 249.584ZM221.858 253.488C221.858 252.997 221.671 252.645 221.298 252.432C220.924 252.219 220.375 252.112 219.65 252.112H217.554V254.864H219.682C220.386 254.864 220.924 254.763 221.298 254.56C221.671 254.347 221.858 253.989 221.858 253.488ZM221.618 249.76C221.618 249.355 221.468 249.061 221.17 248.88C220.882 248.688 220.407 248.592 219.746 248.592H217.554V250.944H219.49C220.183 250.944 220.711 250.848 221.074 250.656C221.436 250.464 221.618 250.165 221.618 249.76ZM228.292 247.28C229.338 247.28 230.111 247.509 230.612 247.968C231.114 248.427 231.364 249.157 231.364 250.16V256H230.34L230.068 254.784H230.004C229.759 255.093 229.503 255.355 229.236 255.568C228.98 255.771 228.682 255.92 228.34 256.016C228.01 256.112 227.604 256.16 227.124 256.16C226.612 256.16 226.148 256.069 225.732 255.888C225.327 255.707 225.007 255.429 224.772 255.056C224.538 254.672 224.42 254.192 224.42 253.616C224.42 252.763 224.756 252.107 225.428 251.648C226.1 251.179 227.135 250.923 228.532 250.88L229.988 250.832V250.32C229.988 249.605 229.834 249.109 229.524 248.832C229.215 248.555 228.778 248.416 228.212 248.416C227.764 248.416 227.338 248.485 226.932 248.624C226.527 248.752 226.148 248.901 225.796 249.072L225.364 248.016C225.738 247.813 226.18 247.643 226.692 247.504C227.204 247.355 227.738 247.28 228.292 247.28ZM228.708 251.856C227.642 251.899 226.9 252.069 226.484 252.368C226.079 252.667 225.876 253.088 225.876 253.632C225.876 254.112 226.02 254.464 226.308 254.688C226.607 254.912 226.986 255.024 227.444 255.024C228.17 255.024 228.772 254.827 229.252 254.432C229.732 254.027 229.972 253.408 229.972 252.576V251.808L228.708 251.856ZM245.325 247.424V256H233.693V247.424H235.101V254.816H238.797V247.424H240.205V254.816H243.917V247.424H245.325ZM251.246 250.848C251.246 249.6 251.368 248.539 251.614 247.664C251.87 246.779 252.259 246.075 252.782 245.552C253.315 245.019 253.998 244.661 254.83 244.48C255.523 244.331 256.2 244.197 256.862 244.08C257.523 243.963 258.142 243.856 258.718 243.76L258.958 244.992C258.68 245.035 258.371 245.088 258.03 245.152C257.688 245.205 257.342 245.264 256.99 245.328C256.638 245.381 256.296 245.44 255.966 245.504C255.646 245.557 255.363 245.611 255.118 245.664C254.766 245.739 254.451 245.867 254.174 246.048C253.896 246.219 253.656 246.453 253.454 246.752C253.262 247.051 253.107 247.419 252.99 247.856C252.872 248.293 252.803 248.811 252.782 249.408H252.878C253.027 249.205 253.23 248.997 253.486 248.784C253.752 248.571 254.067 248.389 254.43 248.24C254.803 248.091 255.224 248.016 255.694 248.016C256.44 248.016 257.059 248.181 257.55 248.512C258.051 248.832 258.424 249.28 258.67 249.856C258.926 250.432 259.054 251.104 259.054 251.872C259.054 252.821 258.888 253.616 258.558 254.256C258.227 254.896 257.768 255.376 257.182 255.696C256.595 256.005 255.912 256.16 255.134 256.16C254.547 256.16 254.014 256.048 253.534 255.824C253.054 255.589 252.643 255.248 252.302 254.8C251.96 254.352 251.699 253.797 251.518 253.136C251.336 252.475 251.246 251.712 251.246 250.848ZM255.246 254.992C255.715 254.992 256.12 254.896 256.462 254.704C256.814 254.512 257.086 254.197 257.278 253.76C257.47 253.323 257.566 252.741 257.566 252.016C257.566 251.141 257.4 250.453 257.07 249.952C256.75 249.44 256.216 249.184 255.47 249.184C255 249.184 254.574 249.291 254.19 249.504C253.806 249.707 253.486 249.941 253.23 250.208C252.974 250.475 252.792 250.699 252.686 250.88C252.686 251.403 252.723 251.909 252.798 252.4C252.872 252.891 253 253.333 253.182 253.728C253.374 254.112 253.635 254.421 253.966 254.656C254.307 254.88 254.734 254.992 255.246 254.992ZM264.2 247.28C265.245 247.28 266.019 247.509 266.52 247.968C267.021 248.427 267.272 249.157 267.272 250.16V256H266.248L265.976 254.784H265.912C265.667 255.093 265.411 255.355 265.144 255.568C264.888 255.771 264.589 255.92 264.248 256.016C263.917 256.112 263.512 256.16 263.032 256.16C262.52 256.16 262.056 256.069 261.64 255.888C261.235 255.707 260.915 255.429 260.68 255.056C260.445 254.672 260.328 254.192 260.328 253.616C260.328 252.763 260.664 252.107 261.336 251.648C262.008 251.179 263.043 250.923 264.44 250.88L265.896 250.832V250.32C265.896 249.605 265.741 249.109 265.432 248.832C265.123 248.555 264.685 248.416 264.12 248.416C263.672 248.416 263.245 248.485 262.84 248.624C262.435 248.752 262.056 248.901 261.704 249.072L261.272 248.016C261.645 247.813 262.088 247.643 262.6 247.504C263.112 247.355 263.645 247.28 264.2 247.28ZM264.616 251.856C263.549 251.899 262.808 252.069 262.392 252.368C261.987 252.667 261.784 253.088 261.784 253.632C261.784 254.112 261.928 254.464 262.216 254.688C262.515 254.912 262.893 255.024 263.352 255.024C264.077 255.024 264.68 254.827 265.16 254.432C265.64 254.027 265.88 253.408 265.88 252.576V251.808L264.616 251.856ZM271.857 247.264C272.507 247.264 273.073 247.355 273.553 247.536C274.033 247.707 274.406 247.963 274.673 248.304C274.939 248.635 275.073 249.04 275.073 249.52C275.073 250.043 274.929 250.459 274.641 250.768C274.353 251.067 273.958 251.285 273.457 251.424V251.488C273.798 251.584 274.113 251.717 274.401 251.888C274.689 252.059 274.918 252.283 275.089 252.56C275.27 252.837 275.361 253.195 275.361 253.632C275.361 254.101 275.227 254.528 274.961 254.912C274.705 255.296 274.305 255.6 273.761 255.824C273.227 256.048 272.539 256.16 271.697 256.16C271.291 256.16 270.902 256.139 270.529 256.096C270.166 256.053 269.835 255.989 269.537 255.904C269.249 255.819 268.993 255.717 268.769 255.6V254.336C269.131 254.507 269.558 254.661 270.049 254.8C270.55 254.939 271.094 255.008 271.681 255.008C272.107 255.008 272.491 254.96 272.833 254.864C273.185 254.768 273.462 254.619 273.665 254.416C273.867 254.203 273.969 253.915 273.969 253.552C273.969 253.221 273.878 252.955 273.697 252.752C273.515 252.539 273.243 252.379 272.881 252.272C272.529 252.165 272.075 252.112 271.521 252.112H270.369V250.96H271.297C272.033 250.96 272.619 250.864 273.057 250.672C273.505 250.469 273.729 250.128 273.729 249.648C273.729 249.243 273.558 248.939 273.217 248.736C272.886 248.533 272.406 248.432 271.777 248.432C271.307 248.432 270.891 248.48 270.529 248.576C270.177 248.661 269.787 248.795 269.361 248.976L268.865 247.856C269.323 247.653 269.803 247.504 270.305 247.408C270.806 247.312 271.323 247.264 271.857 247.264ZM284.58 251.696C284.58 252.411 284.484 253.045 284.292 253.6C284.111 254.144 283.844 254.608 283.492 254.992C283.151 255.376 282.73 255.669 282.228 255.872C281.738 256.064 281.188 256.16 280.58 256.16C280.015 256.16 279.492 256.064 279.012 255.872C278.532 255.669 278.116 255.376 277.764 254.992C277.412 254.608 277.135 254.144 276.932 253.6C276.74 253.045 276.644 252.411 276.644 251.696C276.644 250.747 276.804 249.947 277.124 249.296C277.444 248.635 277.903 248.133 278.5 247.792C279.098 247.44 279.807 247.264 280.628 247.264C281.407 247.264 282.09 247.44 282.676 247.792C283.274 248.133 283.738 248.635 284.068 249.296C284.41 249.947 284.58 250.747 284.58 251.696ZM278.1 251.696C278.1 252.368 278.186 252.955 278.356 253.456C278.538 253.947 278.815 254.325 279.188 254.592C279.562 254.859 280.036 254.992 280.612 254.992C281.188 254.992 281.663 254.859 282.036 254.592C282.41 254.325 282.682 253.947 282.852 253.456C283.034 252.955 283.124 252.368 283.124 251.696C283.124 251.013 283.034 250.432 282.852 249.952C282.671 249.472 282.394 249.104 282.02 248.848C281.658 248.581 281.183 248.448 280.596 248.448C279.722 248.448 279.087 248.736 278.692 249.312C278.298 249.888 278.1 250.683 278.1 251.696ZM293.388 249.584C293.388 250.117 293.228 250.533 292.908 250.832C292.588 251.131 292.177 251.333 291.676 251.44V251.504C292.209 251.579 292.673 251.771 293.068 252.08C293.463 252.379 293.66 252.848 293.66 253.488C293.66 253.851 293.591 254.187 293.452 254.496C293.324 254.805 293.121 255.072 292.844 255.296C292.567 255.52 292.209 255.696 291.772 255.824C291.335 255.941 290.807 256 290.188 256H286.492V247.424H290.172C290.78 247.424 291.324 247.493 291.804 247.632C292.295 247.76 292.679 247.984 292.956 248.304C293.244 248.613 293.388 249.04 293.388 249.584ZM292.204 253.488C292.204 252.997 292.017 252.645 291.644 252.432C291.271 252.219 290.721 252.112 289.996 252.112H287.9V254.864H290.028C290.732 254.864 291.271 254.763 291.644 254.56C292.017 254.347 292.204 253.989 292.204 253.488ZM291.964 249.76C291.964 249.355 291.815 249.061 291.516 248.88C291.228 248.688 290.753 248.592 290.092 248.592H287.9V250.944H289.836C290.529 250.944 291.057 250.848 291.42 250.656C291.783 250.464 291.964 250.165 291.964 249.76ZM295.391 256V247.424H296.799V250.944H299.023C299.769 250.944 300.383 251.035 300.863 251.216C301.343 251.397 301.7 251.669 301.935 252.032C302.169 252.384 302.287 252.832 302.287 253.376C302.287 253.909 302.169 254.373 301.935 254.768C301.711 255.163 301.353 255.467 300.863 255.68C300.383 255.893 299.748 256 298.959 256H295.391ZM298.831 254.864C299.439 254.864 299.935 254.763 300.319 254.56C300.703 254.347 300.895 253.979 300.895 253.456C300.895 252.933 300.719 252.581 300.367 252.4C300.015 252.208 299.508 252.112 298.847 252.112H296.799V254.864H298.831ZM303.711 256V247.424H305.119V256H303.711ZM314.468 243.872C314.425 244.405 314.292 244.853 314.068 245.216C313.854 245.579 313.534 245.851 313.108 246.032C312.681 246.213 312.126 246.304 311.444 246.304C310.75 246.304 310.19 246.213 309.764 246.032C309.348 245.851 309.044 245.584 308.852 245.232C308.66 244.869 308.542 244.416 308.5 243.872H309.812C309.865 244.448 310.014 244.837 310.26 245.04C310.516 245.232 310.921 245.328 311.476 245.328C311.966 245.328 312.35 245.227 312.628 245.024C312.916 244.811 313.086 244.427 313.14 243.872H314.468ZM308.852 252.656C308.852 252.752 308.846 252.891 308.836 253.072C308.836 253.243 308.83 253.429 308.82 253.632C308.809 253.824 308.798 254.011 308.788 254.192C308.777 254.363 308.766 254.501 308.756 254.608L313.348 247.424H315.076V256H313.764V250.944C313.764 250.773 313.764 250.549 313.764 250.272C313.774 249.995 313.785 249.723 313.796 249.456C313.806 249.179 313.817 248.971 313.828 248.832L309.268 256H307.524V247.424H308.852V252.656ZM328.887 251.696C328.887 252.411 328.791 253.045 328.599 253.6C328.417 254.144 328.151 254.608 327.799 254.992C327.457 255.376 327.036 255.669 326.535 255.872C326.044 256.064 325.495 256.16 324.887 256.16C324.321 256.16 323.799 256.064 323.319 255.872C322.839 255.669 322.423 255.376 322.071 254.992C321.719 254.608 321.441 254.144 321.239 253.6C321.047 253.045 320.951 252.411 320.951 251.696C320.951 250.747 321.111 249.947 321.431 249.296C321.751 248.635 322.209 248.133 322.807 247.792C323.404 247.44 324.113 247.264 324.935 247.264C325.713 247.264 326.396 247.44 326.983 247.792C327.58 248.133 328.044 248.635 328.375 249.296C328.716 249.947 328.887 250.747 328.887 251.696ZM322.407 251.696C322.407 252.368 322.492 252.955 322.663 253.456C322.844 253.947 323.121 254.325 323.495 254.592C323.868 254.859 324.343 254.992 324.919 254.992C325.495 254.992 325.969 254.859 326.343 254.592C326.716 254.325 326.988 253.947 327.159 253.456C327.34 252.955 327.431 252.368 327.431 251.696C327.431 251.013 327.34 250.432 327.159 249.952C326.977 249.472 326.7 249.104 326.327 248.848C325.964 248.581 325.489 248.448 324.903 248.448C324.028 248.448 323.393 248.736 322.999 249.312C322.604 249.888 322.407 250.683 322.407 251.696ZM330.35 250.848C330.35 249.6 330.473 248.539 330.718 247.664C330.974 246.779 331.363 246.075 331.886 245.552C332.419 245.019 333.102 244.661 333.934 244.48C334.627 244.331 335.305 244.197 335.966 244.08C336.627 243.963 337.246 243.856 337.822 243.76L338.062 244.992C337.785 245.035 337.475 245.088 337.134 245.152C336.793 245.205 336.446 245.264 336.094 245.328C335.742 245.381 335.401 245.44 335.07 245.504C334.75 245.557 334.467 245.611 334.222 245.664C333.87 245.739 333.555 245.867 333.278 246.048C333.001 246.219 332.761 246.453 332.558 246.752C332.366 247.051 332.211 247.419 332.094 247.856C331.977 248.293 331.907 248.811 331.886 249.408H331.982C332.131 249.205 332.334 248.997 332.59 248.784C332.857 248.571 333.171 248.389 333.534 248.24C333.907 248.091 334.329 248.016 334.798 248.016C335.545 248.016 336.163 248.181 336.654 248.512C337.155 248.832 337.529 249.28 337.774 249.856C338.03 250.432 338.158 251.104 338.158 251.872C338.158 252.821 337.993 253.616 337.662 254.256C337.331 254.896 336.873 255.376 336.286 255.696C335.699 256.005 335.017 256.16 334.238 256.16C333.651 256.16 333.118 256.048 332.638 255.824C332.158 255.589 331.747 255.248 331.406 254.8C331.065 254.352 330.803 253.797 330.622 253.136C330.441 252.475 330.35 251.712 330.35 250.848ZM334.35 254.992C334.819 254.992 335.225 254.896 335.566 254.704C335.918 254.512 336.19 254.197 336.382 253.76C336.574 253.323 336.67 252.741 336.67 252.016C336.67 251.141 336.505 250.453 336.174 249.952C335.854 249.44 335.321 249.184 334.574 249.184C334.105 249.184 333.678 249.291 333.294 249.504C332.91 249.707 332.59 249.941 332.334 250.208C332.078 250.475 331.897 250.699 331.79 250.88C331.79 251.403 331.827 251.909 331.902 252.4C331.977 252.891 332.105 253.333 332.286 253.728C332.478 254.112 332.739 254.421 333.07 254.656C333.411 254.88 333.838 254.992 334.35 254.992ZM349.256 247.424V256H347.992V250.528C347.992 250.304 347.998 250.069 348.008 249.824C348.03 249.579 348.051 249.339 348.072 249.104H348.024L345.224 256H344.04L341.32 249.104H341.272C341.294 249.339 341.304 249.579 341.304 249.824C341.315 250.069 341.32 250.32 341.32 250.576V256H340.056V247.424H341.928L344.632 254.32L347.384 247.424H349.256ZM354.986 247.264C355.722 247.264 356.351 247.424 356.874 247.744C357.407 248.064 357.812 248.517 358.09 249.104C358.378 249.68 358.522 250.357 358.522 251.136V251.984H352.65C352.671 252.955 352.916 253.696 353.386 254.208C353.866 254.709 354.532 254.96 355.386 254.96C355.93 254.96 356.41 254.912 356.826 254.816C357.252 254.709 357.69 254.56 358.138 254.368V255.6C357.7 255.792 357.268 255.931 356.842 256.016C356.415 256.112 355.908 256.16 355.322 256.16C354.511 256.16 353.791 255.995 353.162 255.664C352.543 255.333 352.058 254.843 351.706 254.192C351.364 253.531 351.194 252.725 351.194 251.776C351.194 250.837 351.348 250.032 351.658 249.36C351.978 248.688 352.42 248.171 352.986 247.808C353.562 247.445 354.228 247.264 354.986 247.264ZM354.97 248.416C354.298 248.416 353.764 248.635 353.37 249.072C352.986 249.499 352.756 250.096 352.682 250.864H357.05C357.05 250.373 356.975 249.947 356.826 249.584C356.676 249.221 356.447 248.939 356.138 248.736C355.839 248.523 355.45 248.416 354.97 248.416ZM361.793 247.424V250.992H366.449V247.424H367.857V256H366.449V252.176H361.793V256H360.385V247.424H361.793ZM101.256 278.584C101.256 279.117 101.096 279.533 100.776 279.832C100.456 280.131 100.045 280.333 99.544 280.44V280.504C100.077 280.579 100.541 280.771 100.936 281.08C101.331 281.379 101.528 281.848 101.528 282.488C101.528 282.851 101.459 283.187 101.32 283.496C101.192 283.805 100.989 284.072 100.712 284.296C100.435 284.52 100.077 284.696 99.64 284.824C99.2027 284.941 98.6747 285 98.056 285H94.36V276.424H98.04C98.648 276.424 99.192 276.493 99.672 276.632C100.163 276.76 100.547 276.984 100.824 277.304C101.112 277.613 101.256 278.04 101.256 278.584ZM100.072 282.488C100.072 281.997 99.8853 281.645 99.512 281.432C99.1387 281.219 98.5893 281.112 97.864 281.112H95.768V283.864H97.896C98.6 283.864 99.1387 283.763 99.512 283.56C99.8853 283.347 100.072 282.989 100.072 282.488ZM99.832 278.76C99.832 278.355 99.6827 278.061 99.384 277.88C99.096 277.688 98.6213 277.592 97.96 277.592H95.768V279.944H97.704C98.3973 279.944 98.9253 279.848 99.288 279.656C99.6507 279.464 99.832 279.165 99.832 278.76ZM106.571 276.264C107.307 276.264 107.936 276.424 108.459 276.744C108.992 277.064 109.397 277.517 109.675 278.104C109.963 278.68 110.107 279.357 110.107 280.136V280.984H104.235C104.256 281.955 104.501 282.696 104.971 283.208C105.451 283.709 106.117 283.96 106.971 283.96C107.515 283.96 107.995 283.912 108.411 283.816C108.837 283.709 109.275 283.56 109.723 283.368V284.6C109.285 284.792 108.853 284.931 108.427 285.016C108 285.112 107.493 285.16 106.907 285.16C106.096 285.16 105.376 284.995 104.747 284.664C104.128 284.333 103.643 283.843 103.291 283.192C102.949 282.531 102.779 281.725 102.779 280.776C102.779 279.837 102.933 279.032 103.243 278.36C103.563 277.688 104.005 277.171 104.571 276.808C105.147 276.445 105.813 276.264 106.571 276.264ZM106.555 277.416C105.883 277.416 105.349 277.635 104.955 278.072C104.571 278.499 104.341 279.096 104.267 279.864H108.635C108.635 279.373 108.56 278.947 108.411 278.584C108.261 278.221 108.032 277.939 107.723 277.736C107.424 277.523 107.035 277.416 106.555 277.416ZM123.586 276.424V283.832H124.834V287.96H123.426V285H111.97V276.424H113.378V283.816H117.074V276.424H118.482V283.816H122.194V276.424H123.586ZM129.462 276.264C130.198 276.264 130.827 276.424 131.35 276.744C131.883 277.064 132.289 277.517 132.566 278.104C132.854 278.68 132.998 279.357 132.998 280.136V280.984H127.126C127.147 281.955 127.393 282.696 127.862 283.208C128.342 283.709 129.009 283.96 129.862 283.96C130.406 283.96 130.886 283.912 131.302 283.816C131.729 283.709 132.166 283.56 132.614 283.368V284.6C132.177 284.792 131.745 284.931 131.318 285.016C130.891 285.112 130.385 285.16 129.798 285.16C128.987 285.16 128.267 284.995 127.638 284.664C127.019 284.333 126.534 283.843 126.182 283.192C125.841 282.531 125.67 281.725 125.67 280.776C125.67 279.837 125.825 279.032 126.134 278.36C126.454 277.688 126.897 277.171 127.462 276.808C128.038 276.445 128.705 276.264 129.462 276.264ZM129.446 277.416C128.774 277.416 128.241 277.635 127.846 278.072C127.462 278.499 127.233 279.096 127.158 279.864H131.526C131.526 279.373 131.451 278.947 131.302 278.584C131.153 278.221 130.923 277.939 130.614 277.736C130.315 277.523 129.926 277.416 129.446 277.416ZM138.301 285.16C137.544 285.16 136.867 285.005 136.269 284.696C135.683 284.387 135.219 283.907 134.877 283.256C134.547 282.605 134.381 281.773 134.381 280.76C134.381 279.704 134.557 278.845 134.909 278.184C135.261 277.523 135.736 277.037 136.333 276.728C136.941 276.419 137.629 276.264 138.397 276.264C138.835 276.264 139.256 276.312 139.661 276.408C140.067 276.493 140.397 276.6 140.653 276.728L140.221 277.896C139.965 277.8 139.667 277.709 139.325 277.624C138.984 277.539 138.664 277.496 138.365 277.496C137.789 277.496 137.315 277.619 136.941 277.864C136.568 278.109 136.291 278.472 136.109 278.952C135.928 279.432 135.837 280.029 135.837 280.744C135.837 281.427 135.928 282.008 136.109 282.488C136.291 282.968 136.563 283.331 136.925 283.576C137.288 283.821 137.741 283.944 138.285 283.944C138.755 283.944 139.165 283.896 139.517 283.8C139.88 283.704 140.211 283.587 140.509 283.448V284.696C140.221 284.845 139.901 284.957 139.549 285.032C139.208 285.117 138.792 285.16 138.301 285.16ZM148.149 277.608H145.349V285H143.957V277.608H141.189V276.424H148.149V277.608ZM156.414 278.584C156.414 279.117 156.254 279.533 155.934 279.832C155.614 280.131 155.203 280.333 154.702 280.44V280.504C155.235 280.579 155.699 280.771 156.094 281.08C156.489 281.379 156.686 281.848 156.686 282.488C156.686 282.851 156.617 283.187 156.478 283.496C156.35 283.805 156.147 284.072 155.87 284.296C155.593 284.52 155.235 284.696 154.798 284.824C154.361 284.941 153.833 285 153.214 285H149.518V276.424H153.198C153.806 276.424 154.35 276.493 154.83 276.632C155.321 276.76 155.705 276.984 155.982 277.304C156.27 277.613 156.414 278.04 156.414 278.584ZM155.23 282.488C155.23 281.997 155.043 281.645 154.67 281.432C154.297 281.219 153.747 281.112 153.022 281.112H150.926V283.864H153.054C153.758 283.864 154.297 283.763 154.67 283.56C155.043 283.347 155.23 282.989 155.23 282.488ZM154.99 278.76C154.99 278.355 154.841 278.061 154.542 277.88C154.254 277.688 153.779 277.592 153.118 277.592H150.926V279.944H152.862C153.555 279.944 154.083 279.848 154.446 279.656C154.809 279.464 154.99 279.165 154.99 278.76ZM169.611 276.424V285H168.203V277.624H163.771V285H162.363V276.424H169.611ZM179.483 280.696C179.483 281.411 179.387 282.045 179.195 282.6C179.014 283.144 178.747 283.608 178.395 283.992C178.054 284.376 177.632 284.669 177.131 284.872C176.64 285.064 176.091 285.16 175.483 285.16C174.918 285.16 174.395 285.064 173.915 284.872C173.435 284.669 173.019 284.376 172.667 283.992C172.315 283.608 172.038 283.144 171.835 282.6C171.643 282.045 171.547 281.411 171.547 280.696C171.547 279.747 171.707 278.947 172.027 278.296C172.347 277.635 172.806 277.133 173.403 276.792C174 276.44 174.71 276.264 175.531 276.264C176.31 276.264 176.992 276.44 177.579 276.792C178.176 277.133 178.64 277.635 178.971 278.296C179.312 278.947 179.483 279.747 179.483 280.696ZM173.003 280.696C173.003 281.368 173.088 281.955 173.259 282.456C173.44 282.947 173.718 283.325 174.091 283.592C174.464 283.859 174.939 283.992 175.515 283.992C176.091 283.992 176.566 283.859 176.939 283.592C177.312 283.325 177.584 282.947 177.755 282.456C177.936 281.955 178.027 281.368 178.027 280.696C178.027 280.013 177.936 279.432 177.755 278.952C177.574 278.472 177.296 278.104 176.923 277.848C176.56 277.581 176.086 277.448 175.499 277.448C174.624 277.448 173.99 277.736 173.595 278.312C173.2 278.888 173.003 279.683 173.003 280.696ZM192.236 278.584C192.236 279.117 192.076 279.533 191.756 279.832C191.436 280.131 191.025 280.333 190.524 280.44V280.504C191.057 280.579 191.521 280.771 191.916 281.08C192.311 281.379 192.508 281.848 192.508 282.488C192.508 282.851 192.439 283.187 192.3 283.496C192.172 283.805 191.969 284.072 191.692 284.296C191.415 284.52 191.057 284.696 190.62 284.824C190.183 284.941 189.655 285 189.036 285H185.34V276.424H189.02C189.628 276.424 190.172 276.493 190.652 276.632C191.143 276.76 191.527 276.984 191.804 277.304C192.092 277.613 192.236 278.04 192.236 278.584ZM191.052 282.488C191.052 281.997 190.865 281.645 190.492 281.432C190.119 281.219 189.569 281.112 188.844 281.112H186.748V283.864H188.876C189.58 283.864 190.119 283.763 190.492 283.56C190.865 283.347 191.052 282.989 191.052 282.488ZM190.812 278.76C190.812 278.355 190.663 278.061 190.364 277.88C190.076 277.688 189.601 277.592 188.94 277.592H186.748V279.944H188.684C189.377 279.944 189.905 279.848 190.268 279.656C190.631 279.464 190.812 279.165 190.812 278.76ZM197.487 276.28C198.532 276.28 199.305 276.509 199.807 276.968C200.308 277.427 200.559 278.157 200.559 279.16V285H199.535L199.263 283.784H199.199C198.953 284.093 198.697 284.355 198.431 284.568C198.175 284.771 197.876 284.92 197.535 285.016C197.204 285.112 196.799 285.16 196.319 285.16C195.807 285.16 195.343 285.069 194.927 284.888C194.521 284.707 194.201 284.429 193.967 284.056C193.732 283.672 193.615 283.192 193.615 282.616C193.615 281.763 193.951 281.107 194.623 280.648C195.295 280.179 196.329 279.923 197.727 279.88L199.183 279.832V279.32C199.183 278.605 199.028 278.109 198.719 277.832C198.409 277.555 197.972 277.416 197.407 277.416C196.959 277.416 196.532 277.485 196.127 277.624C195.721 277.752 195.343 277.901 194.991 278.072L194.559 277.016C194.932 276.813 195.375 276.643 195.887 276.504C196.399 276.355 196.932 276.28 197.487 276.28ZM197.903 280.856C196.836 280.899 196.095 281.069 195.679 281.368C195.273 281.667 195.071 282.088 195.071 282.632C195.071 283.112 195.215 283.464 195.503 283.688C195.801 283.912 196.18 284.024 196.639 284.024C197.364 284.024 197.967 283.827 198.447 283.432C198.927 283.027 199.167 282.408 199.167 281.576V280.808L197.903 280.856ZM214.519 276.424V285H202.887V276.424H204.295V283.816H207.991V276.424H209.399V283.816H213.111V276.424H214.519ZM218.27 281.656C218.27 281.752 218.265 281.891 218.254 282.072C218.254 282.243 218.249 282.429 218.238 282.632C218.228 282.824 218.217 283.011 218.206 283.192C218.196 283.363 218.185 283.501 218.174 283.608L222.766 276.424H224.494V285H223.182V279.944C223.182 279.773 223.182 279.549 223.182 279.272C223.193 278.995 223.204 278.723 223.214 278.456C223.225 278.179 223.236 277.971 223.246 277.832L218.686 285H216.942V276.424H218.27V281.656ZM236.104 276.424V285H234.84V279.528C234.84 279.304 234.845 279.069 234.856 278.824C234.877 278.579 234.898 278.339 234.92 278.104H234.872L232.072 285H230.888L228.168 278.104H228.12C228.141 278.339 228.152 278.579 228.152 278.824C228.162 279.069 228.168 279.32 228.168 279.576V285H226.904V276.424H228.776L231.48 283.32L234.232 276.424H236.104ZM242.019 279.848C242.019 278.6 242.142 277.539 242.387 276.664C242.643 275.779 243.032 275.075 243.555 274.552C244.088 274.019 244.771 273.661 245.603 273.48C246.296 273.331 246.974 273.197 247.635 273.08C248.296 272.963 248.915 272.856 249.491 272.76L249.731 273.992C249.454 274.035 249.144 274.088 248.803 274.152C248.462 274.205 248.115 274.264 247.763 274.328C247.411 274.381 247.07 274.44 246.739 274.504C246.419 274.557 246.136 274.611 245.891 274.664C245.539 274.739 245.224 274.867 244.947 275.048C244.67 275.219 244.43 275.453 244.227 275.752C244.035 276.051 243.88 276.419 243.763 276.856C243.646 277.293 243.576 277.811 243.555 278.408H243.651C243.8 278.205 244.003 277.997 244.259 277.784C244.526 277.571 244.84 277.389 245.203 277.24C245.576 277.091 245.998 277.016 246.467 277.016C247.214 277.016 247.832 277.181 248.323 277.512C248.824 277.832 249.198 278.28 249.443 278.856C249.699 279.432 249.827 280.104 249.827 280.872C249.827 281.821 249.662 282.616 249.331 283.256C249 283.896 248.542 284.376 247.955 284.696C247.368 285.005 246.686 285.16 245.907 285.16C245.32 285.16 244.787 285.048 244.307 284.824C243.827 284.589 243.416 284.248 243.075 283.8C242.734 283.352 242.472 282.797 242.291 282.136C242.11 281.475 242.019 280.712 242.019 279.848ZM246.019 283.992C246.488 283.992 246.894 283.896 247.235 283.704C247.587 283.512 247.859 283.197 248.051 282.76C248.243 282.323 248.339 281.741 248.339 281.016C248.339 280.141 248.174 279.453 247.843 278.952C247.523 278.44 246.99 278.184 246.243 278.184C245.774 278.184 245.347 278.291 244.963 278.504C244.579 278.707 244.259 278.941 244.003 279.208C243.747 279.475 243.566 279.699 243.459 279.88C243.459 280.403 243.496 280.909 243.571 281.4C243.646 281.891 243.774 282.333 243.955 282.728C244.147 283.112 244.408 283.421 244.739 283.656C245.08 283.88 245.507 283.992 246.019 283.992ZM253.053 281.656C253.053 281.752 253.048 281.891 253.037 282.072C253.037 282.243 253.032 282.429 253.021 282.632C253.01 282.824 253 283.011 252.989 283.192C252.978 283.363 252.968 283.501 252.957 283.608L257.549 276.424H259.277V285H257.965V279.944C257.965 279.773 257.965 279.549 257.965 279.272C257.976 278.995 257.986 278.723 257.997 278.456C258.008 278.179 258.018 277.971 258.029 277.832L253.469 285H251.725V276.424H253.053V281.656ZM269.142 280.696C269.142 281.411 269.046 282.045 268.854 282.6C268.673 283.144 268.406 283.608 268.054 283.992C267.713 284.376 267.292 284.669 266.79 284.872C266.3 285.064 265.75 285.16 265.142 285.16C264.577 285.16 264.054 285.064 263.574 284.872C263.094 284.669 262.678 284.376 262.326 283.992C261.974 283.608 261.697 283.144 261.494 282.6C261.302 282.045 261.206 281.411 261.206 280.696C261.206 279.747 261.366 278.947 261.686 278.296C262.006 277.635 262.465 277.133 263.062 276.792C263.66 276.44 264.369 276.264 265.19 276.264C265.969 276.264 266.652 276.44 267.238 276.792C267.836 277.133 268.3 277.635 268.63 278.296C268.972 278.947 269.142 279.747 269.142 280.696ZM262.662 280.696C262.662 281.368 262.748 281.955 262.918 282.456C263.1 282.947 263.377 283.325 263.75 283.592C264.124 283.859 264.598 283.992 265.174 283.992C265.75 283.992 266.225 283.859 266.598 283.592C266.972 283.325 267.244 282.947 267.414 282.456C267.596 281.955 267.686 281.368 267.686 280.696C267.686 280.013 267.596 279.432 267.414 278.952C267.233 278.472 266.956 278.104 266.582 277.848C266.22 277.581 265.745 277.448 265.158 277.448C264.284 277.448 263.649 277.736 263.254 278.312C262.86 278.888 262.662 279.683 262.662 280.696ZM280.254 276.424V285H278.99V279.528C278.99 279.304 278.995 279.069 279.006 278.824C279.027 278.579 279.048 278.339 279.07 278.104H279.022L276.222 285H275.038L272.318 278.104H272.27C272.291 278.339 272.302 278.579 272.302 278.824C272.312 279.069 272.318 279.32 272.318 279.576V285H271.054V276.424H272.926L275.63 283.32L278.382 276.424H280.254ZM285.983 276.264C286.719 276.264 287.349 276.424 287.871 276.744C288.405 277.064 288.81 277.517 289.087 278.104C289.375 278.68 289.519 279.357 289.519 280.136V280.984H283.647C283.669 281.955 283.914 282.696 284.383 283.208C284.863 283.709 285.53 283.96 286.383 283.96C286.927 283.96 287.407 283.912 287.823 283.816C288.25 283.709 288.687 283.56 289.135 283.368V284.6C288.698 284.792 288.266 284.931 287.839 285.016C287.413 285.112 286.906 285.16 286.319 285.16C285.509 285.16 284.789 284.995 284.159 284.664C283.541 284.333 283.055 283.843 282.703 283.192C282.362 282.531 282.191 281.725 282.191 280.776C282.191 279.837 282.346 279.032 282.655 278.36C282.975 277.688 283.418 277.171 283.983 276.808C284.559 276.445 285.226 276.264 285.983 276.264ZM285.967 277.416C285.295 277.416 284.762 277.635 284.367 278.072C283.983 278.499 283.754 279.096 283.679 279.864H288.047C288.047 279.373 287.973 278.947 287.823 278.584C287.674 278.221 287.445 277.939 287.135 277.736C286.837 277.523 286.447 277.416 285.967 277.416ZM297.303 277.608H294.503V285H293.111V277.608H290.343V276.424H297.303V277.608ZM302.752 276.264C303.808 276.264 304.656 276.632 305.296 277.368C305.947 278.104 306.272 279.213 306.272 280.696C306.272 281.667 306.123 282.488 305.824 283.16C305.536 283.821 305.125 284.323 304.592 284.664C304.069 284.995 303.451 285.16 302.736 285.16C302.299 285.16 301.909 285.101 301.568 284.984C301.227 284.867 300.933 284.717 300.688 284.536C300.453 284.344 300.251 284.136 300.08 283.912H299.984C300.005 284.093 300.027 284.323 300.048 284.6C300.069 284.877 300.08 285.117 300.08 285.32V288.84H298.672V276.424H299.824L300.016 277.592H300.08C300.251 277.347 300.453 277.123 300.688 276.92C300.933 276.717 301.221 276.557 301.552 276.44C301.893 276.323 302.293 276.264 302.752 276.264ZM302.496 277.448C301.92 277.448 301.456 277.56 301.104 277.784C300.752 277.997 300.496 278.323 300.336 278.76C300.176 279.197 300.091 279.752 300.08 280.424V280.696C300.08 281.4 300.155 281.997 300.304 282.488C300.453 282.979 300.704 283.352 301.056 283.608C301.419 283.864 301.909 283.992 302.528 283.992C303.051 283.992 303.477 283.848 303.808 283.56C304.149 283.272 304.4 282.883 304.56 282.392C304.731 281.891 304.816 281.32 304.816 280.68C304.816 279.699 304.624 278.915 304.24 278.328C303.867 277.741 303.285 277.448 302.496 277.448ZM309.524 281.656C309.524 281.752 309.518 281.891 309.508 282.072C309.508 282.243 309.502 282.429 309.492 282.632C309.481 282.824 309.47 283.011 309.46 283.192C309.449 283.363 309.438 283.501 309.428 283.608L314.02 276.424H315.748V285H314.436V279.944C314.436 279.773 314.436 279.549 314.436 279.272C314.446 278.995 314.457 278.723 314.468 278.456C314.478 278.179 314.489 277.971 314.5 277.832L309.94 285H308.196V276.424H309.524V281.656ZM319.389 279.544C319.389 280.045 319.528 280.419 319.805 280.664C320.093 280.899 320.504 281.016 321.037 281.016C321.57 281.016 322.056 280.936 322.493 280.776C322.93 280.605 323.378 280.381 323.837 280.104V276.424H325.245V285H323.837V281.176C323.357 281.485 322.882 281.731 322.413 281.912C321.954 282.083 321.4 282.168 320.749 282.168C319.874 282.168 319.192 281.939 318.701 281.48C318.221 281.021 317.981 280.408 317.981 279.64V276.424H319.389V279.544ZM330.961 276.264C331.697 276.264 332.327 276.424 332.849 276.744C333.383 277.064 333.788 277.517 334.065 278.104C334.353 278.68 334.497 279.357 334.497 280.136V280.984H328.625C328.647 281.955 328.892 282.696 329.361 283.208C329.841 283.709 330.508 283.96 331.361 283.96C331.905 283.96 332.385 283.912 332.801 283.816C333.228 283.709 333.665 283.56 334.113 283.368V284.6C333.676 284.792 333.244 284.931 332.817 285.016C332.391 285.112 331.884 285.16 331.297 285.16C330.487 285.16 329.767 284.995 329.137 284.664C328.519 284.333 328.033 283.843 327.681 283.192C327.34 282.531 327.169 281.725 327.169 280.776C327.169 279.837 327.324 279.032 327.633 278.36C327.953 277.688 328.396 277.171 328.961 276.808C329.537 276.445 330.204 276.264 330.961 276.264ZM330.945 277.416C330.273 277.416 329.74 277.635 329.345 278.072C328.961 278.499 328.732 279.096 328.657 279.864H333.025C333.025 279.373 332.951 278.947 332.801 278.584C332.652 278.221 332.423 277.939 332.113 277.736C331.815 277.523 331.425 277.416 330.945 277.416ZM339.801 285.16C339.043 285.16 338.366 285.005 337.769 284.696C337.182 284.387 336.718 283.907 336.377 283.256C336.046 282.605 335.881 281.773 335.881 280.76C335.881 279.704 336.057 278.845 336.409 278.184C336.761 277.523 337.235 277.037 337.833 276.728C338.441 276.419 339.129 276.264 339.897 276.264C340.334 276.264 340.755 276.312 341.161 276.408C341.566 276.493 341.897 276.6 342.153 276.728L341.721 277.896C341.465 277.8 341.166 277.709 340.825 277.624C340.483 277.539 340.163 277.496 339.865 277.496C339.289 277.496 338.814 277.619 338.441 277.864C338.067 278.109 337.79 278.472 337.609 278.952C337.427 279.432 337.337 280.029 337.337 280.744C337.337 281.427 337.427 282.008 337.609 282.488C337.79 282.968 338.062 283.331 338.425 283.576C338.787 283.821 339.241 283.944 339.785 283.944C340.254 283.944 340.665 283.896 341.017 283.8C341.379 283.704 341.71 283.587 342.009 283.448V284.696C341.721 284.845 341.401 284.957 341.049 285.032C340.707 285.117 340.291 285.16 339.801 285.16ZM348.8 276.424H350.336L346.672 280.552L350.64 285H349.008L345.136 280.648V285H343.728V276.424H345.136V280.584L348.8 276.424ZM353.205 281.656C353.205 281.752 353.2 281.891 353.189 282.072C353.189 282.243 353.184 282.429 353.173 282.632C353.162 282.824 353.152 283.011 353.141 283.192C353.13 283.363 353.12 283.501 353.109 283.608L357.701 276.424H359.429V285H358.117V279.944C358.117 279.773 358.117 279.549 358.117 279.272C358.128 278.995 358.138 278.723 358.149 278.456C358.16 278.179 358.17 277.971 358.181 277.832L353.621 285H351.877V276.424H353.205V281.656ZM371.038 276.424V285H369.774V279.528C369.774 279.304 369.779 279.069 369.79 278.824C369.811 278.579 369.833 278.339 369.854 278.104H369.806L367.006 285H365.822L363.102 278.104H363.054C363.075 278.339 363.086 278.579 363.086 278.824C363.097 279.069 363.102 279.32 363.102 279.576V285H361.838V276.424H363.71L366.414 283.32L369.166 276.424H371.038ZM101.608 305.424V314H100.2V306.624H95.768V314H94.36V305.424H101.608ZM111.48 309.696C111.48 310.411 111.384 311.045 111.192 311.6C111.011 312.144 110.744 312.608 110.392 312.992C110.051 313.376 109.63 313.669 109.128 313.872C108.638 314.064 108.088 314.16 107.48 314.16C106.915 314.16 106.392 314.064 105.912 313.872C105.432 313.669 105.016 313.376 104.664 312.992C104.312 312.608 104.035 312.144 103.832 311.6C103.64 311.045 103.544 310.411 103.544 309.696C103.544 308.747 103.704 307.947 104.024 307.296C104.344 306.635 104.803 306.133 105.4 305.792C105.998 305.44 106.707 305.264 107.528 305.264C108.307 305.264 108.99 305.44 109.576 305.792C110.174 306.133 110.638 306.635 110.968 307.296C111.31 307.947 111.48 308.747 111.48 309.696ZM105 309.696C105 310.368 105.086 310.955 105.256 311.456C105.438 311.947 105.715 312.325 106.088 312.592C106.462 312.859 106.936 312.992 107.512 312.992C108.088 312.992 108.563 312.859 108.936 312.592C109.31 312.325 109.582 311.947 109.752 311.456C109.934 310.955 110.024 310.368 110.024 309.696C110.024 309.013 109.934 308.432 109.752 307.952C109.571 307.472 109.294 307.104 108.92 306.848C108.558 306.581 108.083 306.448 107.496 306.448C106.622 306.448 105.987 306.736 105.592 307.312C105.198 307.888 105 308.683 105 309.696ZM118.464 305.424H120L116.336 309.552L120.304 314H118.672L114.8 309.648V314H113.392V305.424H114.8V309.584L118.464 305.424ZM124.789 305.28C125.834 305.28 126.607 305.509 127.109 305.968C127.61 306.427 127.861 307.157 127.861 308.16V314H126.837L126.565 312.784H126.501C126.255 313.093 125.999 313.355 125.733 313.568C125.477 313.771 125.178 313.92 124.837 314.016C124.506 314.112 124.101 314.16 123.621 314.16C123.109 314.16 122.645 314.069 122.229 313.888C121.823 313.707 121.503 313.429 121.269 313.056C121.034 312.672 120.917 312.192 120.917 311.616C120.917 310.763 121.253 310.107 121.925 309.648C122.597 309.179 123.631 308.923 125.029 308.88L126.485 308.832V308.32C126.485 307.605 126.33 307.109 126.021 306.832C125.711 306.555 125.274 306.416 124.709 306.416C124.261 306.416 123.834 306.485 123.429 306.624C123.023 306.752 122.645 306.901 122.293 307.072L121.861 306.016C122.234 305.813 122.677 305.643 123.189 305.504C123.701 305.355 124.234 305.28 124.789 305.28ZM125.205 309.856C124.138 309.899 123.397 310.069 122.981 310.368C122.575 310.667 122.373 311.088 122.373 311.632C122.373 312.112 122.517 312.464 122.805 312.688C123.103 312.912 123.482 313.024 123.941 313.024C124.666 313.024 125.269 312.827 125.749 312.432C126.229 312.027 126.469 311.408 126.469 310.576V309.808L125.205 309.856ZM132.445 305.264C133.096 305.264 133.661 305.355 134.141 305.536C134.621 305.707 134.995 305.963 135.261 306.304C135.528 306.635 135.661 307.04 135.661 307.52C135.661 308.043 135.517 308.459 135.229 308.768C134.941 309.067 134.547 309.285 134.045 309.424V309.488C134.387 309.584 134.701 309.717 134.989 309.888C135.277 310.059 135.507 310.283 135.677 310.56C135.859 310.837 135.949 311.195 135.949 311.632C135.949 312.101 135.816 312.528 135.549 312.912C135.293 313.296 134.893 313.6 134.349 313.824C133.816 314.048 133.128 314.16 132.285 314.16C131.88 314.16 131.491 314.139 131.117 314.096C130.755 314.053 130.424 313.989 130.125 313.904C129.837 313.819 129.581 313.717 129.357 313.6V312.336C129.72 312.507 130.147 312.661 130.637 312.8C131.139 312.939 131.683 313.008 132.269 313.008C132.696 313.008 133.08 312.96 133.421 312.864C133.773 312.768 134.051 312.619 134.253 312.416C134.456 312.203 134.557 311.915 134.557 311.552C134.557 311.221 134.467 310.955 134.285 310.752C134.104 310.539 133.832 310.379 133.469 310.272C133.117 310.165 132.664 310.112 132.109 310.112H130.957V308.96H131.885C132.621 308.96 133.208 308.864 133.645 308.672C134.093 308.469 134.317 308.128 134.317 307.648C134.317 307.243 134.147 306.939 133.805 306.736C133.475 306.533 132.995 306.432 132.365 306.432C131.896 306.432 131.48 306.48 131.117 306.576C130.765 306.661 130.376 306.795 129.949 306.976L129.453 305.856C129.912 305.653 130.392 305.504 130.893 305.408C131.395 305.312 131.912 305.264 132.445 305.264ZM140.961 305.28C142.006 305.28 142.78 305.509 143.281 305.968C143.782 306.427 144.033 307.157 144.033 308.16V314H143.009L142.737 312.784H142.673C142.428 313.093 142.172 313.355 141.905 313.568C141.649 313.771 141.35 313.92 141.009 314.016C140.678 314.112 140.273 314.16 139.793 314.16C139.281 314.16 138.817 314.069 138.401 313.888C137.996 313.707 137.676 313.429 137.441 313.056C137.206 312.672 137.089 312.192 137.089 311.616C137.089 310.763 137.425 310.107 138.097 309.648C138.769 309.179 139.804 308.923 141.201 308.88L142.657 308.832V308.32C142.657 307.605 142.502 307.109 142.193 306.832C141.884 306.555 141.446 306.416 140.881 306.416C140.433 306.416 140.006 306.485 139.601 306.624C139.196 306.752 138.817 306.901 138.465 307.072L138.033 306.016C138.406 305.813 138.849 305.643 139.361 305.504C139.873 305.355 140.406 305.28 140.961 305.28ZM141.377 309.856C140.31 309.899 139.569 310.069 139.153 310.368C138.748 310.667 138.545 311.088 138.545 311.632C138.545 312.112 138.689 312.464 138.977 312.688C139.276 312.912 139.654 313.024 140.113 313.024C140.838 313.024 141.441 312.827 141.921 312.432C142.401 312.027 142.641 311.408 142.641 310.576V309.808L141.377 309.856ZM152.282 306.608H149.482V314H148.09V306.608H145.322V305.424H152.282V306.608ZM156.807 305.264C157.543 305.264 158.172 305.424 158.695 305.744C159.228 306.064 159.634 306.517 159.911 307.104C160.199 307.68 160.343 308.357 160.343 309.136V309.984H154.471C154.492 310.955 154.738 311.696 155.207 312.208C155.687 312.709 156.354 312.96 157.207 312.96C157.751 312.96 158.231 312.912 158.647 312.816C159.074 312.709 159.511 312.56 159.959 312.368V313.6C159.522 313.792 159.09 313.931 158.663 314.016C158.236 314.112 157.73 314.16 157.143 314.16C156.332 314.16 155.612 313.995 154.983 313.664C154.364 313.333 153.879 312.843 153.527 312.192C153.186 311.531 153.015 310.725 153.015 309.776C153.015 308.837 153.17 308.032 153.479 307.36C153.799 306.688 154.242 306.171 154.807 305.808C155.383 305.445 156.05 305.264 156.807 305.264ZM156.791 306.416C156.119 306.416 155.586 306.635 155.191 307.072C154.807 307.499 154.578 308.096 154.503 308.864H158.871C158.871 308.373 158.796 307.947 158.647 307.584C158.498 307.221 158.268 306.939 157.959 306.736C157.66 306.523 157.271 306.416 156.791 306.416ZM168.734 314H167.31V306.592H164.782C164.676 307.947 164.542 309.104 164.382 310.064C164.222 311.013 164.02 311.787 163.774 312.384C163.529 312.981 163.236 313.419 162.894 313.696C162.553 313.973 162.153 314.112 161.694 314.112C161.556 314.112 161.417 314.101 161.278 314.08C161.15 314.069 161.044 314.043 160.958 314V312.944C161.022 312.965 161.092 312.981 161.166 312.992C161.241 313.003 161.316 313.008 161.39 313.008C161.625 313.008 161.838 312.912 162.03 312.72C162.222 312.528 162.393 312.235 162.542 311.84C162.702 311.445 162.846 310.949 162.974 310.352C163.102 309.744 163.214 309.029 163.31 308.208C163.406 307.387 163.492 306.459 163.566 305.424H168.734V314ZM171.664 314H170.032L172.48 310.4C172.15 310.315 171.83 310.181 171.52 310C171.211 309.808 170.96 309.547 170.768 309.216C170.576 308.875 170.48 308.453 170.48 307.952C170.48 307.131 170.758 306.507 171.312 306.08C171.867 305.643 172.603 305.424 173.52 305.424H177.36V314H175.952V310.592H173.872L171.664 314ZM171.84 307.968C171.84 308.459 172.022 308.827 172.384 309.072C172.758 309.307 173.275 309.424 173.936 309.424H175.952V306.592H173.664C173.014 306.592 172.544 306.72 172.256 306.976C171.979 307.232 171.84 307.563 171.84 307.968ZM188.954 305.424V314H187.69V308.528C187.69 308.304 187.695 308.069 187.706 307.824C187.727 307.579 187.748 307.339 187.77 307.104H187.722L184.922 314H183.738L181.018 307.104H180.97C180.991 307.339 181.002 307.579 181.002 307.824C181.012 308.069 181.018 308.32 181.018 308.576V314H179.754V305.424H181.626L184.33 312.32L187.082 305.424H188.954ZM196.645 310.656C196.645 310.752 196.64 310.891 196.629 311.072C196.629 311.243 196.624 311.429 196.613 311.632C196.602 311.824 196.592 312.011 196.581 312.192C196.57 312.363 196.56 312.501 196.549 312.608L201.141 305.424H202.869V314H201.557V308.944C201.557 308.773 201.557 308.549 201.557 308.272C201.568 307.995 201.578 307.723 201.589 307.456C201.6 307.179 201.61 306.971 201.621 306.832L197.061 314H195.317V305.424H196.645V310.656ZM212.664 314.16C211.906 314.16 211.229 314.005 210.632 313.696C210.045 313.387 209.581 312.907 209.24 312.256C208.909 311.605 208.744 310.773 208.744 309.76C208.744 308.704 208.92 307.845 209.272 307.184C209.624 306.523 210.098 306.037 210.696 305.728C211.304 305.419 211.992 305.264 212.76 305.264C213.197 305.264 213.618 305.312 214.024 305.408C214.429 305.493 214.76 305.6 215.016 305.728L214.584 306.896C214.328 306.8 214.029 306.709 213.688 306.624C213.346 306.539 213.026 306.496 212.728 306.496C212.152 306.496 211.677 306.619 211.304 306.864C210.93 307.109 210.653 307.472 210.472 307.952C210.29 308.432 210.2 309.029 210.2 309.744C210.2 310.427 210.29 311.008 210.472 311.488C210.653 311.968 210.925 312.331 211.288 312.576C211.65 312.821 212.104 312.944 212.648 312.944C213.117 312.944 213.528 312.896 213.88 312.8C214.242 312.704 214.573 312.587 214.872 312.448V313.696C214.584 313.845 214.264 313.957 213.912 314.032C213.57 314.117 213.154 314.16 212.664 314.16ZM224.047 309.696C224.047 310.411 223.951 311.045 223.759 311.6C223.578 312.144 223.311 312.608 222.959 312.992C222.618 313.376 222.197 313.669 221.695 313.872C221.205 314.064 220.655 314.16 220.047 314.16C219.482 314.16 218.959 314.064 218.479 313.872C217.999 313.669 217.583 313.376 217.231 312.992C216.879 312.608 216.602 312.144 216.399 311.6C216.207 311.045 216.111 310.411 216.111 309.696C216.111 308.747 216.271 307.947 216.591 307.296C216.911 306.635 217.37 306.133 217.967 305.792C218.565 305.44 219.274 305.264 220.095 305.264C220.874 305.264 221.557 305.44 222.143 305.792C222.741 306.133 223.205 306.635 223.535 307.296C223.877 307.947 224.047 308.747 224.047 309.696ZM217.567 309.696C217.567 310.368 217.653 310.955 217.823 311.456C218.005 311.947 218.282 312.325 218.655 312.592C219.029 312.859 219.503 312.992 220.079 312.992C220.655 312.992 221.13 312.859 221.503 312.592C221.877 312.325 222.149 311.947 222.319 311.456C222.501 310.955 222.591 310.368 222.591 309.696C222.591 309.013 222.501 308.432 222.319 307.952C222.138 307.472 221.861 307.104 221.487 306.848C221.125 306.581 220.65 306.448 220.063 306.448C219.189 306.448 218.554 306.736 218.159 307.312C217.765 307.888 217.567 308.683 217.567 309.696ZM229.399 314.16C228.641 314.16 227.964 314.005 227.367 313.696C226.78 313.387 226.316 312.907 225.975 312.256C225.644 311.605 225.479 310.773 225.479 309.76C225.479 308.704 225.655 307.845 226.007 307.184C226.359 306.523 226.833 306.037 227.431 305.728C228.039 305.419 228.727 305.264 229.495 305.264C229.932 305.264 230.353 305.312 230.759 305.408C231.164 305.493 231.495 305.6 231.751 305.728L231.319 306.896C231.063 306.8 230.764 306.709 230.423 306.624C230.081 306.539 229.761 306.496 229.463 306.496C228.887 306.496 228.412 306.619 228.039 306.864C227.665 307.109 227.388 307.472 227.207 307.952C227.025 308.432 226.935 309.029 226.935 309.744C226.935 310.427 227.025 311.008 227.207 311.488C227.388 311.968 227.66 312.331 228.023 312.576C228.385 312.821 228.839 312.944 229.383 312.944C229.852 312.944 230.263 312.896 230.615 312.8C230.977 312.704 231.308 312.587 231.607 312.448V313.696C231.319 313.845 230.999 313.957 230.647 314.032C230.305 314.117 229.889 314.16 229.399 314.16ZM239.246 306.608H236.446V314H235.054V306.608H232.286V305.424H239.246V306.608ZM243.864 305.28C244.909 305.28 245.682 305.509 246.184 305.968C246.685 306.427 246.936 307.157 246.936 308.16V314H245.912L245.64 312.784H245.576C245.33 313.093 245.074 313.355 244.808 313.568C244.552 313.771 244.253 313.92 243.912 314.016C243.581 314.112 243.176 314.16 242.696 314.16C242.184 314.16 241.72 314.069 241.304 313.888C240.898 313.707 240.578 313.429 240.344 313.056C240.109 312.672 239.992 312.192 239.992 311.616C239.992 310.763 240.328 310.107 241 309.648C241.672 309.179 242.706 308.923 244.104 308.88L245.56 308.832V308.32C245.56 307.605 245.405 307.109 245.096 306.832C244.786 306.555 244.349 306.416 243.784 306.416C243.336 306.416 242.909 306.485 242.504 306.624C242.098 306.752 241.72 306.901 241.368 307.072L240.936 306.016C241.309 305.813 241.752 305.643 242.264 305.504C242.776 305.355 243.309 305.28 243.864 305.28ZM244.28 309.856C243.213 309.899 242.472 310.069 242.056 310.368C241.65 310.667 241.448 311.088 241.448 311.632C241.448 312.112 241.592 312.464 241.88 312.688C242.178 312.912 242.557 313.024 243.016 313.024C243.741 313.024 244.344 312.827 244.824 312.432C245.304 312.027 245.544 311.408 245.544 310.576V309.808L244.28 309.856ZM256.16 307.584C256.16 308.117 256 308.533 255.68 308.832C255.36 309.131 254.95 309.333 254.448 309.44V309.504C254.982 309.579 255.446 309.771 255.84 310.08C256.235 310.379 256.432 310.848 256.432 311.488C256.432 311.851 256.363 312.187 256.224 312.496C256.096 312.805 255.894 313.072 255.616 313.296C255.339 313.52 254.982 313.696 254.544 313.824C254.107 313.941 253.579 314 252.96 314H249.264V305.424H252.944C253.552 305.424 254.096 305.493 254.576 305.632C255.067 305.76 255.451 305.984 255.728 306.304C256.016 306.613 256.16 307.04 256.16 307.584ZM254.976 311.488C254.976 310.997 254.79 310.645 254.416 310.432C254.043 310.219 253.494 310.112 252.768 310.112H250.672V312.864H252.8C253.504 312.864 254.043 312.763 254.416 312.56C254.79 312.347 254.976 311.989 254.976 311.488ZM254.736 307.76C254.736 307.355 254.587 307.061 254.288 306.88C254 306.688 253.526 306.592 252.864 306.592H250.672V308.944H252.608C253.302 308.944 253.83 308.848 254.192 308.656C254.555 308.464 254.736 308.165 254.736 307.76ZM264.691 314H263.267V306.592H260.739C260.632 307.947 260.499 309.104 260.339 310.064C260.179 311.013 259.976 311.787 259.731 312.384C259.486 312.981 259.192 313.419 258.851 313.696C258.51 313.973 258.11 314.112 257.651 314.112C257.512 314.112 257.374 314.101 257.235 314.08C257.107 314.069 257 314.043 256.915 314V312.944C256.979 312.965 257.048 312.981 257.123 312.992C257.198 313.003 257.272 313.008 257.347 313.008C257.582 313.008 257.795 312.912 257.987 312.72C258.179 312.528 258.35 312.235 258.499 311.84C258.659 311.445 258.803 310.949 258.931 310.352C259.059 309.744 259.171 309.029 259.267 308.208C259.363 307.387 259.448 306.459 259.523 305.424H264.691V314ZM267.621 314H265.989L268.437 310.4C268.106 310.315 267.786 310.181 267.477 310C267.168 309.808 266.917 309.547 266.725 309.216C266.533 308.875 266.437 308.453 266.437 307.952C266.437 307.131 266.714 306.507 267.269 306.08C267.824 305.643 268.56 305.424 269.477 305.424H273.317V314H271.909V310.592H269.829L267.621 314ZM267.797 307.968C267.797 308.459 267.978 308.827 268.341 309.072C268.714 309.307 269.232 309.424 269.893 309.424H271.909V306.592H269.621C268.97 306.592 268.501 306.72 268.213 306.976C267.936 307.232 267.797 307.563 267.797 307.968ZM279.023 305.264C279.759 305.264 280.388 305.424 280.911 305.744C281.444 306.064 281.849 306.517 282.127 307.104C282.415 307.68 282.559 308.357 282.559 309.136V309.984H276.687C276.708 310.955 276.953 311.696 277.423 312.208C277.903 312.709 278.569 312.96 279.423 312.96C279.967 312.96 280.447 312.912 280.863 312.816C281.289 312.709 281.727 312.56 282.175 312.368V313.6C281.737 313.792 281.305 313.931 280.879 314.016C280.452 314.112 279.945 314.16 279.359 314.16C278.548 314.16 277.828 313.995 277.199 313.664C276.58 313.333 276.095 312.843 275.743 312.192C275.401 311.531 275.231 310.725 275.231 309.776C275.231 308.837 275.385 308.032 275.695 307.36C276.015 306.688 276.457 306.171 277.023 305.808C277.599 305.445 278.265 305.264 279.023 305.264ZM279.007 306.416C278.335 306.416 277.801 306.635 277.407 307.072C277.023 307.499 276.793 308.096 276.719 308.864H281.087C281.087 308.373 281.012 307.947 280.863 307.584C280.713 307.221 280.484 306.939 280.175 306.736C279.876 306.523 279.487 306.416 279.007 306.416ZM290.342 306.608H287.542V314H286.15V306.608H283.382V305.424H290.342V306.608ZM294.995 314.16C294.238 314.16 293.56 314.005 292.963 313.696C292.376 313.387 291.912 312.907 291.571 312.256C291.24 311.605 291.075 310.773 291.075 309.76C291.075 308.704 291.251 307.845 291.603 307.184C291.955 306.523 292.43 306.037 293.027 305.728C293.635 305.419 294.323 305.264 295.091 305.264C295.528 305.264 295.95 305.312 296.355 305.408C296.76 305.493 297.091 305.6 297.347 305.728L296.915 306.896C296.659 306.8 296.36 306.709 296.019 306.624C295.678 306.539 295.358 306.496 295.059 306.496C294.483 306.496 294.008 306.619 293.635 306.864C293.262 307.109 292.984 307.472 292.803 307.952C292.622 308.432 292.531 309.029 292.531 309.744C292.531 310.427 292.622 311.008 292.803 311.488C292.984 311.968 293.256 312.331 293.619 312.576C293.982 312.821 294.435 312.944 294.979 312.944C295.448 312.944 295.859 312.896 296.211 312.8C296.574 312.704 296.904 312.587 297.203 312.448V313.696C296.915 313.845 296.595 313.957 296.243 314.032C295.902 314.117 295.486 314.16 294.995 314.16ZM299.451 314H297.819L300.267 310.4C299.936 310.315 299.616 310.181 299.307 310C298.997 309.808 298.747 309.547 298.555 309.216C298.363 308.875 298.267 308.453 298.267 307.952C298.267 307.131 298.544 306.507 299.099 306.08C299.653 305.643 300.389 305.424 301.307 305.424H305.147V314H303.739V310.592H301.659L299.451 314ZM299.627 307.968C299.627 308.459 299.808 308.827 300.171 309.072C300.544 309.307 301.061 309.424 301.723 309.424H303.739V306.592H301.451C300.8 306.592 300.331 306.72 300.043 306.976C299.765 307.232 299.627 307.563 299.627 307.968ZM318.382 307.584C318.382 308.117 318.222 308.533 317.902 308.832C317.582 309.131 317.171 309.333 316.67 309.44V309.504C317.203 309.579 317.667 309.771 318.062 310.08C318.456 310.379 318.654 310.848 318.654 311.488C318.654 311.851 318.584 312.187 318.446 312.496C318.318 312.805 318.115 313.072 317.838 313.296C317.56 313.52 317.203 313.696 316.766 313.824C316.328 313.941 315.8 314 315.182 314H311.486V305.424H315.166C315.774 305.424 316.318 305.493 316.798 305.632C317.288 305.76 317.672 305.984 317.95 306.304C318.238 306.613 318.382 307.04 318.382 307.584ZM317.198 311.488C317.198 310.997 317.011 310.645 316.638 310.432C316.264 310.219 315.715 310.112 314.99 310.112H312.894V312.864H315.022C315.726 312.864 316.264 312.763 316.638 312.56C317.011 312.347 317.198 311.989 317.198 311.488ZM316.958 307.76C316.958 307.355 316.808 307.061 316.51 306.88C316.222 306.688 315.747 306.592 315.086 306.592H312.894V308.944H314.83C315.523 308.944 316.051 308.848 316.414 308.656C316.776 308.464 316.958 308.165 316.958 307.76ZM323.632 305.28C324.678 305.28 325.451 305.509 325.952 305.968C326.454 306.427 326.704 307.157 326.704 308.16V314H325.68L325.408 312.784H325.344C325.099 313.093 324.843 313.355 324.576 313.568C324.32 313.771 324.022 313.92 323.68 314.016C323.35 314.112 322.944 314.16 322.464 314.16C321.952 314.16 321.488 314.069 321.072 313.888C320.667 313.707 320.347 313.429 320.112 313.056C319.878 312.672 319.76 312.192 319.76 311.616C319.76 310.763 320.096 310.107 320.768 309.648C321.44 309.179 322.475 308.923 323.872 308.88L325.328 308.832V308.32C325.328 307.605 325.174 307.109 324.864 306.832C324.555 306.555 324.118 306.416 323.552 306.416C323.104 306.416 322.678 306.485 322.272 306.624C321.867 306.752 321.488 306.901 321.136 307.072L320.704 306.016C321.078 305.813 321.52 305.643 322.032 305.504C322.544 305.355 323.078 305.28 323.632 305.28ZM324.048 309.856C322.982 309.899 322.24 310.069 321.824 310.368C321.419 310.667 321.216 311.088 321.216 311.632C321.216 312.112 321.36 312.464 321.648 312.688C321.947 312.912 322.326 313.024 322.784 313.024C323.51 313.024 324.112 312.827 324.592 312.432C325.072 312.027 325.312 311.408 325.312 310.576V309.808L324.048 309.856ZM340.665 305.424V314H329.033V305.424H330.441V312.816H334.137V305.424H335.545V312.816H339.257V305.424H340.665ZM101.608 334.424V343H100.2V335.624H95.768V343H94.36V334.424H101.608ZM110.552 343H109.128V335.592H106.6C106.494 336.947 106.36 338.104 106.2 339.064C106.04 340.013 105.838 340.787 105.592 341.384C105.347 341.981 105.054 342.419 104.712 342.696C104.371 342.973 103.971 343.112 103.512 343.112C103.374 343.112 103.235 343.101 103.096 343.08C102.968 343.069 102.862 343.043 102.776 343V341.944C102.84 341.965 102.91 341.981 102.984 341.992C103.059 342.003 103.134 342.008 103.208 342.008C103.443 342.008 103.656 341.912 103.848 341.72C104.04 341.528 104.211 341.235 104.36 340.84C104.52 340.445 104.664 339.949 104.792 339.352C104.92 338.744 105.032 338.029 105.128 337.208C105.224 336.387 105.31 335.459 105.384 334.424H110.552V343ZM116.202 334.28C117.248 334.28 118.021 334.509 118.522 334.968C119.024 335.427 119.274 336.157 119.274 337.16V343H118.25L117.978 341.784H117.914C117.669 342.093 117.413 342.355 117.146 342.568C116.89 342.771 116.592 342.92 116.25 343.016C115.92 343.112 115.514 343.16 115.034 343.16C114.522 343.16 114.058 343.069 113.642 342.888C113.237 342.707 112.917 342.429 112.682 342.056C112.448 341.672 112.33 341.192 112.33 340.616C112.33 339.763 112.666 339.107 113.338 338.648C114.01 338.179 115.045 337.923 116.442 337.88L117.898 337.832V337.32C117.898 336.605 117.744 336.109 117.434 335.832C117.125 335.555 116.688 335.416 116.122 335.416C115.674 335.416 115.248 335.485 114.842 335.624C114.437 335.752 114.058 335.901 113.706 336.072L113.274 335.016C113.648 334.813 114.09 334.643 114.602 334.504C115.114 334.355 115.648 334.28 116.202 334.28ZM116.618 338.856C115.552 338.899 114.81 339.069 114.394 339.368C113.989 339.667 113.786 340.088 113.786 340.632C113.786 341.112 113.93 341.464 114.218 341.688C114.517 341.912 114.896 342.024 115.354 342.024C116.08 342.024 116.682 341.827 117.162 341.432C117.642 341.027 117.882 340.408 117.882 339.576V338.808L116.618 338.856ZM123.011 334.424V337.992H127.667V334.424H129.075V343H127.667V339.176H123.011V343H121.603V334.424H123.011ZM142.664 334.424V343H141.256V335.624H136.824V343H135.416V334.424H142.664ZM146.409 339.656C146.409 339.752 146.403 339.891 146.393 340.072C146.393 340.243 146.387 340.429 146.377 340.632C146.366 340.824 146.355 341.011 146.345 341.192C146.334 341.363 146.323 341.501 146.313 341.608L150.905 334.424H152.633V343H151.321V337.944C151.321 337.773 151.321 337.549 151.321 337.272C151.331 336.995 151.342 336.723 151.353 336.456C151.363 336.179 151.374 335.971 151.385 335.832L146.825 343H145.081V334.424H146.409V339.656ZM160.962 335.608H158.162V343H156.77V335.608H154.002V334.424H160.962V335.608ZM165.579 334.28C166.625 334.28 167.398 334.509 167.899 334.968C168.401 335.427 168.651 336.157 168.651 337.16V343H167.627L167.355 341.784H167.291C167.046 342.093 166.79 342.355 166.523 342.568C166.267 342.771 165.969 342.92 165.627 343.016C165.297 343.112 164.891 343.16 164.411 343.16C163.899 343.16 163.435 343.069 163.019 342.888C162.614 342.707 162.294 342.429 162.059 342.056C161.825 341.672 161.707 341.192 161.707 340.616C161.707 339.763 162.043 339.107 162.715 338.648C163.387 338.179 164.422 337.923 165.819 337.88L167.275 337.832V337.32C167.275 336.605 167.121 336.109 166.811 335.832C166.502 335.555 166.065 335.416 165.499 335.416C165.051 335.416 164.625 335.485 164.219 335.624C163.814 335.752 163.435 335.901 163.083 336.072L162.651 335.016C163.025 334.813 163.467 334.643 163.979 334.504C164.491 334.355 165.025 334.28 165.579 334.28ZM165.995 338.856C164.929 338.899 164.187 339.069 163.771 339.368C163.366 339.667 163.163 340.088 163.163 340.632C163.163 341.112 163.307 341.464 163.595 341.688C163.894 341.912 164.273 342.024 164.731 342.024C165.457 342.024 166.059 341.827 166.539 341.432C167.019 341.027 167.259 340.408 167.259 339.576V338.808L165.995 338.856ZM172.388 334.424V337.992H177.044V334.424H178.452V343H177.044V339.176H172.388V343H170.98V334.424H172.388ZM182.176 339.656C182.176 339.752 182.17 339.891 182.16 340.072C182.16 340.243 182.154 340.429 182.144 340.632C182.133 340.824 182.122 341.011 182.112 341.192C182.101 341.363 182.09 341.501 182.08 341.608L186.672 334.424H188.4V343H187.088V337.944C187.088 337.773 187.088 337.549 187.088 337.272C187.098 336.995 187.109 336.723 187.12 336.456C187.13 336.179 187.141 335.971 187.152 335.832L182.592 343H180.848V334.424H182.176V339.656ZM191.337 343H189.705L192.153 339.4C191.822 339.315 191.502 339.181 191.193 339C190.883 338.808 190.633 338.547 190.441 338.216C190.249 337.875 190.153 337.453 190.153 336.952C190.153 336.131 190.43 335.507 190.985 335.08C191.539 334.643 192.275 334.424 193.193 334.424H197.033V343H195.625V339.592H193.545L191.337 343ZM191.513 336.968C191.513 337.459 191.694 337.827 192.057 338.072C192.43 338.307 192.947 338.424 193.609 338.424H195.625V335.592H193.337C192.686 335.592 192.217 335.72 191.929 335.976C191.651 336.232 191.513 336.563 191.513 336.968ZM204.78 334.424V337.992H209.436V334.424H210.844V343H209.436V339.176H204.78V343H203.372V334.424H204.78ZM216.487 334.28C217.533 334.28 218.306 334.509 218.807 334.968C219.309 335.427 219.559 336.157 219.559 337.16V343H218.535L218.263 341.784H218.199C217.954 342.093 217.698 342.355 217.431 342.568C217.175 342.771 216.877 342.92 216.535 343.016C216.205 343.112 215.799 343.16 215.319 343.16C214.807 343.16 214.343 343.069 213.927 342.888C213.522 342.707 213.202 342.429 212.967 342.056C212.733 341.672 212.615 341.192 212.615 340.616C212.615 339.763 212.951 339.107 213.623 338.648C214.295 338.179 215.33 337.923 216.727 337.88L218.183 337.832V337.32C218.183 336.605 218.029 336.109 217.719 335.832C217.41 335.555 216.973 335.416 216.407 335.416C215.959 335.416 215.533 335.485 215.127 335.624C214.722 335.752 214.343 335.901 213.991 336.072L213.559 335.016C213.933 334.813 214.375 334.643 214.887 334.504C215.399 334.355 215.933 334.28 216.487 334.28ZM216.903 338.856C215.837 338.899 215.095 339.069 214.679 339.368C214.274 339.667 214.071 340.088 214.071 340.632C214.071 341.112 214.215 341.464 214.503 341.688C214.802 341.912 215.181 342.024 215.639 342.024C216.365 342.024 216.967 341.827 217.447 341.432C217.927 341.027 218.167 340.408 218.167 339.576V338.808L216.903 338.856ZM225.114 340.424V339.32L230.73 331.544H232.474V339.16H234.074V340.424H232.474V343H231.034V340.424H225.114ZM231.098 333.064L226.794 339.16H231.098V333.064ZM246.77 334.424V343H245.362V335.624H240.93V343H239.522V334.424H246.77ZM253.266 334.264C254.322 334.264 255.17 334.632 255.81 335.368C256.461 336.104 256.786 337.213 256.786 338.696C256.786 339.667 256.637 340.488 256.338 341.16C256.05 341.821 255.64 342.323 255.106 342.664C254.584 342.995 253.965 343.16 253.25 343.16C252.813 343.16 252.424 343.101 252.082 342.984C251.741 342.867 251.448 342.717 251.202 342.536C250.968 342.344 250.765 342.136 250.594 341.912H250.498C250.52 342.093 250.541 342.323 250.562 342.6C250.584 342.877 250.594 343.117 250.594 343.32V346.84H249.186V334.424H250.338L250.53 335.592H250.594C250.765 335.347 250.968 335.123 251.202 334.92C251.448 334.717 251.736 334.557 252.066 334.44C252.408 334.323 252.808 334.264 253.266 334.264ZM253.01 335.448C252.434 335.448 251.97 335.56 251.618 335.784C251.266 335.997 251.01 336.323 250.85 336.76C250.69 337.197 250.605 337.752 250.594 338.424V338.696C250.594 339.4 250.669 339.997 250.818 340.488C250.968 340.979 251.218 341.352 251.57 341.608C251.933 341.864 252.424 341.992 253.042 341.992C253.565 341.992 253.992 341.848 254.322 341.56C254.664 341.272 254.914 340.883 255.074 340.392C255.245 339.891 255.33 339.32 255.33 338.68C255.33 337.699 255.138 336.915 254.754 336.328C254.381 335.741 253.8 335.448 253.01 335.448ZM260.038 339.656C260.038 339.752 260.033 339.891 260.022 340.072C260.022 340.243 260.017 340.429 260.006 340.632C259.995 340.824 259.985 341.011 259.974 341.192C259.963 341.363 259.953 341.501 259.942 341.608L264.534 334.424H266.262V343H264.95V337.944C264.95 337.773 264.95 337.549 264.95 337.272C264.961 336.995 264.971 336.723 264.982 336.456C264.993 336.179 265.003 335.971 265.014 335.832L260.454 343H258.71V334.424H260.038V339.656ZM271.983 334.264C272.719 334.264 273.349 334.424 273.871 334.744C274.405 335.064 274.81 335.517 275.087 336.104C275.375 336.68 275.519 337.357 275.519 338.136V338.984H269.647C269.669 339.955 269.914 340.696 270.383 341.208C270.863 341.709 271.53 341.96 272.383 341.96C272.927 341.96 273.407 341.912 273.823 341.816C274.25 341.709 274.687 341.56 275.135 341.368V342.6C274.698 342.792 274.266 342.931 273.839 343.016C273.413 343.112 272.906 343.16 272.319 343.16C271.509 343.16 270.789 342.995 270.159 342.664C269.541 342.333 269.055 341.843 268.703 341.192C268.362 340.531 268.191 339.725 268.191 338.776C268.191 337.837 268.346 337.032 268.655 336.36C268.975 335.688 269.418 335.171 269.983 334.808C270.559 334.445 271.226 334.264 271.983 334.264ZM271.967 335.416C271.295 335.416 270.762 335.635 270.367 336.072C269.983 336.499 269.754 337.096 269.679 337.864H274.047C274.047 337.373 273.973 336.947 273.823 336.584C273.674 336.221 273.445 335.939 273.135 335.736C272.837 335.523 272.447 335.416 271.967 335.416ZM269.615 332.104C269.615 331.827 269.69 331.629 269.839 331.512C269.989 331.384 270.165 331.32 270.367 331.32C270.57 331.32 270.746 331.384 270.895 331.512C271.045 331.629 271.119 331.827 271.119 332.104C271.119 332.371 271.045 332.573 270.895 332.712C270.746 332.84 270.57 332.904 270.367 332.904C270.165 332.904 269.989 332.84 269.839 332.712C269.69 332.573 269.615 332.371 269.615 332.104ZM272.623 332.104C272.623 331.827 272.693 331.629 272.831 331.512C272.981 331.384 273.157 331.32 273.359 331.32C273.562 331.32 273.738 331.384 273.887 331.512C274.037 331.629 274.111 331.827 274.111 332.104C274.111 332.371 274.037 332.573 273.887 332.712C273.738 332.84 273.562 332.904 273.359 332.904C273.157 332.904 272.981 332.84 272.831 332.712C272.693 332.573 272.623 332.371 272.623 332.104ZM286.583 334.424V343H285.319V337.528C285.319 337.304 285.324 337.069 285.335 336.824C285.356 336.579 285.377 336.339 285.399 336.104H285.351L282.551 343H281.367L278.647 336.104H278.599C278.62 336.339 278.631 336.579 278.631 336.824C278.641 337.069 278.647 337.32 278.647 337.576V343H277.383V334.424H279.255L281.959 341.32L284.711 334.424H286.583ZM292.248 334.28C293.293 334.28 294.067 334.509 294.568 334.968C295.069 335.427 295.32 336.157 295.32 337.16V343H294.296L294.024 341.784H293.96C293.715 342.093 293.459 342.355 293.192 342.568C292.936 342.771 292.637 342.92 292.296 343.016C291.965 343.112 291.56 343.16 291.08 343.16C290.568 343.16 290.104 343.069 289.688 342.888C289.283 342.707 288.963 342.429 288.728 342.056C288.493 341.672 288.376 341.192 288.376 340.616C288.376 339.763 288.712 339.107 289.384 338.648C290.056 338.179 291.091 337.923 292.488 337.88L293.944 337.832V337.32C293.944 336.605 293.789 336.109 293.48 335.832C293.171 335.555 292.733 335.416 292.168 335.416C291.72 335.416 291.293 335.485 290.888 335.624C290.483 335.752 290.104 335.901 289.752 336.072L289.32 335.016C289.693 334.813 290.136 334.643 290.648 334.504C291.16 334.355 291.693 334.28 292.248 334.28ZM292.664 338.856C291.597 338.899 290.856 339.069 290.44 339.368C290.035 339.667 289.832 340.088 289.832 340.632C289.832 341.112 289.976 341.464 290.264 341.688C290.563 341.912 290.941 342.024 291.4 342.024C292.125 342.024 292.728 341.827 293.208 341.432C293.688 341.027 293.928 340.408 293.928 339.576V338.808L292.664 338.856ZM308.842 334.424V343H307.434V335.624H303.002V343H301.594V334.424H308.842ZM312.587 339.656C312.587 339.752 312.581 339.891 312.571 340.072C312.571 340.243 312.565 340.429 312.555 340.632C312.544 340.824 312.533 341.011 312.523 341.192C312.512 341.363 312.501 341.501 312.491 341.608L317.083 334.424H318.811V343H317.499V337.944C317.499 337.773 317.499 337.549 317.499 337.272C317.509 336.995 317.52 336.723 317.531 336.456C317.541 336.179 317.552 335.971 317.563 335.832L313.003 343H311.259V334.424H312.587V339.656ZM332.836 334.424V341.832H334.084V345.96H332.676V343H321.22V334.424H322.628V341.816H326.324V334.424H327.732V341.816H331.444V334.424H332.836ZM336.728 339.656C336.728 339.752 336.723 339.891 336.712 340.072C336.712 340.243 336.707 340.429 336.696 340.632C336.685 340.824 336.675 341.011 336.664 341.192C336.653 341.363 336.643 341.501 336.632 341.608L341.224 334.424H342.952V343H341.64V337.944C341.64 337.773 341.64 337.549 341.64 337.272C341.651 336.995 341.661 336.723 341.672 336.456C341.683 336.179 341.693 335.971 341.704 335.832L337.144 343H335.4V334.424H336.728V339.656Z" fill="#575757"/>
<rect x="99" y="395" width="190" height="49" rx="24.5" fill="#FB9333"/>
<path d="M124.552 425V413.576H133.128V425H131.704V414.84H125.992V425H124.552ZM142.271 425H140.847V417.592H138.319C138.212 418.947 138.079 420.104 137.919 421.064C137.759 422.013 137.556 422.787 137.311 423.384C137.066 423.981 136.772 424.419 136.431 424.696C136.09 424.973 135.69 425.112 135.231 425.112C135.092 425.112 134.954 425.101 134.815 425.08C134.687 425.069 134.58 425.043 134.495 425V423.944C134.559 423.965 134.628 423.981 134.703 423.992C134.778 424.003 134.852 424.008 134.927 424.008C135.162 424.008 135.375 423.912 135.567 423.72C135.759 423.528 135.93 423.235 136.079 422.84C136.239 422.445 136.383 421.949 136.511 421.352C136.639 420.744 136.751 420.029 136.847 419.208C136.943 418.387 137.028 417.459 137.103 416.424H142.271V425ZM147.921 416.28C148.966 416.28 149.74 416.509 150.241 416.968C150.742 417.427 150.993 418.157 150.993 419.16V425H149.969L149.697 423.784H149.633C149.388 424.093 149.132 424.355 148.865 424.568C148.609 424.771 148.31 424.92 147.969 425.016C147.638 425.112 147.233 425.16 146.753 425.16C146.241 425.16 145.777 425.069 145.361 424.888C144.956 424.707 144.636 424.429 144.401 424.056C144.166 423.672 144.049 423.192 144.049 422.616C144.049 421.763 144.385 421.107 145.057 420.648C145.729 420.179 146.764 419.923 148.161 419.88L149.617 419.832V419.32C149.617 418.605 149.462 418.109 149.153 417.832C148.844 417.555 148.406 417.416 147.841 417.416C147.393 417.416 146.966 417.485 146.561 417.624C146.156 417.752 145.777 417.901 145.425 418.072L144.993 417.016C145.366 416.813 145.809 416.643 146.321 416.504C146.833 416.355 147.366 416.28 147.921 416.28ZM148.337 420.856C147.27 420.899 146.529 421.069 146.113 421.368C145.708 421.667 145.505 422.088 145.505 422.632C145.505 423.112 145.649 423.464 145.937 423.688C146.236 423.912 146.614 424.024 147.073 424.024C147.798 424.024 148.401 423.827 148.881 423.432C149.361 423.027 149.601 422.408 149.601 421.576V420.808L148.337 420.856ZM154.73 416.424V419.992H159.386V416.424H160.794V425H159.386V421.176H154.73V425H153.322V416.424H154.73ZM174.383 416.424V425H172.975V417.624H168.543V425H167.135V416.424H174.383ZM178.127 421.656C178.127 421.752 178.122 421.891 178.111 422.072C178.111 422.243 178.106 422.429 178.095 422.632C178.085 422.824 178.074 423.011 178.063 423.192C178.053 423.363 178.042 423.501 178.031 423.608L182.623 416.424H184.351V425H183.039V419.944C183.039 419.773 183.039 419.549 183.039 419.272C183.05 418.995 183.061 418.723 183.071 418.456C183.082 418.179 183.093 417.971 183.103 417.832L178.543 425H176.799V416.424H178.127V421.656ZM192.681 417.608H189.881V425H188.489V417.608H185.721V416.424H192.681V417.608ZM197.298 416.28C198.343 416.28 199.117 416.509 199.618 416.968C200.119 417.427 200.37 418.157 200.37 419.16V425H199.346L199.074 423.784H199.01C198.765 424.093 198.509 424.355 198.242 424.568C197.986 424.771 197.687 424.92 197.346 425.016C197.015 425.112 196.61 425.16 196.13 425.16C195.618 425.16 195.154 425.069 194.738 424.888C194.333 424.707 194.013 424.429 193.778 424.056C193.543 423.672 193.426 423.192 193.426 422.616C193.426 421.763 193.762 421.107 194.434 420.648C195.106 420.179 196.141 419.923 197.538 419.88L198.994 419.832V419.32C198.994 418.605 198.839 418.109 198.53 417.832C198.221 417.555 197.783 417.416 197.218 417.416C196.77 417.416 196.343 417.485 195.938 417.624C195.533 417.752 195.154 417.901 194.802 418.072L194.37 417.016C194.743 416.813 195.186 416.643 195.698 416.504C196.21 416.355 196.743 416.28 197.298 416.28ZM197.714 420.856C196.647 420.899 195.906 421.069 195.49 421.368C195.085 421.667 194.882 422.088 194.882 422.632C194.882 423.112 195.026 423.464 195.314 423.688C195.613 423.912 195.991 424.024 196.45 424.024C197.175 424.024 197.778 423.827 198.258 423.432C198.738 423.027 198.978 422.408 198.978 421.576V420.808L197.714 420.856ZM204.107 416.424V419.992H208.763V416.424H210.171V425H208.763V421.176H204.107V425H202.699V416.424H204.107ZM213.894 421.656C213.894 421.752 213.889 421.891 213.878 422.072C213.878 422.243 213.873 422.429 213.862 422.632C213.852 422.824 213.841 423.011 213.83 423.192C213.82 423.363 213.809 423.501 213.798 423.608L218.39 416.424H220.118V425H218.806V419.944C218.806 419.773 218.806 419.549 218.806 419.272C218.817 418.995 218.828 418.723 218.838 418.456C218.849 418.179 218.86 417.971 218.87 417.832L214.31 425H212.566V416.424H213.894V421.656ZM223.056 425H221.424L223.872 421.4C223.541 421.315 223.221 421.181 222.912 421C222.602 420.808 222.352 420.547 222.16 420.216C221.968 419.875 221.872 419.453 221.872 418.952C221.872 418.131 222.149 417.507 222.704 417.08C223.258 416.643 223.994 416.424 224.912 416.424H228.752V425H227.344V421.592H225.264L223.056 425ZM223.232 418.968C223.232 419.459 223.413 419.827 223.776 420.072C224.149 420.307 224.666 420.424 225.328 420.424H227.344V417.592H225.056C224.405 417.592 223.936 417.72 223.648 417.976C223.37 418.232 223.232 418.563 223.232 418.968Z" fill="white"/>
<path d="M260.75 419.226H245.75" stroke="white" stroke-width="1.5" stroke-linecap="round" stroke-linejoin="round"/>
<path d="M254.7 413.201L260.75 419.225L254.7 425.25" stroke="white" stroke-width="1.5" stroke-linecap="round" stroke-linejoin="round"/>
<rect width="2.35732" height="14.6153" transform="matrix(0.867996 0.496571 -0.30997 0.950746 166.304 68)" fill="white"/>
<rect x="166.304" y="68" width="9.20359" height="2.21666" fill="white"/>
<path d="M142.53 97.95C142.53 92.4271 147.007 87.95 152.53 87.95H160.978C166.501 87.95 170.978 92.4271 170.978 97.95V119.525C170.978 122.286 168.739 124.525 165.978 124.525H147.53C144.769 124.525 142.53 122.286 142.53 119.525V97.95Z" fill="#FFAC37"/>
<path d="M170.978 96.2624C153.224 96.2624 167.804 96.2624 157.407 96.2624C147.01 96.2624 168.468 96.2624 142.53 96.2624C142.53 89.5292 147.01 80.1917 157.407 80.1917C167.804 80.1917 170.978 89.5292 170.978 96.2624Z" fill="#FFDF40"/>
<rect width="7.75113" height="29.4128" transform="matrix(0.932393 -0.361446 0.215719 0.976456 135 98.5099)" fill="#FFE8C8"/>
<rect width="7.70178" height="29.5293" transform="matrix(0.9474 0.320053 -0.18905 0.981967 170.703 97.9249)" fill="#FFE8C8"/>
<rect x="139" y="96" width="35" height="7" rx="3.5" fill="white"/>
<defs>
<filter id="filter0_d_45_15" x="0" y="0" width="470" height="583" filterUnits="userSpaceOnUse" color-interpolation-filters="sRGB">
<feFlood flood-opacity="0" result="BackgroundImageFix"/>
<feColorMatrix in="SourceAlpha" type="matrix" values="0 0 0 0 0 0 0 0 0 0 0 0 0 0 0 0 0 0 127 0" result="hardAlpha"/>
<feMorphology radius="30" operator="erode" in="SourceAlpha" result="effect1_dropShadow_45_15"/>
<feOffset dy="50"/>
<feGaussianBlur stdDeviation="40"/>
<feColorMatrix type="matrix" values="0 0 0 0 0.591667 0 0 0 0 0.426 0 0 0 0 0 0 0 0 0.2 0"/>
<feBlend mode="normal" in2="BackgroundImageFix" result="effect1_dropShadow_45_15"/>
<feBlend mode="normal" in="SourceGraphic" in2="effect1_dropShadow_45_15" result="shape"/>
</filter>
</defs>
</svg>
