<svg width="246" height="145" viewBox="0 0 246 145" fill="none" xmlns="http://www.w3.org/2000/svg">
<path d="M49.552 136.421H46.144V139.877H44.784V136.421H41.392V135.189H44.784V131.717H46.144V135.189H49.552V136.421ZM59.0339 131.221L54.5859 141.653H53.1139L57.6259 131.365H51.4499V130.117H59.0339V131.221ZM68.8979 144.629C67.8739 143.626 67.0739 142.351 66.4979 140.805C65.9325 139.258 65.6499 137.589 65.6499 135.797C65.6499 133.962 65.9485 132.25 66.5459 130.661C67.1539 129.061 68.0179 127.743 69.1379 126.709H70.6579V126.853C69.4632 127.973 68.5619 129.322 67.9539 130.901C67.3565 132.469 67.0579 134.101 67.0579 135.797C67.0579 137.45 67.3405 139.029 67.9059 140.533C68.4819 142.037 69.3192 143.354 70.4179 144.485V144.629H68.8979ZM74.0515 138.549C74.1582 139.157 74.4035 139.626 74.7875 139.957C75.1822 140.287 75.7102 140.453 76.3715 140.453C77.2568 140.453 77.9075 140.106 78.3235 139.413C78.7502 138.719 78.9528 137.551 78.9315 135.909C78.7075 136.389 78.3342 136.767 77.8115 137.045C77.2888 137.311 76.7075 137.445 76.0675 137.445C75.3528 137.445 74.7128 137.301 74.1475 137.013C73.5928 136.714 73.1555 136.282 72.8355 135.717C72.5155 135.151 72.3555 134.469 72.3555 133.669C72.3555 132.527 72.6862 131.61 73.3475 130.917C74.0088 130.213 74.9475 129.861 76.1635 129.861C77.6568 129.861 78.7022 130.346 79.2995 131.317C79.9075 132.287 80.2115 133.733 80.2115 135.653C80.2115 136.997 80.0888 138.106 79.8435 138.981C79.6088 139.855 79.2035 140.522 78.6275 140.981C78.0622 141.439 77.2835 141.669 76.2915 141.669C75.2035 141.669 74.3555 141.375 73.7475 140.789C73.1395 140.202 72.7928 139.455 72.7075 138.549H74.0515ZM76.3075 136.213C77.0222 136.213 77.6088 135.994 78.0675 135.557C78.5262 135.109 78.7555 134.506 78.7555 133.749C78.7555 132.949 78.5315 132.303 78.0835 131.813C77.6355 131.322 77.0062 131.077 76.1955 131.077C75.4488 131.077 74.8515 131.311 74.4035 131.781C73.9662 132.25 73.7475 132.869 73.7475 133.637C73.7475 134.415 73.9662 135.039 74.4035 135.509C74.8408 135.978 75.4755 136.213 76.3075 136.213ZM89.6336 131.349H84.0176V134.997C84.263 134.655 84.6256 134.378 85.1056 134.165C85.5856 133.941 86.103 133.829 86.6576 133.829C87.543 133.829 88.263 134.015 88.8176 134.389C89.3723 134.751 89.767 135.226 90.0016 135.813C90.247 136.389 90.3696 137.002 90.3696 137.653C90.3696 138.421 90.2256 139.109 89.9376 139.717C89.6496 140.325 89.207 140.805 88.6096 141.157C88.023 141.509 87.2923 141.685 86.4176 141.685C85.2976 141.685 84.391 141.397 83.6976 140.821C83.0043 140.245 82.583 139.477 82.4336 138.517H83.8576C83.9963 139.125 84.2896 139.599 84.7376 139.941C85.1856 140.282 85.751 140.453 86.4336 140.453C87.2763 140.453 87.911 140.202 88.3376 139.701C88.7643 139.189 88.9776 138.517 88.9776 137.685C88.9776 136.853 88.7643 136.213 88.3376 135.765C87.911 135.306 87.2816 135.077 86.4496 135.077C85.8843 135.077 85.3883 135.215 84.9616 135.493C84.5456 135.759 84.2416 136.127 84.0496 136.597H82.6736V130.069H89.6336V131.349ZM92.3045 135.749C92.3045 133.914 92.6032 132.485 93.2005 131.461C93.7978 130.426 94.8432 129.909 96.3365 129.909C97.8192 129.909 98.8592 130.426 99.4565 131.461C100.054 132.485 100.352 133.914 100.352 135.749C100.352 137.615 100.054 139.066 99.4565 140.101C98.8592 141.135 97.8192 141.653 96.3365 141.653C94.8432 141.653 93.7978 141.135 93.2005 140.101C92.6032 139.066 92.3045 137.615 92.3045 135.749ZM98.9125 135.749C98.9125 134.821 98.8485 134.037 98.7205 133.397C98.6032 132.746 98.3525 132.223 97.9685 131.829C97.5952 131.434 97.0512 131.237 96.3365 131.237C95.6112 131.237 95.0565 131.434 94.6725 131.829C94.2992 132.223 94.0485 132.746 93.9205 133.397C93.8032 134.037 93.7445 134.821 93.7445 135.749C93.7445 136.709 93.8032 137.514 93.9205 138.165C94.0485 138.815 94.2992 139.338 94.6725 139.733C95.0565 140.127 95.6112 140.325 96.3365 140.325C97.0512 140.325 97.5952 140.127 97.9685 139.733C98.3525 139.338 98.6032 138.815 98.7205 138.165C98.8485 137.514 98.9125 136.709 98.9125 135.749ZM102.127 144.629V144.485C103.226 143.354 104.058 142.037 104.623 140.533C105.199 139.029 105.487 137.45 105.487 135.797C105.487 134.101 105.183 132.469 104.575 130.901C103.978 129.322 103.082 127.973 101.887 126.853V126.709H103.407C104.527 127.743 105.386 129.061 105.983 130.661C106.591 132.25 106.895 133.962 106.895 135.797C106.895 137.589 106.607 139.258 106.031 140.805C105.466 142.351 104.671 143.626 103.647 144.629H102.127ZM115.937 135.173V136.405H109.553V135.173H115.937ZM118.078 139.077V137.973L123.694 130.197H125.438V137.813H127.038V139.077H125.438V141.653H123.998V139.077H118.078ZM124.062 131.717L119.758 137.813H124.062V131.717ZM135.612 131.221L131.164 141.653H129.692L134.204 131.365H128.028V130.117H135.612V131.221ZM136.874 139.077V137.973L142.49 130.197H144.234V137.813H145.834V139.077H144.234V141.653H142.794V139.077H136.874ZM142.858 131.717L138.554 137.813H142.858V131.717ZM153.609 135.173V136.405H147.225V135.173H153.609ZM156.101 135.749C156.101 133.914 156.4 132.485 156.997 131.461C157.595 130.426 158.64 129.909 160.133 129.909C161.616 129.909 162.656 130.426 163.253 131.461C163.851 132.485 164.149 133.914 164.149 135.749C164.149 137.615 163.851 139.066 163.253 140.101C162.656 141.135 161.616 141.653 160.133 141.653C158.64 141.653 157.595 141.135 156.997 140.101C156.4 139.066 156.101 137.615 156.101 135.749ZM162.709 135.749C162.709 134.821 162.645 134.037 162.517 133.397C162.4 132.746 162.149 132.223 161.765 131.829C161.392 131.434 160.848 131.237 160.133 131.237C159.408 131.237 158.853 131.434 158.469 131.829C158.096 132.223 157.845 132.746 157.717 133.397C157.6 134.037 157.541 134.821 157.541 135.749C157.541 136.709 157.6 137.514 157.717 138.165C157.845 138.815 158.096 139.338 158.469 139.733C158.853 140.127 159.408 140.325 160.133 140.325C160.848 140.325 161.392 140.127 161.765 139.733C162.149 139.338 162.4 138.815 162.517 138.165C162.645 137.514 162.709 136.709 162.709 135.749ZM173.268 131.221L168.82 141.653H167.348L171.86 131.365H165.684V130.117H173.268V131.221ZM181.203 135.173V136.405H174.819V135.173H181.203ZM185.567 138.549C185.674 139.157 185.919 139.626 186.303 139.957C186.698 140.287 187.226 140.453 187.887 140.453C188.772 140.453 189.423 140.106 189.839 139.413C190.266 138.719 190.468 137.551 190.447 135.909C190.223 136.389 189.85 136.767 189.327 137.045C188.804 137.311 188.223 137.445 187.583 137.445C186.868 137.445 186.228 137.301 185.663 137.013C185.108 136.714 184.671 136.282 184.351 135.717C184.031 135.151 183.871 134.469 183.871 133.669C183.871 132.527 184.202 131.61 184.863 130.917C185.524 130.213 186.463 129.861 187.679 129.861C189.172 129.861 190.218 130.346 190.815 131.317C191.423 132.287 191.727 133.733 191.727 135.653C191.727 136.997 191.604 138.106 191.359 138.981C191.124 139.855 190.719 140.522 190.143 140.981C189.578 141.439 188.799 141.669 187.807 141.669C186.719 141.669 185.871 141.375 185.263 140.789C184.655 140.202 184.308 139.455 184.223 138.549H185.567ZM187.823 136.213C188.538 136.213 189.124 135.994 189.583 135.557C190.042 135.109 190.271 134.506 190.271 133.749C190.271 132.949 190.047 132.303 189.599 131.813C189.151 131.322 188.522 131.077 187.711 131.077C186.964 131.077 186.367 131.311 185.919 131.781C185.482 132.25 185.263 132.869 185.263 133.637C185.263 134.415 185.482 135.039 185.919 135.509C186.356 135.978 186.991 136.213 187.823 136.213ZM193.389 131.413V130.085H196.397V141.653H194.925V131.413H193.389Z" fill="#575757"/>
<path fill-rule="evenodd" clip-rule="evenodd" d="M6.54 127.211C6.6 128.002 6.75 128.776 6.99 129.514L5.79 130.582C5.38 129.514 5.12 128.385 5.03 127.211H6.54ZM16.4 137.902C17.25 138.116 18.12 138.249 19 138.302V139.628C17.68 139.548 16.41 139.316 15.2 138.961L16.4 137.902ZM7.5 125.432H4C3.45 125.432 3 125.832 3 126.321C3 134.673 10.61 141.442 20 141.442C20.55 141.442 21 141.042 21 140.553V137.448C21 136.959 20.55 136.559 20 136.559C18.76 136.559 17.55 136.381 16.43 136.052C16.33 136.016 16.22 136.007 16.12 136.007C15.86 136.007 15.61 136.096 15.41 136.265L13.21 138.222C10.38 136.933 8.06 134.878 6.62 132.361L8.82 130.404C9.1 130.155 9.18 129.808 9.07 129.497C8.7 128.5 8.5 127.433 8.5 126.321C8.5 125.832 8.05 125.432 7.5 125.432Z" fill="#FB9333"/>
<path d="M42.32 97.758H46.624V98.958H40.656V97.758L44.912 91.374H40.688V90.19H46.592V91.374L42.32 97.758ZM51.7773 97.614L54.4973 90.19H56.0493L52.6093 98.958H50.9133L47.4733 90.19H49.0413L51.7773 97.614ZM68.026 90.03C68.7087 90.03 69.3167 90.174 69.85 90.462C70.3833 90.7393 70.8047 91.1607 71.114 91.726C71.4233 92.2913 71.578 92.9793 71.578 93.79V98.958H70.138V93.998C70.138 93.1233 69.9193 92.4567 69.482 91.998C69.0553 91.5287 68.474 91.294 67.738 91.294C66.9807 91.294 66.378 91.5393 65.93 92.03C65.482 92.51 65.258 93.2087 65.258 94.126V98.958H63.818V93.998C63.818 93.1233 63.5993 92.4567 63.162 91.998C62.7353 91.5287 62.154 91.294 61.418 91.294C60.6607 91.294 60.058 91.5393 59.61 92.03C59.162 92.51 58.938 93.2087 58.938 94.126V98.958H57.482V90.19H58.938V91.454C59.226 90.9953 59.61 90.6433 60.09 90.398C60.5807 90.1527 61.1193 90.03 61.706 90.03C62.442 90.03 63.0927 90.1953 63.658 90.526C64.2233 90.8567 64.6447 91.342 64.922 91.982C65.1673 91.3633 65.5727 90.8833 66.138 90.542C66.7033 90.2007 67.3327 90.03 68.026 90.03ZM77.7904 99.102C76.969 99.102 76.2224 98.9153 75.5504 98.542C74.889 98.1687 74.3664 97.6407 73.9824 96.958C73.609 96.2647 73.4224 95.4647 73.4224 94.558C73.4224 93.662 73.6144 92.8727 73.9984 92.19C74.393 91.4967 74.9264 90.9687 75.5984 90.606C76.2704 90.2327 77.0224 90.046 77.8544 90.046C78.6864 90.046 79.4384 90.2327 80.1104 90.606C80.7824 90.9687 81.3104 91.4913 81.6944 92.174C82.089 92.8567 82.2864 93.6513 82.2864 94.558C82.2864 95.4647 82.0837 96.2647 81.6784 96.958C81.2837 97.6407 80.745 98.1687 80.0624 98.542C79.3797 98.9153 78.6224 99.102 77.7904 99.102ZM77.7904 97.822C78.313 97.822 78.8037 97.6993 79.2624 97.454C79.721 97.2087 80.089 96.8407 80.3664 96.35C80.6544 95.8593 80.7984 95.262 80.7984 94.558C80.7984 93.854 80.6597 93.2567 80.3824 92.766C80.105 92.2753 79.7424 91.9127 79.2944 91.678C78.8464 91.4327 78.361 91.31 77.8384 91.31C77.305 91.31 76.8144 91.4327 76.3664 91.678C75.929 91.9127 75.577 92.2753 75.3104 92.766C75.0437 93.2567 74.9104 93.854 74.9104 94.558C74.9104 95.2727 75.0384 95.8753 75.2944 96.366C75.561 96.8567 75.913 97.2247 76.3504 97.47C76.7877 97.7047 77.2677 97.822 77.7904 97.822ZM85.6568 87.118V98.958H84.2008V87.118H85.6568ZM87.5943 94.558C87.5943 93.6513 87.7756 92.862 88.1383 92.19C88.5009 91.5073 89.0023 90.9793 89.6423 90.606C90.2929 90.2327 91.0343 90.046 91.8663 90.046C92.9436 90.046 93.8289 90.3073 94.5223 90.83C95.2263 91.3527 95.6903 92.078 95.9143 93.006H94.3463C94.1969 92.4727 93.9036 92.0513 93.4663 91.742C93.0396 91.4327 92.5063 91.278 91.8663 91.278C91.0343 91.278 90.3623 91.566 89.8503 92.142C89.3383 92.7073 89.0823 93.5127 89.0823 94.558C89.0823 95.614 89.3383 96.43 89.8503 97.006C90.3623 97.582 91.0343 97.87 91.8663 97.87C92.5063 97.87 93.0396 97.7207 93.4663 97.422C93.8929 97.1233 94.1863 96.6967 94.3463 96.142H95.9143C95.6796 97.038 95.2103 97.758 94.5063 98.302C93.8023 98.8353 92.9223 99.102 91.8663 99.102C91.0343 99.102 90.2929 98.9153 89.6423 98.542C89.0023 98.1687 88.5009 97.6407 88.1383 96.958C87.7756 96.2753 87.5943 95.4753 87.5943 94.558ZM102.209 90.03C102.87 90.03 103.468 90.174 104.001 90.462C104.534 90.7393 104.95 91.1607 105.249 91.726C105.558 92.2913 105.713 92.9793 105.713 93.79V98.958H104.273V93.998C104.273 93.1233 104.054 92.4567 103.617 91.998C103.18 91.5287 102.582 91.294 101.825 91.294C101.057 91.294 100.444 91.534 99.985 92.014C99.537 92.494 99.313 93.1927 99.313 94.11V98.958H97.857V87.118H99.313V91.438C99.601 90.99 99.9957 90.6433 100.497 90.398C101.009 90.1527 101.58 90.03 102.209 90.03ZM107.547 94.542C107.547 93.646 107.729 92.862 108.091 92.19C108.454 91.5073 108.95 90.9793 109.579 90.606C110.219 90.2327 110.929 90.046 111.707 90.046C112.475 90.046 113.142 90.2113 113.707 90.542C114.273 90.8727 114.694 91.2887 114.971 91.79V90.19H116.443V98.958H114.971V97.326C114.683 97.838 114.251 98.2647 113.675 98.606C113.11 98.9367 112.449 99.102 111.691 99.102C110.913 99.102 110.209 98.91 109.579 98.526C108.95 98.142 108.454 97.6033 108.091 96.91C107.729 96.2167 107.547 95.4273 107.547 94.542ZM114.971 94.558C114.971 93.8967 114.838 93.3207 114.571 92.83C114.305 92.3393 113.942 91.966 113.483 91.71C113.035 91.4433 112.539 91.31 111.995 91.31C111.451 91.31 110.955 91.438 110.507 91.694C110.059 91.95 109.702 92.3233 109.435 92.814C109.169 93.3047 109.035 93.8807 109.035 94.542C109.035 95.214 109.169 95.8007 109.435 96.302C109.702 96.7927 110.059 97.1713 110.507 97.438C110.955 97.694 111.451 97.822 111.995 97.822C112.539 97.822 113.035 97.694 113.483 97.438C113.942 97.1713 114.305 96.7927 114.571 96.302C114.838 95.8007 114.971 95.2193 114.971 94.558ZM123.176 90.03C124.243 90.03 125.107 90.3553 125.768 91.006C126.429 91.646 126.76 92.574 126.76 93.79V98.958H125.32V93.998C125.32 93.1233 125.101 92.4567 124.664 91.998C124.227 91.5287 123.629 91.294 122.872 91.294C122.104 91.294 121.491 91.534 121.032 92.014C120.584 92.494 120.36 93.1927 120.36 94.11V98.958H118.904V90.19H120.36V91.438C120.648 90.99 121.037 90.6433 121.528 90.398C122.029 90.1527 122.579 90.03 123.176 90.03ZM132.962 99.102C132.141 99.102 131.394 98.9153 130.722 98.542C130.061 98.1687 129.538 97.6407 129.154 96.958C128.781 96.2647 128.594 95.4647 128.594 94.558C128.594 93.662 128.786 92.8727 129.17 92.19C129.565 91.4967 130.098 90.9687 130.77 90.606C131.442 90.2327 132.194 90.046 133.026 90.046C133.858 90.046 134.61 90.2327 135.282 90.606C135.954 90.9687 136.482 91.4913 136.866 92.174C137.261 92.8567 137.458 93.6513 137.458 94.558C137.458 95.4647 137.256 96.2647 136.85 96.958C136.456 97.6407 135.917 98.1687 135.234 98.542C134.552 98.9153 133.794 99.102 132.962 99.102ZM132.962 97.822C133.485 97.822 133.976 97.6993 134.434 97.454C134.893 97.2087 135.261 96.8407 135.538 96.35C135.826 95.8593 135.97 95.262 135.97 94.558C135.97 93.854 135.832 93.2567 135.554 92.766C135.277 92.2753 134.914 91.9127 134.466 91.678C134.018 91.4327 133.533 91.31 133.01 91.31C132.477 91.31 131.986 91.4327 131.538 91.678C131.101 91.9127 130.749 92.2753 130.482 92.766C130.216 93.2567 130.082 93.854 130.082 94.558C130.082 95.2727 130.21 95.8753 130.466 96.366C130.733 96.8567 131.085 97.2247 131.522 97.47C131.96 97.7047 132.44 97.822 132.962 97.822ZM142.637 97.614L145.357 90.19H146.909L143.469 98.958H141.773L138.333 90.19H139.901L142.637 97.614ZM156.341 88.702C157.525 88.702 158.555 88.926 159.429 89.374C160.304 89.822 160.976 90.4513 161.445 91.262C161.915 92.062 162.149 92.99 162.149 94.046C162.149 94.8887 162.011 95.6993 161.733 96.478C161.456 97.246 161.051 97.87 160.517 98.35C159.995 98.83 159.381 99.07 158.677 99.07C158.144 99.07 157.733 98.9367 157.445 98.67C157.157 98.4033 156.992 98.0407 156.949 97.582C156.619 98.0407 156.197 98.4033 155.685 98.67C155.184 98.9367 154.651 99.07 154.085 99.07C153.275 99.07 152.635 98.8247 152.165 98.334C151.707 97.8327 151.477 97.1607 151.477 96.318C151.477 95.518 151.643 94.7713 151.973 94.078C152.315 93.3847 152.784 92.83 153.381 92.414C153.979 91.9873 154.656 91.774 155.413 91.774C156.427 91.774 157.109 92.158 157.461 92.926L157.637 91.934H158.901L158.101 96.558C158.069 96.7607 158.053 96.9473 158.053 97.118C158.053 97.758 158.336 98.078 158.901 98.078C159.328 98.078 159.696 97.8753 160.005 97.47C160.325 97.0647 160.565 96.558 160.725 95.95C160.885 95.3313 160.965 94.7233 160.965 94.126C160.965 92.7287 160.544 91.646 159.701 90.878C158.869 90.11 157.691 89.726 156.165 89.726C154.896 89.726 153.749 90.0353 152.725 90.654C151.712 91.262 150.917 92.0993 150.341 93.166C149.765 94.2327 149.477 95.4113 149.477 96.702C149.467 98.11 149.888 99.1927 150.741 99.95C151.595 100.718 152.779 101.102 154.293 101.102C155.296 101.102 156.181 100.921 156.949 100.558L157.141 101.55C156.192 101.945 155.147 102.142 154.005 102.142C152.864 102.142 151.856 101.923 150.981 101.486C150.117 101.059 149.445 100.441 148.965 99.63C148.496 98.83 148.261 97.8967 148.261 96.83C148.261 95.326 148.608 93.9553 149.301 92.718C149.995 91.47 150.955 90.4887 152.181 89.774C153.419 89.0593 154.805 88.702 156.341 88.702ZM154.517 97.934C154.997 97.934 155.44 97.7953 155.845 97.518C156.251 97.23 156.571 96.846 156.805 96.366C157.04 95.8753 157.157 95.342 157.157 94.766C157.157 94.2113 157.003 93.7633 156.693 93.422C156.395 93.07 155.968 92.894 155.413 92.894C154.901 92.894 154.448 93.0487 154.053 93.358C153.669 93.6567 153.371 94.0567 153.157 94.558C152.944 95.0487 152.837 95.5607 152.837 96.094C152.837 96.6593 152.981 97.1073 153.269 97.438C153.557 97.7687 153.973 97.934 154.517 97.934ZM172.545 94.238C172.545 94.5153 172.529 94.8087 172.497 95.118H165.489C165.542 95.982 165.835 96.6593 166.369 97.15C166.913 97.63 167.569 97.87 168.337 97.87C168.966 97.87 169.489 97.726 169.905 97.438C170.331 97.1393 170.63 96.7447 170.801 96.254H172.369C172.134 97.0967 171.665 97.7847 170.961 98.318C170.257 98.8407 169.382 99.102 168.337 99.102C167.505 99.102 166.758 98.9153 166.097 98.542C165.446 98.1687 164.934 97.6407 164.561 96.958C164.187 96.2647 164.001 95.4647 164.001 94.558C164.001 93.6513 164.182 92.8567 164.545 92.174C164.907 91.4913 165.414 90.9687 166.065 90.606C166.726 90.2327 167.483 90.046 168.337 90.046C169.169 90.046 169.905 90.2273 170.545 90.59C171.185 90.9527 171.675 91.454 172.017 92.094C172.369 92.7233 172.545 93.438 172.545 94.238ZM171.041 93.934C171.041 93.3793 170.918 92.9047 170.673 92.51C170.427 92.1047 170.091 91.8007 169.665 91.598C169.249 91.3847 168.785 91.278 168.273 91.278C167.537 91.278 166.907 91.5127 166.385 91.982C165.873 92.4513 165.579 93.102 165.505 93.934H171.041ZM173.922 94.542C173.922 93.646 174.104 92.862 174.466 92.19C174.829 91.5073 175.325 90.9793 175.954 90.606C176.594 90.2327 177.309 90.046 178.098 90.046C178.781 90.046 179.416 90.206 180.002 90.526C180.589 90.8353 181.037 91.246 181.346 91.758V87.118H182.818V98.958H181.346V97.31C181.058 97.8327 180.632 98.2647 180.066 98.606C179.501 98.9367 178.84 99.102 178.082 99.102C177.304 99.102 176.594 98.91 175.954 98.526C175.325 98.142 174.829 97.6033 174.466 96.91C174.104 96.2167 173.922 95.4273 173.922 94.542ZM181.346 94.558C181.346 93.8967 181.213 93.3207 180.946 92.83C180.68 92.3393 180.317 91.966 179.858 91.71C179.41 91.4433 178.914 91.31 178.37 91.31C177.826 91.31 177.33 91.438 176.882 91.694C176.434 91.95 176.077 92.3233 175.81 92.814C175.544 93.3047 175.41 93.8807 175.41 94.542C175.41 95.214 175.544 95.8007 175.81 96.302C176.077 96.7927 176.434 97.1713 176.882 97.438C177.33 97.694 177.826 97.822 178.37 97.822C178.914 97.822 179.41 97.694 179.858 97.438C180.317 97.1713 180.68 96.7927 180.946 96.302C181.213 95.8007 181.346 95.2193 181.346 94.558ZM193.055 90.19V98.958H191.599V97.662C191.322 98.11 190.932 98.462 190.431 98.718C189.94 98.9633 189.396 99.086 188.799 99.086C188.116 99.086 187.503 98.9473 186.959 98.67C186.415 98.382 185.983 97.9553 185.663 97.39C185.354 96.8247 185.199 96.1367 185.199 95.326V90.19H186.639V95.134C186.639 95.998 186.858 96.6647 187.295 97.134C187.732 97.5927 188.33 97.822 189.087 97.822C189.866 97.822 190.479 97.582 190.927 97.102C191.375 96.622 191.599 95.9233 191.599 95.006V90.19H193.055ZM195.977 99.054C195.7 99.054 195.465 98.958 195.273 98.766C195.081 98.574 194.985 98.3393 194.985 98.062C194.985 97.7847 195.081 97.55 195.273 97.358C195.465 97.166 195.7 97.07 195.977 97.07C196.244 97.07 196.468 97.166 196.649 97.358C196.841 97.55 196.937 97.7847 196.937 98.062C196.937 98.3393 196.841 98.574 196.649 98.766C196.468 98.958 196.244 99.054 195.977 99.054ZM203.225 90.03C203.886 90.03 204.483 90.174 205.017 90.462C205.55 90.7393 205.966 91.1607 206.265 91.726C206.574 92.2913 206.729 92.9793 206.729 93.79V98.958H205.289V93.998C205.289 93.1233 205.07 92.4567 204.633 91.998C204.195 91.5287 203.598 91.294 202.841 91.294C202.073 91.294 201.459 91.534 201.001 92.014C200.553 92.494 200.329 93.1927 200.329 94.11V98.958H198.873V87.118H200.329V91.438C200.617 90.99 201.011 90.6433 201.513 90.398C202.025 90.1527 202.595 90.03 203.225 90.03ZM212.211 99.102C211.539 99.102 210.936 98.99 210.403 98.766C209.87 98.5313 209.448 98.2113 209.139 97.806C208.83 97.39 208.659 96.9153 208.627 96.382H210.131C210.174 96.8193 210.376 97.1767 210.739 97.454C211.112 97.7313 211.598 97.87 212.195 97.87C212.75 97.87 213.187 97.7473 213.507 97.502C213.827 97.2567 213.987 96.9473 213.987 96.574C213.987 96.19 213.816 95.9073 213.475 95.726C213.134 95.534 212.606 95.3473 211.891 95.166C211.24 94.9953 210.707 94.8247 210.291 94.654C209.886 94.4727 209.534 94.2113 209.235 93.87C208.947 93.518 208.803 93.0593 208.803 92.494C208.803 92.046 208.936 91.6353 209.203 91.262C209.47 90.8887 209.848 90.5953 210.339 90.382C210.83 90.158 211.39 90.046 212.019 90.046C212.99 90.046 213.774 90.2913 214.371 90.782C214.968 91.2727 215.288 91.9447 215.331 92.798H213.875C213.843 92.3393 213.656 91.9713 213.315 91.694C212.984 91.4167 212.536 91.278 211.971 91.278C211.448 91.278 211.032 91.39 210.723 91.614C210.414 91.838 210.259 92.1313 210.259 92.494C210.259 92.782 210.35 93.022 210.531 93.214C210.723 93.3953 210.958 93.5447 211.235 93.662C211.523 93.7687 211.918 93.8913 212.419 94.03C213.048 94.2007 213.56 94.3713 213.955 94.542C214.35 94.702 214.686 94.9473 214.963 95.278C215.251 95.6087 215.4 96.0407 215.411 96.574C215.411 97.054 215.278 97.486 215.011 97.87C214.744 98.254 214.366 98.558 213.875 98.782C213.395 98.9953 212.84 99.102 212.211 99.102ZM225.466 94.238C225.466 94.5153 225.45 94.8087 225.418 95.118H218.41C218.464 95.982 218.757 96.6593 219.29 97.15C219.834 97.63 220.49 97.87 221.258 97.87C221.888 97.87 222.41 97.726 222.826 97.438C223.253 97.1393 223.552 96.7447 223.722 96.254H225.29C225.056 97.0967 224.586 97.7847 223.882 98.318C223.178 98.8407 222.304 99.102 221.258 99.102C220.426 99.102 219.68 98.9153 219.018 98.542C218.368 98.1687 217.856 97.6407 217.482 96.958C217.109 96.2647 216.922 95.4647 216.922 94.558C216.922 93.6513 217.104 92.8567 217.466 92.174C217.829 91.4913 218.336 90.9687 218.986 90.606C219.648 90.2327 220.405 90.046 221.258 90.046C222.09 90.046 222.826 90.2273 223.466 90.59C224.106 90.9527 224.597 91.454 224.938 92.094C225.29 92.7233 225.466 93.438 225.466 94.238ZM223.962 93.934C223.962 93.3793 223.84 92.9047 223.594 92.51C223.349 92.1047 223.013 91.8007 222.586 91.598C222.17 91.3847 221.706 91.278 221.194 91.278C220.458 91.278 219.829 91.5127 219.306 91.982C218.794 92.4513 218.501 93.102 218.426 93.934H223.962ZM227.852 99.054C227.575 99.054 227.34 98.958 227.148 98.766C226.956 98.574 226.86 98.3393 226.86 98.062C226.86 97.7847 226.956 97.55 227.148 97.358C227.34 97.166 227.575 97.07 227.852 97.07C228.119 97.07 228.343 97.166 228.524 97.358C228.716 97.55 228.812 97.7847 228.812 98.062C228.812 98.3393 228.716 98.574 228.524 98.766C228.343 98.958 228.119 99.054 227.852 99.054ZM232.204 91.614C232.46 91.1127 232.822 90.7233 233.292 90.446C233.772 90.1687 234.353 90.03 235.036 90.03V91.534H234.652C233.02 91.534 232.204 92.4193 232.204 94.19V98.958H230.748V90.19H232.204V91.614ZM244.492 90.19V98.958H243.036V97.662C242.759 98.11 242.37 98.462 241.868 98.718C241.378 98.9633 240.834 99.086 240.236 99.086C239.554 99.086 238.94 98.9473 238.396 98.67C237.852 98.382 237.42 97.9553 237.1 97.39C236.791 96.8247 236.636 96.1367 236.636 95.326V90.19H238.076V95.134C238.076 95.998 238.295 96.6647 238.732 97.134C239.17 97.5927 239.767 97.822 240.524 97.822C241.303 97.822 241.916 97.582 242.364 97.102C242.812 96.622 243.036 95.9233 243.036 95.006V90.19H244.492Z" fill="#575757"/>
<path fill-rule="evenodd" clip-rule="evenodd" d="M22 85.4052C22 84.4267 21.1 83.6262 20 83.6262H4C2.9 83.6262 2 84.4267 2 85.4052V96.0789C2 97.0573 2.9 97.8578 4 97.8578H20C21.1 97.8578 22 97.0573 22 96.0789V85.4052ZM20 85.4052L12 89.8525L4 85.4052H20ZM20 96.0789H4V87.1841L12 91.6315L20 87.1841V96.0789Z" fill="#FB9333"/>
<path d="M41.552 62.3052V50.8812H50.128V62.3052H48.704V52.1452H42.992V62.3052H41.552ZM56.3751 53.5692C57.1111 53.5692 57.7405 53.7292 58.2631 54.0492C58.7965 54.3692 59.2018 54.8225 59.4791 55.4092C59.7671 55.9852 59.9111 56.6625 59.9111 57.4412V58.2892H54.0391C54.0605 59.2598 54.3058 60.0012 54.7751 60.5132C55.2551 61.0145 55.9218 61.2652 56.7751 61.2652C57.3191 61.2652 57.7991 61.2172 58.2151 61.1212C58.6418 61.0145 59.0791 60.8652 59.5271 60.6732V61.9052C59.0898 62.0972 58.6578 62.2358 58.2311 62.3212C57.8045 62.4172 57.2978 62.4652 56.7111 62.4652C55.9005 62.4652 55.1805 62.2998 54.5511 61.9692C53.9325 61.6385 53.4471 61.1478 53.0951 60.4972C52.7538 59.8358 52.5831 59.0305 52.5831 58.0812C52.5831 57.1425 52.7378 56.3372 53.0471 55.6652C53.3671 54.9932 53.8098 54.4758 54.3751 54.1132C54.9511 53.7505 55.6178 53.5692 56.3751 53.5692ZM56.3591 54.7212C55.6871 54.7212 55.1538 54.9398 54.7591 55.3772C54.3751 55.8038 54.1458 56.4012 54.0711 57.1692H58.4391C58.4391 56.6785 58.3645 56.2518 58.2151 55.8892C58.0658 55.5265 57.8365 55.2438 57.5271 55.0412C57.2285 54.8278 56.8391 54.7212 56.3591 54.7212ZM66.1744 53.5692C67.2304 53.5692 68.0784 53.9372 68.7184 54.6732C69.369 55.4092 69.6944 56.5185 69.6944 58.0012C69.6944 58.9718 69.545 59.7932 69.2464 60.4652C68.9584 61.1265 68.5477 61.6278 68.0144 61.9692C67.4917 62.2998 66.873 62.4652 66.1584 62.4652C65.721 62.4652 65.3317 62.4065 64.9904 62.2892C64.649 62.1718 64.3557 62.0225 64.1104 61.8412C63.8757 61.6492 63.673 61.4412 63.5024 61.2172H63.4064C63.4277 61.3985 63.449 61.6278 63.4704 61.9052C63.4917 62.1825 63.5024 62.4225 63.5024 62.6252V66.1452H62.0944V53.7292H63.2464L63.4384 54.8972H63.5024C63.673 54.6518 63.8757 54.4278 64.1104 54.2252C64.3557 54.0225 64.6437 53.8625 64.9744 53.7452C65.3157 53.6278 65.7157 53.5692 66.1744 53.5692ZM65.9184 54.7532C65.3424 54.7532 64.8784 54.8652 64.5264 55.0892C64.1744 55.3025 63.9184 55.6278 63.7584 56.0652C63.5984 56.5025 63.513 57.0572 63.5024 57.7292V58.0012C63.5024 58.7052 63.577 59.3025 63.7264 59.7932C63.8757 60.2838 64.1264 60.6572 64.4784 60.9132C64.841 61.1692 65.3317 61.2972 65.9504 61.2972C66.473 61.2972 66.8997 61.1532 67.2304 60.8652C67.5717 60.5772 67.8224 60.1878 67.9824 59.6972C68.153 59.1958 68.2384 58.6252 68.2384 57.9852C68.2384 57.0038 68.0464 56.2198 67.6624 55.6332C67.289 55.0465 66.7077 54.7532 65.9184 54.7532ZM81.1381 53.7292V62.3052H79.8741V56.8332C79.8741 56.6092 79.8795 56.3745 79.8901 56.1292C79.9115 55.8838 79.9328 55.6438 79.9541 55.4092H79.9061L77.1061 62.3052H75.9221L73.2021 55.4092H73.1541C73.1755 55.6438 73.1861 55.8838 73.1861 56.1292C73.1968 56.3745 73.2021 56.6252 73.2021 56.8812V62.3052H71.9381V53.7292H73.8101L76.5141 60.6252L79.2661 53.7292H81.1381ZM87.3156 62.4652C86.5583 62.4652 85.881 62.3105 85.2836 62.0012C84.697 61.6918 84.233 61.2118 83.8916 60.5612C83.561 59.9105 83.3956 59.0785 83.3956 58.0652C83.3956 57.0092 83.5716 56.1505 83.9236 55.4892C84.2756 54.8278 84.7503 54.3425 85.3476 54.0332C85.9556 53.7238 86.6436 53.5692 87.4116 53.5692C87.849 53.5692 88.2703 53.6172 88.6756 53.7132C89.081 53.7985 89.4116 53.9052 89.6676 54.0332L89.2356 55.2012C88.9796 55.1052 88.681 55.0145 88.3396 54.9292C87.9983 54.8438 87.6783 54.8012 87.3796 54.8012C86.8036 54.8012 86.329 54.9238 85.9556 55.1692C85.5823 55.4145 85.305 55.7772 85.1236 56.2572C84.9423 56.7372 84.8516 57.3345 84.8516 58.0492C84.8516 58.7318 84.9423 59.3132 85.1236 59.7932C85.305 60.2732 85.577 60.6358 85.9396 60.8812C86.3023 61.1265 86.7556 61.2492 87.2996 61.2492C87.769 61.2492 88.1796 61.2012 88.5316 61.1052C88.8943 61.0092 89.225 60.8918 89.5236 60.7532V62.0012C89.2356 62.1505 88.9156 62.2625 88.5636 62.3372C88.2223 62.4225 87.8063 62.4652 87.3156 62.4652ZM96.6351 53.7292H98.1711L94.5071 57.8572L98.4751 62.3052H96.8431L92.9711 57.9532V62.3052H91.5631V53.7292H92.9711V57.8892L96.6351 53.7292ZM101.36 58.9612C101.36 59.0572 101.355 59.1958 101.344 59.3772C101.344 59.5478 101.339 59.7345 101.328 59.9372C101.317 60.1292 101.307 60.3158 101.296 60.4972C101.285 60.6678 101.275 60.8065 101.264 60.9132L105.856 53.7292H107.584V62.3052H106.272V57.2492C106.272 57.0785 106.272 56.8545 106.272 56.5772C106.283 56.2998 106.293 56.0278 106.304 55.7612C106.315 55.4838 106.325 55.2758 106.336 55.1372L101.776 62.3052H100.032V53.7292H101.36V58.9612ZM117.257 50.1772C117.214 50.7105 117.081 51.1585 116.857 51.5212C116.644 51.8838 116.324 52.1558 115.897 52.3372C115.47 52.5185 114.916 52.6092 114.233 52.6092C113.54 52.6092 112.98 52.5185 112.553 52.3372C112.137 52.1558 111.833 51.8892 111.641 51.5372C111.449 51.1745 111.332 50.7212 111.289 50.1772H112.601C112.654 50.7532 112.804 51.1425 113.049 51.3452C113.305 51.5372 113.71 51.6332 114.265 51.6332C114.756 51.6332 115.14 51.5318 115.417 51.3292C115.705 51.1158 115.876 50.7318 115.929 50.1772H117.257ZM111.641 58.9612C111.641 59.0572 111.636 59.1958 111.625 59.3772C111.625 59.5478 111.62 59.7345 111.609 59.9372C111.598 60.1292 111.588 60.3158 111.577 60.4972C111.566 60.6678 111.556 60.8065 111.545 60.9132L116.137 53.7292H117.865V62.3052H116.553V57.2492C116.553 57.0785 116.553 56.8545 116.553 56.5772C116.564 56.2998 116.574 56.0278 116.585 55.7612C116.596 55.4838 116.606 55.2758 116.617 55.1372L112.057 62.3052H110.313V53.7292H111.641V58.9612ZM129.932 53.7292H131.468L127.804 57.8572L131.772 62.3052H130.14L126.268 57.9532V62.3052H124.86V53.7292H126.268V57.8892L129.932 53.7292ZM137.409 53.5692C138.465 53.5692 139.313 53.9372 139.953 54.6732C140.603 55.4092 140.929 56.5185 140.929 58.0012C140.929 58.9718 140.779 59.7932 140.481 60.4652C140.193 61.1265 139.782 61.6278 139.249 61.9692C138.726 62.2998 138.107 62.4652 137.393 62.4652C136.955 62.4652 136.566 62.4065 136.225 62.2892C135.883 62.1718 135.59 62.0225 135.345 61.8412C135.11 61.6492 134.907 61.4412 134.737 61.2172H134.641C134.662 61.3985 134.683 61.6278 134.705 61.9052C134.726 62.1825 134.737 62.4225 134.737 62.6252V66.1452H133.329V53.7292H134.481L134.673 54.8972H134.737C134.907 54.6518 135.11 54.4278 135.345 54.2252C135.59 54.0225 135.878 53.8625 136.209 53.7452C136.55 53.6278 136.95 53.5692 137.409 53.5692ZM137.153 54.7532C136.577 54.7532 136.113 54.8652 135.761 55.0892C135.409 55.3025 135.153 55.6278 134.993 56.0652C134.833 56.5025 134.747 57.0572 134.737 57.7292V58.0012C134.737 58.7052 134.811 59.3025 134.961 59.7932C135.11 60.2838 135.361 60.6572 135.713 60.9132C136.075 61.1692 136.566 61.2972 137.185 61.2972C137.707 61.2972 138.134 61.1532 138.465 60.8652C138.806 60.5772 139.057 60.1878 139.217 59.6972C139.387 59.1958 139.473 58.6252 139.473 57.9852C139.473 57.0038 139.281 56.2198 138.897 55.6332C138.523 55.0465 137.942 54.7532 137.153 54.7532ZM146.421 53.5852C147.466 53.5852 148.239 53.8145 148.741 54.2732C149.242 54.7318 149.493 55.4625 149.493 56.4652V62.3052H148.469L148.197 61.0892H148.133C147.887 61.3985 147.631 61.6598 147.365 61.8732C147.109 62.0758 146.81 62.2252 146.469 62.3212C146.138 62.4172 145.733 62.4652 145.253 62.4652C144.741 62.4652 144.277 62.3745 143.861 62.1932C143.455 62.0118 143.135 61.7345 142.901 61.3612C142.666 60.9772 142.549 60.4972 142.549 59.9212C142.549 59.0678 142.885 58.4118 143.557 57.9532C144.229 57.4838 145.263 57.2278 146.661 57.1852L148.117 57.1372V56.6252C148.117 55.9105 147.962 55.4145 147.653 55.1372C147.343 54.8598 146.906 54.7212 146.341 54.7212C145.893 54.7212 145.466 54.7905 145.061 54.9292C144.655 55.0572 144.277 55.2065 143.924 55.3772L143.493 54.3212C143.866 54.1185 144.309 53.9478 144.821 53.8092C145.333 53.6598 145.866 53.5852 146.421 53.5852ZM146.837 58.1612C145.77 58.2038 145.029 58.3745 144.613 58.6732C144.207 58.9718 144.005 59.3932 144.005 59.9372C144.005 60.4172 144.149 60.7692 144.437 60.9932C144.735 61.2172 145.114 61.3292 145.573 61.3292C146.298 61.3292 146.901 61.1318 147.381 60.7372C147.861 60.3318 148.101 59.7132 148.101 58.8812V58.1132L146.837 58.1612ZM159.085 50.1772C159.043 50.7105 158.909 51.1585 158.685 51.5212C158.472 51.8838 158.152 52.1558 157.725 52.3372C157.299 52.5185 156.744 52.6092 156.061 52.6092C155.368 52.6092 154.808 52.5185 154.381 52.3372C153.965 52.1558 153.661 51.8892 153.469 51.5372C153.277 51.1745 153.16 50.7212 153.117 50.1772H154.429C154.483 50.7532 154.632 51.1425 154.877 51.3452C155.133 51.5372 155.539 51.6332 156.093 51.6332C156.584 51.6332 156.968 51.5318 157.245 51.3292C157.533 51.1158 157.704 50.7318 157.757 50.1772H159.085ZM153.469 58.9612C153.469 59.0572 153.464 59.1958 153.453 59.3772C153.453 59.5478 153.448 59.7345 153.437 59.9372C153.427 60.1292 153.416 60.3158 153.405 60.4972C153.395 60.6678 153.384 60.8065 153.373 60.9132L157.965 53.7292H159.693V62.3052H158.381V57.2492C158.381 57.0785 158.381 56.8545 158.381 56.5772C158.392 56.2998 158.403 56.0278 158.413 55.7612C158.424 55.4838 158.435 55.2758 158.445 55.1372L153.885 62.3052H152.141V53.7292H153.469V58.9612ZM163.799 60.2892L162.007 64.5932H161.03L162.199 60.2892H163.799ZM175.092 53.7292V54.9132H171.268V62.3052H169.86V53.7292H175.092ZM177.118 62.4012C176.841 62.4012 176.606 62.3052 176.414 62.1132C176.222 61.9212 176.126 61.6865 176.126 61.4092C176.126 61.1318 176.222 60.8972 176.414 60.7052C176.606 60.5132 176.841 60.4172 177.118 60.4172C177.385 60.4172 177.609 60.5132 177.79 60.7052C177.982 60.8972 178.078 61.1318 178.078 61.4092C178.078 61.6865 177.982 61.9212 177.79 62.1132C177.609 62.3052 177.385 62.4012 177.118 62.4012ZM184.599 62.3052V50.8812H193.175V62.3052H191.751V52.1452H186.039V62.3052H184.599ZM199.422 53.5692C200.158 53.5692 200.787 53.7292 201.31 54.0492C201.843 54.3692 202.249 54.8225 202.526 55.4092C202.814 55.9852 202.958 56.6625 202.958 57.4412V58.2892H197.086C197.107 59.2598 197.353 60.0012 197.822 60.5132C198.302 61.0145 198.969 61.2652 199.822 61.2652C200.366 61.2652 200.846 61.2172 201.262 61.1212C201.689 61.0145 202.126 60.8652 202.574 60.6732V61.9052C202.137 62.0972 201.705 62.2358 201.278 62.3212C200.851 62.4172 200.345 62.4652 199.758 62.4652C198.947 62.4652 198.227 62.2998 197.598 61.9692C196.979 61.6385 196.494 61.1478 196.142 60.4972C195.801 59.8358 195.63 59.0305 195.63 58.0812C195.63 57.1425 195.785 56.3372 196.094 55.6652C196.414 54.9932 196.857 54.4758 197.422 54.1132C197.998 53.7505 198.665 53.5692 199.422 53.5692ZM199.406 54.7212C198.734 54.7212 198.201 54.9398 197.806 55.3772C197.422 55.8038 197.193 56.4012 197.118 57.1692H201.486C201.486 56.6785 201.411 56.2518 201.262 55.8892C201.113 55.5265 200.883 55.2438 200.574 55.0412C200.275 54.8278 199.886 54.7212 199.406 54.7212ZM209.221 53.5692C210.277 53.5692 211.125 53.9372 211.765 54.6732C212.416 55.4092 212.741 56.5185 212.741 58.0012C212.741 58.9718 212.592 59.7932 212.293 60.4652C212.005 61.1265 211.595 61.6278 211.061 61.9692C210.539 62.2998 209.92 62.4652 209.205 62.4652C208.768 62.4652 208.379 62.4065 208.037 62.2892C207.696 62.1718 207.403 62.0225 207.157 61.8412C206.923 61.6492 206.72 61.4412 206.549 61.2172H206.453C206.475 61.3985 206.496 61.6278 206.517 61.9052C206.539 62.1825 206.549 62.4225 206.549 62.6252V66.1452H205.141V53.7292H206.293L206.485 54.8972H206.549C206.72 54.6518 206.923 54.4278 207.157 54.2252C207.403 54.0225 207.691 53.8625 208.021 53.7452C208.363 53.6278 208.763 53.5692 209.221 53.5692ZM208.965 54.7532C208.389 54.7532 207.925 54.8652 207.573 55.0892C207.221 55.3025 206.965 55.6278 206.805 56.0652C206.645 56.5025 206.56 57.0572 206.549 57.7292V58.0012C206.549 58.7052 206.624 59.3025 206.773 59.7932C206.923 60.2838 207.173 60.6572 207.525 60.9132C207.888 61.1692 208.379 61.2972 208.997 61.2972C209.52 61.2972 209.947 61.1532 210.277 60.8652C210.619 60.5772 210.869 60.1878 211.029 59.6972C211.2 59.1958 211.285 58.6252 211.285 57.9852C211.285 57.0038 211.093 56.2198 210.709 55.6332C210.336 55.0465 209.755 54.7532 208.965 54.7532ZM224.185 53.7292V62.3052H222.921V56.8332C222.921 56.6092 222.926 56.3745 222.937 56.1292C222.958 55.8838 222.98 55.6438 223.001 55.4092H222.953L220.153 62.3052H218.969L216.249 55.4092H216.201C216.222 55.6438 216.233 55.8838 216.233 56.1292C216.244 56.3745 216.249 56.6252 216.249 56.8812V62.3052H214.985V53.7292H216.857L219.561 60.6252L222.313 53.7292H224.185ZM230.875 57.2492C231.621 57.2492 232.24 57.3398 232.731 57.5212C233.221 57.7025 233.589 57.9745 233.835 58.3372C234.091 58.6892 234.219 59.1372 234.219 59.6812C234.219 60.2145 234.096 60.6785 233.851 61.0732C233.616 61.4678 233.248 61.7718 232.747 61.9852C232.245 62.1985 231.6 62.3052 230.811 62.3052H226.923V53.7292H228.331V57.2492H230.875ZM232.811 59.7612C232.811 59.2385 232.624 58.8865 232.251 58.7052C231.888 58.5132 231.376 58.4172 230.715 58.4172H228.331V61.1692H230.747C231.344 61.1692 231.835 61.0625 232.219 60.8492C232.613 60.6358 232.811 60.2732 232.811 59.7612Z" fill="#575757"/>
<path fill-rule="evenodd" clip-rule="evenodd" d="M12 44.7791C15.87 44.7791 19 47.5631 19 51.0054C19 55.6751 12 62.5685 12 62.5685C12 62.5685 5 55.6751 5 51.0054C5 47.5631 8.13 44.7791 12 44.7791ZM7 51.0054C7 53.5404 9.92 57.4185 12 59.7934C14.12 57.4007 17 53.5671 17 51.0054C17 48.5504 14.76 46.558 12 46.558C9.24 46.558 7 48.5504 7 51.0054ZM12 53.2291C10.6193 53.2291 9.5 52.2335 9.5 51.0054C9.5 49.7773 10.6193 48.7817 12 48.7817C13.3807 48.7817 14.5 49.7773 14.5 51.0054C14.5 52.2335 13.3807 53.2291 12 53.2291Z" fill="#FB9333"/>
<path d="M15.88 9.192C15.624 8.72267 15.272 8.36533 14.824 8.12C14.376 7.87467 13.8533 7.752 13.256 7.752C12.5947 7.752 12.008 7.90133 11.496 8.2C10.984 8.49867 10.584 8.92533 10.296 9.48C10.008 10.0347 9.864 10.6747 9.864 11.4C9.864 12.1467 10.008 12.7973 10.296 13.352C10.5947 13.9067 11.0053 14.3333 11.528 14.632C12.0507 14.9307 12.6587 15.08 13.352 15.08C14.2053 15.08 14.904 14.856 15.448 14.408C15.992 13.9493 16.3493 13.3147 16.52 12.504H12.68V10.792H18.728V12.744C18.5787 13.5227 18.2587 14.2427 17.768 14.904C17.2773 15.5653 16.6427 16.0987 15.864 16.504C15.096 16.8987 14.232 17.096 13.272 17.096C12.1947 17.096 11.2187 16.856 10.344 16.376C9.48 15.8853 8.79733 15.208 8.296 14.344C7.80533 13.48 7.56 12.4987 7.56 11.4C7.56 10.3013 7.80533 9.32 8.296 8.456C8.79733 7.58133 9.48 6.904 10.344 6.424C11.2187 5.93333 12.1893 5.688 13.256 5.688C14.5147 5.688 15.608 5.99733 16.536 6.616C17.464 7.224 18.104 8.08267 18.456 9.192H15.88ZM28.6253 12.376C28.6253 12.696 28.6039 12.984 28.5613 13.24H22.0813C22.1346 13.88 22.3586 14.3813 22.7533 14.744C23.1479 15.1067 23.6333 15.288 24.2093 15.288C25.0413 15.288 25.6333 14.9307 25.9853 14.216H28.4013C28.1453 15.0693 27.6546 15.7733 26.9293 16.328C26.2039 16.872 25.3133 17.144 24.2573 17.144C23.4039 17.144 22.6359 16.9573 21.9533 16.584C21.2813 16.2 20.7533 15.6613 20.3693 14.968C19.9959 14.2747 19.8092 13.4747 19.8092 12.568C19.8092 11.6507 19.9959 10.8453 20.3693 10.152C20.7426 9.45867 21.2653 8.92533 21.9373 8.552C22.6093 8.17867 23.3826 7.992 24.2573 7.992C25.0999 7.992 25.8519 8.17333 26.5133 8.536C27.1853 8.89867 27.7026 9.416 28.0653 10.088C28.4386 10.7493 28.6253 11.512 28.6253 12.376ZM26.3053 11.736C26.2946 11.16 26.0866 10.7013 25.6813 10.36C25.2759 10.008 24.7799 9.832 24.1933 9.832C23.6386 9.832 23.1693 10.0027 22.7853 10.344C22.4119 10.6747 22.1826 11.1387 22.0973 11.736H26.3053ZM32.8683 9.976V14.264C32.8683 14.5627 32.9376 14.7813 33.0763 14.92C33.2256 15.048 33.4709 15.112 33.8123 15.112H34.8523V17H33.4443C31.5563 17 30.6123 16.0827 30.6123 14.248V9.976H29.5563V8.136H30.6123V5.944H32.8683V8.136H34.8523V9.976H32.8683ZM41.4119 7.08C41.0172 7.08 40.6865 6.95733 40.4199 6.712C40.1639 6.456 40.0359 6.14133 40.0359 5.768C40.0359 5.39467 40.1639 5.08533 40.4199 4.84C40.6865 4.584 41.0172 4.456 41.4119 4.456C41.8065 4.456 42.1319 4.584 42.3879 4.84C42.6545 5.08533 42.7879 5.39467 42.7879 5.768C42.7879 6.14133 42.6545 6.456 42.3879 6.712C42.1319 6.95733 41.8065 7.08 41.4119 7.08ZM42.5159 8.136V17H40.2759V8.136H42.5159ZM49.641 8.008C50.697 8.008 51.5503 8.344 52.201 9.016C52.8517 9.67733 53.177 10.6053 53.177 11.8V17H50.937V12.104C50.937 11.4 50.761 10.8613 50.409 10.488C50.057 10.104 49.577 9.912 48.969 9.912C48.3503 9.912 47.8597 10.104 47.497 10.488C47.145 10.8613 46.969 11.4 46.969 12.104V17H44.729V8.136H46.969V9.24C47.2677 8.856 47.6463 8.55733 48.105 8.344C48.5743 8.12 49.0863 8.008 49.641 8.008ZM66.7196 5.832V7.64H63.7436V17H61.5036V7.64H58.5276V5.832H66.7196ZM72.29 17.144C71.4367 17.144 70.6687 16.9573 69.986 16.584C69.3033 16.2 68.7647 15.6613 68.37 14.968C67.986 14.2747 67.794 13.4747 67.794 12.568C67.794 11.6613 67.9913 10.8613 68.386 10.168C68.7913 9.47467 69.3407 8.94133 70.034 8.568C70.7273 8.184 71.5007 7.992 72.354 7.992C73.2073 7.992 73.9807 8.184 74.674 8.568C75.3673 8.94133 75.9113 9.47467 76.306 10.168C76.7113 10.8613 76.914 11.6613 76.914 12.568C76.914 13.4747 76.706 14.2747 76.29 14.968C75.8847 15.6613 75.33 16.2 74.626 16.584C73.9327 16.9573 73.154 17.144 72.29 17.144ZM72.29 15.192C72.6953 15.192 73.074 15.096 73.426 14.904C73.7887 14.7013 74.0767 14.4027 74.29 14.008C74.5033 13.6133 74.61 13.1333 74.61 12.568C74.61 11.7253 74.386 11.08 73.938 10.632C73.5007 10.1733 72.962 9.944 72.322 9.944C71.682 9.944 71.1433 10.1733 70.706 10.632C70.2793 11.08 70.066 11.7253 70.066 12.568C70.066 13.4107 70.274 14.0613 70.69 14.52C71.1167 14.968 71.65 15.192 72.29 15.192ZM86.9251 8.136V17H84.6691V15.88C84.3811 16.264 84.0025 16.568 83.5331 16.792C83.0745 17.0053 82.5731 17.112 82.0291 17.112C81.3358 17.112 80.7225 16.968 80.1891 16.68C79.6558 16.3813 79.2345 15.9493 78.9251 15.384C78.6265 14.808 78.4771 14.1253 78.4771 13.336V8.136H80.7171V13.016C80.7171 13.72 80.8931 14.264 81.2451 14.648C81.5971 15.0213 82.0771 15.208 82.6851 15.208C83.3038 15.208 83.7891 15.0213 84.1411 14.648C84.4931 14.264 84.6691 13.72 84.6691 13.016V8.136H86.9251ZM88.5592 12.568C88.5592 11.6507 88.7459 10.8507 89.1193 10.168C89.4926 9.47467 90.0099 8.94133 90.6713 8.568C91.3326 8.184 92.0899 7.992 92.9433 7.992C94.0419 7.992 94.9486 8.26933 95.6633 8.824C96.3886 9.368 96.8739 10.136 97.1193 11.128H94.7033C94.5753 10.744 94.3566 10.4453 94.0473 10.232C93.7486 10.008 93.3753 9.896 92.9273 9.896C92.2873 9.896 91.7806 10.1307 91.4073 10.6C91.0339 11.0587 90.8473 11.7147 90.8473 12.568C90.8473 13.4107 91.0339 14.0667 91.4073 14.536C91.7806 14.9947 92.2873 15.224 92.9273 15.224C93.8339 15.224 94.4259 14.8187 94.7033 14.008H97.1193C96.8739 14.968 96.3886 15.7307 95.6633 16.296C94.9379 16.8613 94.0313 17.144 92.9433 17.144C92.0899 17.144 91.3326 16.9573 90.6713 16.584C90.0099 16.2 89.4926 15.6667 89.1193 14.984C88.7459 14.2907 88.5592 13.4853 88.5592 12.568ZM103.752 8.008C104.424 8.008 105.022 8.15733 105.544 8.456C106.067 8.744 106.472 9.176 106.76 9.752C107.059 10.3173 107.208 11 107.208 11.8V17H104.968V12.104C104.968 11.4 104.792 10.8613 104.44 10.488C104.088 10.104 103.608 9.912 103 9.912C102.382 9.912 101.891 10.104 101.528 10.488C101.176 10.8613 101 11.4 101 12.104V17H98.7603V5.16H101V9.24C101.288 8.856 101.672 8.55733 102.152 8.344C102.632 8.12 103.166 8.008 103.752 8.008Z" fill="#FB9333"/>
</svg>
