<svg width="277" height="216" viewBox="0 0 277 216" fill="none" xmlns="http://www.w3.org/2000/svg">
<path d="M6.352 198.736C7.42933 198.736 8.38933 198.981 9.232 199.472C10.0747 199.952 10.7253 200.624 11.184 201.488C11.6533 202.341 11.888 203.317 11.888 204.416C11.888 205.515 11.6533 206.496 11.184 207.36C10.7253 208.213 10.0747 208.885 9.232 209.376C8.38933 209.856 7.42933 210.096 6.352 210.096C5.264 210.096 4.29867 209.856 3.456 209.376C2.61333 208.885 1.95733 208.213 1.488 207.36C1.01867 206.496 0.784 205.515 0.784 204.416C0.784 203.317 1.01867 202.341 1.488 201.488C1.95733 200.624 2.61333 199.952 3.456 199.472C4.29867 198.981 5.264 198.736 6.352 198.736ZM6.352 199.376C5.36 199.376 4.496 199.589 3.76 200.016C3.024 200.432 2.45867 201.019 2.064 201.776C1.66933 202.533 1.472 203.413 1.472 204.416C1.472 205.408 1.66933 206.288 2.064 207.056C2.45867 207.813 3.024 208.405 3.76 208.832C4.496 209.259 5.36 209.472 6.352 209.472C7.33333 209.472 8.18667 209.259 8.912 208.832C9.648 208.405 10.2133 207.813 10.608 207.056C11.0027 206.288 11.2 205.408 11.2 204.416C11.2 203.413 11.0027 202.533 10.608 201.776C10.2133 201.019 9.648 200.432 8.912 200.016C8.18667 199.589 7.33333 199.376 6.352 199.376ZM6.32 200.704C5.68 200.704 5.09333 200.853 4.56 201.152C4.03733 201.451 3.62133 201.883 3.312 202.448C3.00267 203.003 2.848 203.653 2.848 204.4C2.848 205.147 3.00267 205.803 3.312 206.368C3.62133 206.923 4.03733 207.355 4.56 207.664C5.09333 207.963 5.68 208.112 6.32 208.112C7.12 208.112 7.81333 207.899 8.4 207.472C8.98667 207.035 9.38667 206.453 9.6 205.728H8.256C7.936 206.613 7.29067 207.056 6.32 207.056C5.68 207.056 5.15733 206.827 4.752 206.368C4.34667 205.909 4.144 205.259 4.144 204.416C4.144 203.563 4.34667 202.907 4.752 202.448C5.15733 201.989 5.68 201.76 6.32 201.76C6.78933 201.76 7.19467 201.877 7.536 202.112C7.87733 202.336 8.11733 202.661 8.256 203.088H9.6C9.39733 202.331 9.00267 201.744 8.416 201.328C7.82933 200.912 7.13067 200.704 6.32 200.704ZM13.3599 204.416C13.3599 203.328 13.6052 202.352 14.0959 201.488C14.5865 200.613 15.2532 199.931 16.0959 199.44C16.9492 198.949 17.8932 198.704 18.9279 198.704C20.1439 198.704 21.2052 198.997 22.1119 199.584C23.0185 200.171 23.6799 201.003 24.0959 202.08H22.3519C22.0425 201.408 21.5945 200.891 21.0079 200.528C20.4319 200.165 19.7385 199.984 18.9279 199.984C18.1492 199.984 17.4505 200.165 16.8319 200.528C16.2132 200.891 15.7279 201.408 15.3759 202.08C15.0239 202.741 14.8479 203.52 14.8479 204.416C14.8479 205.301 15.0239 206.08 15.3759 206.752C15.7279 207.413 16.2132 207.925 16.8319 208.288C17.4505 208.651 18.1492 208.832 18.9279 208.832C19.7385 208.832 20.4319 208.656 21.0079 208.304C21.5945 207.941 22.0425 207.424 22.3519 206.752H24.0959C23.6799 207.819 23.0185 208.645 22.1119 209.232C21.2052 209.808 20.1439 210.096 18.9279 210.096C17.8932 210.096 16.9492 209.856 16.0959 209.376C15.2532 208.885 14.5865 208.208 14.0959 207.344C13.6052 206.48 13.3599 205.504 13.3599 204.416ZM30.0873 210.144C29.2659 210.144 28.5193 209.957 27.8473 209.584C27.1859 209.211 26.6633 208.683 26.2793 208C25.9059 207.307 25.7193 206.507 25.7193 205.6C25.7193 204.704 25.9113 203.915 26.2953 203.232C26.6899 202.539 27.2233 202.011 27.8953 201.648C28.5673 201.275 29.3193 201.088 30.1513 201.088C30.9833 201.088 31.7353 201.275 32.4073 201.648C33.0793 202.011 33.6073 202.533 33.9913 203.216C34.3859 203.899 34.5833 204.693 34.5833 205.6C34.5833 206.507 34.3806 207.307 33.9753 208C33.5806 208.683 33.0419 209.211 32.3593 209.584C31.6766 209.957 30.9193 210.144 30.0873 210.144ZM30.0873 208.864C30.6099 208.864 31.1006 208.741 31.5593 208.496C32.0179 208.251 32.3859 207.883 32.6633 207.392C32.9513 206.901 33.0953 206.304 33.0953 205.6C33.0953 204.896 32.9566 204.299 32.6793 203.808C32.4019 203.317 32.0393 202.955 31.5913 202.72C31.1433 202.475 30.6579 202.352 30.1353 202.352C29.6019 202.352 29.1113 202.475 28.6633 202.72C28.2259 202.955 27.8739 203.317 27.6073 203.808C27.3406 204.299 27.2073 204.896 27.2073 205.6C27.2073 206.315 27.3353 206.917 27.5913 207.408C27.8579 207.899 28.2099 208.267 28.6473 208.512C29.0846 208.747 29.5646 208.864 30.0873 208.864ZM37.9536 202.848C38.2416 202.347 38.6683 201.931 39.2336 201.6C39.8096 201.259 40.4763 201.088 41.2336 201.088C42.0123 201.088 42.7163 201.275 43.3456 201.648C43.9856 202.021 44.487 202.549 44.8496 203.232C45.2123 203.904 45.3936 204.688 45.3936 205.584C45.3936 206.469 45.2123 207.259 44.8496 207.952C44.487 208.645 43.9856 209.184 43.3456 209.568C42.7163 209.952 42.0123 210.144 41.2336 210.144C40.487 210.144 39.8256 209.979 39.2496 209.648C38.6843 209.307 38.2523 208.885 37.9536 208.384V214.16H36.4976V201.232H37.9536V202.848ZM43.9056 205.584C43.9056 204.923 43.7723 204.347 43.5056 203.856C43.239 203.365 42.8763 202.992 42.4176 202.736C41.9696 202.48 41.4736 202.352 40.9296 202.352C40.3963 202.352 39.9003 202.485 39.4416 202.752C38.9936 203.008 38.631 203.387 38.3536 203.888C38.087 204.379 37.9536 204.949 37.9536 205.6C37.9536 206.261 38.087 206.843 38.3536 207.344C38.631 207.835 38.9936 208.213 39.4416 208.48C39.9003 208.736 40.3963 208.864 40.9296 208.864C41.4736 208.864 41.9696 208.736 42.4176 208.48C42.8763 208.213 43.239 207.835 43.5056 207.344C43.7723 206.843 43.9056 206.256 43.9056 205.584ZM54.8621 201.232L49.5821 214.128H48.0781L49.8061 209.904L46.2701 201.232H47.8861L50.6381 208.336L53.3581 201.232H54.8621ZM57.7818 202.656C58.0378 202.155 58.4004 201.765 58.8698 201.488C59.3498 201.211 59.9311 201.072 60.6138 201.072V202.576H60.2298C58.5978 202.576 57.7818 203.461 57.7818 205.232V210H56.3258V201.232H57.7818V202.656ZM63.0465 199.808C62.7692 199.808 62.5345 199.712 62.3425 199.52C62.1505 199.328 62.0545 199.093 62.0545 198.816C62.0545 198.539 62.1505 198.304 62.3425 198.112C62.5345 197.92 62.7692 197.824 63.0465 197.824C63.3132 197.824 63.5372 197.92 63.7185 198.112C63.9105 198.304 64.0065 198.539 64.0065 198.816C64.0065 199.093 63.9105 199.328 63.7185 199.52C63.5372 199.712 63.3132 199.808 63.0465 199.808ZM63.7505 201.232V210H62.2945V201.232H63.7505ZM69.848 201.088C70.6053 201.088 71.2667 201.253 71.832 201.584C72.408 201.915 72.8347 202.331 73.112 202.832V201.232H74.584V210.192C74.584 210.992 74.4133 211.701 74.072 212.32C73.7307 212.949 73.24 213.44 72.6 213.792C71.9707 214.144 71.2347 214.32 70.392 214.32C69.24 214.32 68.28 214.048 67.512 213.504C66.744 212.96 66.2907 212.219 66.152 211.28H67.592C67.752 211.813 68.0827 212.24 68.584 212.56C69.0853 212.891 69.688 213.056 70.392 213.056C71.192 213.056 71.8427 212.805 72.344 212.304C72.856 211.803 73.112 211.099 73.112 210.192V208.352C72.824 208.864 72.3973 209.291 71.832 209.632C71.2667 209.973 70.6053 210.144 69.848 210.144C69.0693 210.144 68.36 209.952 67.72 209.568C67.0907 209.184 66.5947 208.645 66.232 207.952C65.8693 207.259 65.688 206.469 65.688 205.584C65.688 204.688 65.8693 203.904 66.232 203.232C66.5947 202.549 67.0907 202.021 67.72 201.648C68.36 201.275 69.0693 201.088 69.848 201.088ZM73.112 205.6C73.112 204.939 72.9787 204.363 72.712 203.872C72.4453 203.381 72.0827 203.008 71.624 202.752C71.176 202.485 70.68 202.352 70.136 202.352C69.592 202.352 69.096 202.48 68.648 202.736C68.2 202.992 67.8427 203.365 67.576 203.856C67.3093 204.347 67.176 204.923 67.176 205.584C67.176 206.256 67.3093 206.843 67.576 207.344C67.8427 207.835 68.2 208.213 68.648 208.48C69.096 208.736 69.592 208.864 70.136 208.864C70.68 208.864 71.176 208.736 71.624 208.48C72.0827 208.213 72.4453 207.835 72.712 207.344C72.9787 206.843 73.112 206.261 73.112 205.6ZM81.3965 201.072C82.0578 201.072 82.6552 201.216 83.1885 201.504C83.7218 201.781 84.1378 202.203 84.4365 202.768C84.7458 203.333 84.9005 204.021 84.9005 204.832V210H83.4605V205.04C83.4605 204.165 83.2418 203.499 82.8045 203.04C82.3672 202.571 81.7698 202.336 81.0125 202.336C80.2445 202.336 79.6312 202.576 79.1725 203.056C78.7245 203.536 78.5005 204.235 78.5005 205.152V210H77.0445V198.16H78.5005V202.48C78.7885 202.032 79.1832 201.685 79.6845 201.44C80.1965 201.195 80.7672 201.072 81.3965 201.072ZM89.0549 202.432V207.6C89.0549 208.027 89.1455 208.331 89.3269 208.512C89.5082 208.683 89.8229 208.768 90.2709 208.768H91.3429V210H90.0309C89.2202 210 88.6122 209.813 88.2069 209.44C87.8015 209.067 87.5989 208.453 87.5989 207.6V202.432H86.4629V201.232H87.5989V199.024H89.0549V201.232H91.3429V202.432H89.0549ZM105.965 198.848V210H104.509V204.944H98.8286V210H97.3726V198.848H98.8286V203.744H104.509V198.848H105.965ZM116.451 205.28C116.451 205.557 116.435 205.851 116.403 206.16H109.395C109.448 207.024 109.741 207.701 110.275 208.192C110.819 208.672 111.475 208.912 112.243 208.912C112.872 208.912 113.395 208.768 113.811 208.48C114.237 208.181 114.536 207.787 114.707 207.296H116.275C116.04 208.139 115.571 208.827 114.867 209.36C114.163 209.883 113.288 210.144 112.243 210.144C111.411 210.144 110.664 209.957 110.003 209.584C109.352 209.211 108.84 208.683 108.467 208C108.093 207.307 107.907 206.507 107.907 205.6C107.907 204.693 108.088 203.899 108.451 203.216C108.813 202.533 109.32 202.011 109.971 201.648C110.632 201.275 111.389 201.088 112.243 201.088C113.075 201.088 113.811 201.269 114.451 201.632C115.091 201.995 115.581 202.496 115.923 203.136C116.275 203.765 116.451 204.48 116.451 205.28ZM114.947 204.976C114.947 204.421 114.824 203.947 114.579 203.552C114.333 203.147 113.997 202.843 113.571 202.64C113.155 202.427 112.691 202.32 112.179 202.32C111.443 202.32 110.813 202.555 110.291 203.024C109.779 203.493 109.485 204.144 109.411 204.976H114.947ZM117.829 205.584C117.829 204.688 118.01 203.904 118.373 203.232C118.735 202.549 119.231 202.021 119.861 201.648C120.501 201.275 121.21 201.088 121.989 201.088C122.757 201.088 123.423 201.253 123.989 201.584C124.554 201.915 124.975 202.331 125.253 202.832V201.232H126.725V210H125.253V208.368C124.965 208.88 124.533 209.307 123.957 209.648C123.391 209.979 122.73 210.144 121.973 210.144C121.194 210.144 120.49 209.952 119.861 209.568C119.231 209.184 118.735 208.645 118.373 207.952C118.01 207.259 117.829 206.469 117.829 205.584ZM125.253 205.6C125.253 204.939 125.119 204.363 124.853 203.872C124.586 203.381 124.223 203.008 123.765 202.752C123.317 202.485 122.821 202.352 122.277 202.352C121.733 202.352 121.237 202.48 120.789 202.736C120.341 202.992 119.983 203.365 119.717 203.856C119.45 204.347 119.317 204.923 119.317 205.584C119.317 206.256 119.45 206.843 119.717 207.344C119.983 207.835 120.341 208.213 120.789 208.48C121.237 208.736 121.733 208.864 122.277 208.864C122.821 208.864 123.317 208.736 123.765 208.48C124.223 208.213 124.586 207.835 124.853 207.344C125.119 206.843 125.253 206.261 125.253 205.6ZM130.641 198.16V210H129.185V198.16H130.641ZM134.899 202.432V207.6C134.899 208.027 134.989 208.331 135.171 208.512C135.352 208.683 135.667 208.768 136.115 208.768H137.187V210H135.875C135.064 210 134.456 209.813 134.051 209.44C133.645 209.067 133.443 208.453 133.443 207.6V202.432H132.307V201.232H133.443V199.024H134.899V201.232H137.187V202.432H134.899ZM143.303 201.072C143.964 201.072 144.561 201.216 145.095 201.504C145.628 201.781 146.044 202.203 146.343 202.768C146.652 203.333 146.807 204.021 146.807 204.832V210H145.367V205.04C145.367 204.165 145.148 203.499 144.711 203.04C144.273 202.571 143.676 202.336 142.919 202.336C142.151 202.336 141.537 202.576 141.079 203.056C140.631 203.536 140.407 204.235 140.407 205.152V210H138.951V198.16H140.407V202.48C140.695 202.032 141.089 201.685 141.591 201.44C142.103 201.195 142.673 201.072 143.303 201.072ZM156.737 201.232L151.457 214.128H149.953L151.681 209.904L148.145 201.232H149.761L152.513 208.336L155.233 201.232H156.737ZM163.922 202.848C164.21 202.347 164.637 201.931 165.202 201.6C165.778 201.259 166.445 201.088 167.202 201.088C167.981 201.088 168.685 201.275 169.314 201.648C169.954 202.021 170.456 202.549 170.818 203.232C171.181 203.904 171.362 204.688 171.362 205.584C171.362 206.469 171.181 207.259 170.818 207.952C170.456 208.645 169.954 209.184 169.314 209.568C168.685 209.952 167.981 210.144 167.202 210.144C166.456 210.144 165.794 209.979 165.218 209.648C164.653 209.307 164.221 208.885 163.922 208.384V214.16H162.466V201.232H163.922V202.848ZM169.874 205.584C169.874 204.923 169.741 204.347 169.474 203.856C169.208 203.365 168.845 202.992 168.386 202.736C167.938 202.48 167.442 202.352 166.898 202.352C166.365 202.352 165.869 202.485 165.41 202.752C164.962 203.008 164.6 203.387 164.322 203.888C164.056 204.379 163.922 204.949 163.922 205.6C163.922 206.261 164.056 206.843 164.322 207.344C164.6 207.835 164.962 208.213 165.41 208.48C165.869 208.736 166.365 208.864 166.898 208.864C167.442 208.864 167.938 208.736 168.386 208.48C168.845 208.213 169.208 207.835 169.474 207.344C169.741 206.843 169.874 206.256 169.874 205.584ZM181.279 205.28C181.279 205.557 181.263 205.851 181.231 206.16H174.223C174.276 207.024 174.57 207.701 175.103 208.192C175.647 208.672 176.303 208.912 177.071 208.912C177.7 208.912 178.223 208.768 178.639 208.48C179.066 208.181 179.364 207.787 179.535 207.296H181.103C180.868 208.139 180.399 208.827 179.695 209.36C178.991 209.883 178.116 210.144 177.071 210.144C176.239 210.144 175.492 209.957 174.831 209.584C174.18 209.211 173.668 208.683 173.295 208C172.922 207.307 172.735 206.507 172.735 205.6C172.735 204.693 172.916 203.899 173.279 203.216C173.642 202.533 174.148 202.011 174.799 201.648C175.46 201.275 176.218 201.088 177.071 201.088C177.903 201.088 178.639 201.269 179.279 201.632C179.919 201.995 180.41 202.496 180.751 203.136C181.103 203.765 181.279 204.48 181.279 205.28ZM179.775 204.976C179.775 204.421 179.652 203.947 179.407 203.552C179.162 203.147 178.826 202.843 178.399 202.64C177.983 202.427 177.519 202.32 177.007 202.32C176.271 202.32 175.642 202.555 175.119 203.024C174.607 203.493 174.314 204.144 174.239 204.976H179.775ZM187.025 210.144C186.203 210.144 185.457 209.957 184.785 209.584C184.123 209.211 183.601 208.683 183.217 208C182.843 207.307 182.657 206.507 182.657 205.6C182.657 204.704 182.849 203.915 183.233 203.232C183.627 202.539 184.161 202.011 184.833 201.648C185.505 201.275 186.257 201.088 187.089 201.088C187.921 201.088 188.673 201.275 189.345 201.648C190.017 202.011 190.545 202.533 190.929 203.216C191.323 203.899 191.521 204.693 191.521 205.6C191.521 206.507 191.318 207.307 190.913 208C190.518 208.683 189.979 209.211 189.297 209.584C188.614 209.957 187.857 210.144 187.025 210.144ZM187.025 208.864C187.547 208.864 188.038 208.741 188.497 208.496C188.955 208.251 189.323 207.883 189.601 207.392C189.889 206.901 190.033 206.304 190.033 205.6C190.033 204.896 189.894 204.299 189.617 203.808C189.339 203.317 188.977 202.955 188.529 202.72C188.081 202.475 187.595 202.352 187.073 202.352C186.539 202.352 186.049 202.475 185.601 202.72C185.163 202.955 184.811 203.317 184.545 203.808C184.278 204.299 184.145 204.896 184.145 205.6C184.145 206.315 184.273 206.917 184.529 207.408C184.795 207.899 185.147 208.267 185.585 208.512C186.022 208.747 186.502 208.864 187.025 208.864ZM194.891 202.848C195.179 202.347 195.606 201.931 196.171 201.6C196.747 201.259 197.414 201.088 198.171 201.088C198.95 201.088 199.654 201.275 200.283 201.648C200.923 202.021 201.424 202.549 201.787 203.232C202.15 203.904 202.331 204.688 202.331 205.584C202.331 206.469 202.15 207.259 201.787 207.952C201.424 208.645 200.923 209.184 200.283 209.568C199.654 209.952 198.95 210.144 198.171 210.144C197.424 210.144 196.763 209.979 196.187 209.648C195.622 209.307 195.19 208.885 194.891 208.384V214.16H193.435V201.232H194.891V202.848ZM200.843 205.584C200.843 204.923 200.71 204.347 200.443 203.856C200.176 203.365 199.814 202.992 199.355 202.736C198.907 202.48 198.411 202.352 197.867 202.352C197.334 202.352 196.838 202.485 196.379 202.752C195.931 203.008 195.568 203.387 195.291 203.888C195.024 204.379 194.891 204.949 194.891 205.6C194.891 206.261 195.024 206.843 195.291 207.344C195.568 207.835 195.931 208.213 196.379 208.48C196.838 208.736 197.334 208.864 197.867 208.864C198.411 208.864 198.907 208.736 199.355 208.48C199.814 208.213 200.176 207.835 200.443 207.344C200.71 206.843 200.843 206.256 200.843 205.584ZM205.704 198.16V210H204.248V198.16H205.704ZM216.185 205.28C216.185 205.557 216.169 205.851 216.137 206.16H209.129C209.182 207.024 209.476 207.701 210.009 208.192C210.553 208.672 211.209 208.912 211.977 208.912C212.606 208.912 213.129 208.768 213.545 208.48C213.972 208.181 214.27 207.787 214.441 207.296H216.009C215.774 208.139 215.305 208.827 214.601 209.36C213.897 209.883 213.022 210.144 211.977 210.144C211.145 210.144 210.398 209.957 209.737 209.584C209.086 209.211 208.574 208.683 208.201 208C207.828 207.307 207.641 206.507 207.641 205.6C207.641 204.693 207.822 203.899 208.185 203.216C208.548 202.533 209.054 202.011 209.705 201.648C210.366 201.275 211.124 201.088 211.977 201.088C212.809 201.088 213.545 201.269 214.185 201.632C214.825 201.995 215.316 202.496 215.657 203.136C216.009 203.765 216.185 204.48 216.185 205.28ZM214.681 204.976C214.681 204.421 214.558 203.947 214.313 203.552C214.068 203.147 213.732 202.843 213.305 202.64C212.889 202.427 212.425 202.32 211.913 202.32C211.177 202.32 210.548 202.555 210.025 203.024C209.513 203.493 209.22 204.144 209.145 204.976H214.681Z" fill="#2B2B2B"/>
<path d="M9.824 54.848V66H8.368V60.944H2.688V66H1.232V54.848H2.688V59.744H8.368V54.848H9.824ZM13.7661 56.032V59.76H17.8301V60.96H13.7661V64.8H18.3101V66H12.3101V54.832H18.3101V56.032H13.7661ZM27.1053 63.52H22.2413L21.3453 66H19.8092L23.8413 54.912H25.5213L29.5373 66H28.0013L27.1053 63.52ZM26.6893 62.336L24.6733 56.704L22.6573 62.336H26.6893ZM32.7505 64.816H36.6545V66H31.2945V54.848H32.7505V64.816ZM45.0648 54.848V56.032H42.0248V66H40.5688V56.032H37.5128V54.848H45.0648ZM55.449 54.848V66H53.993V60.944H48.313V66H46.857V54.848H48.313V59.744H53.993V54.848H55.449ZM65.7431 54.848L62.1111 61.792V66H60.6551V61.792L57.0071 54.848H58.6231L61.3751 60.496L64.1271 54.848H65.7431ZM79.0005 58.112C79.0005 59.04 78.6805 59.8133 78.0405 60.432C77.4112 61.04 76.4458 61.344 75.1445 61.344H73.0005V66H71.5445V54.848H75.1445C76.4032 54.848 77.3578 55.152 78.0085 55.76C78.6698 56.368 79.0005 57.152 79.0005 58.112ZM75.1445 60.144C75.9552 60.144 76.5525 59.968 76.9365 59.616C77.3205 59.264 77.5125 58.7627 77.5125 58.112C77.5125 56.736 76.7232 56.048 75.1445 56.048H73.0005V60.144H75.1445ZM82.2661 56.032V59.76H86.3301V60.96H82.2661V64.8H86.8101V66H80.8101V54.832H86.8101V56.032H82.2661ZM94.0693 66.112C93.0346 66.112 92.0906 65.872 91.2373 65.392C90.3839 64.9013 89.7066 64.224 89.2053 63.36C88.7146 62.4853 88.4693 61.504 88.4693 60.416C88.4693 59.328 88.7146 58.352 89.2053 57.488C89.7066 56.6133 90.3839 55.936 91.2373 55.456C92.0906 54.9653 93.0346 54.72 94.0693 54.72C95.1146 54.72 96.0639 54.9653 96.9173 55.456C97.7706 55.936 98.4426 56.608 98.9333 57.472C99.4239 58.336 99.6693 59.3173 99.6693 60.416C99.6693 61.5147 99.4239 62.496 98.9333 63.36C98.4426 64.224 97.7706 64.9013 96.9173 65.392C96.0639 65.872 95.1146 66.112 94.0693 66.112ZM94.0693 64.848C94.8479 64.848 95.5466 64.6667 96.1653 64.304C96.7946 63.9413 97.2853 63.424 97.6373 62.752C97.9999 62.08 98.1813 61.3013 98.1813 60.416C98.1813 59.52 97.9999 58.7413 97.6373 58.08C97.2853 57.408 96.7999 56.8907 96.1813 56.528C95.5626 56.1653 94.8586 55.984 94.0693 55.984C93.2799 55.984 92.5759 56.1653 91.9573 56.528C91.3386 56.8907 90.8479 57.408 90.4853 58.08C90.1333 58.7413 89.9573 59.52 89.9573 60.416C89.9573 61.3013 90.1333 62.08 90.4853 62.752C90.8479 63.424 91.3386 63.9413 91.9573 64.304C92.5866 64.6667 93.2906 64.848 94.0693 64.848ZM109.047 58.112C109.047 59.04 108.727 59.8133 108.087 60.432C107.458 61.04 106.493 61.344 105.191 61.344H103.047V66H101.591V54.848H105.191C106.45 54.848 107.405 55.152 108.055 55.76C108.717 56.368 109.047 57.152 109.047 58.112ZM105.191 60.144C106.002 60.144 106.599 59.968 106.983 59.616C107.367 59.264 107.559 58.7627 107.559 58.112C107.559 56.736 106.77 56.048 105.191 56.048H103.047V60.144H105.191ZM112.313 64.816H116.217V66H110.857V54.848H112.313V64.816ZM119.219 56.032V59.76H123.283V60.96H119.219V64.8H123.763V66H117.763V54.832H123.763V56.032H119.219ZM136.312 59.52V60.752H129.928V59.52H136.312ZM146.878 66.16C146.121 66.16 145.443 66.0053 144.846 65.696C144.259 65.3867 143.795 64.9067 143.454 64.256C143.123 63.6053 142.958 62.7733 142.958 61.76C142.958 60.704 143.134 59.8453 143.486 59.184C143.838 58.5227 144.313 58.0373 144.91 57.728C145.518 57.4187 146.206 57.264 146.974 57.264C147.411 57.264 147.833 57.312 148.238 57.408C148.643 57.4933 148.974 57.6 149.23 57.728L148.798 58.896C148.542 58.8 148.243 58.7093 147.902 58.624C147.561 58.5387 147.241 58.496 146.942 58.496C146.366 58.496 145.891 58.6187 145.518 58.864C145.145 59.1093 144.867 59.472 144.686 59.952C144.505 60.432 144.414 61.0293 144.414 61.744C144.414 62.4267 144.505 63.008 144.686 63.488C144.867 63.968 145.139 64.3307 145.502 64.576C145.865 64.8213 146.318 64.944 146.862 64.944C147.331 64.944 147.742 64.896 148.094 64.8C148.457 64.704 148.787 64.5867 149.086 64.448V65.696C148.798 65.8453 148.478 65.9573 148.126 66.032C147.785 66.1173 147.369 66.16 146.878 66.16ZM154.374 57.28C155.419 57.28 156.192 57.5093 156.694 57.968C157.195 58.4267 157.446 59.1573 157.446 60.16V66H156.422L156.15 64.784H156.086C155.84 65.0933 155.584 65.3547 155.318 65.568C155.062 65.7707 154.763 65.92 154.422 66.016C154.091 66.112 153.686 66.16 153.206 66.16C152.694 66.16 152.23 66.0693 151.814 65.888C151.408 65.7067 151.088 65.4293 150.854 65.056C150.619 64.672 150.502 64.192 150.502 63.616C150.502 62.7627 150.838 62.1067 151.51 61.648C152.182 61.1787 153.216 60.9227 154.614 60.88L156.07 60.832V60.32C156.07 59.6053 155.915 59.1093 155.606 58.832C155.296 58.5547 154.859 58.416 154.294 58.416C153.846 58.416 153.419 58.4853 153.014 58.624C152.608 58.752 152.23 58.9013 151.878 59.072L151.446 58.016C151.819 57.8133 152.262 57.6427 152.774 57.504C153.286 57.3547 153.819 57.28 154.374 57.28ZM154.79 61.856C153.723 61.8987 152.982 62.0693 152.566 62.368C152.16 62.6667 151.958 63.088 151.958 63.632C151.958 64.112 152.102 64.464 152.39 64.688C152.688 64.912 153.067 65.024 153.526 65.024C154.251 65.024 154.854 64.8267 155.334 64.432C155.814 64.0267 156.054 63.408 156.054 62.576V61.808L154.79 61.856ZM167.038 53.872C166.996 54.4053 166.862 54.8533 166.638 55.216C166.425 55.5787 166.105 55.8507 165.678 56.032C165.252 56.2133 164.697 56.304 164.014 56.304C163.321 56.304 162.761 56.2133 162.334 56.032C161.918 55.8507 161.614 55.584 161.422 55.232C161.23 54.8693 161.113 54.416 161.07 53.872H162.382C162.436 54.448 162.585 54.8373 162.83 55.04C163.086 55.232 163.492 55.328 164.046 55.328C164.537 55.328 164.921 55.2267 165.198 55.024C165.486 54.8107 165.657 54.4267 165.71 53.872H167.038ZM161.422 62.656C161.422 62.752 161.417 62.8907 161.406 63.072C161.406 63.2427 161.401 63.4293 161.39 63.632C161.38 63.824 161.369 64.0107 161.358 64.192C161.348 64.3627 161.337 64.5013 161.326 64.608L165.918 57.424H167.646V66H166.334V60.944C166.334 60.7733 166.334 60.5493 166.334 60.272C166.345 59.9947 166.356 59.7227 166.366 59.456C166.377 59.1787 166.388 58.9707 166.398 58.832L161.838 66H160.094V57.424H161.422V62.656ZM176.296 58.608H173.496V66H172.104V58.608H169.336V57.424H176.296V58.608ZM186.331 57.264C187.387 57.264 188.235 57.632 188.875 58.368C189.525 59.104 189.851 60.2133 189.851 61.696C189.851 62.6667 189.701 63.488 189.403 64.16C189.115 64.8213 188.704 65.3227 188.171 65.664C187.648 65.9947 187.029 66.16 186.315 66.16C185.877 66.16 185.488 66.1013 185.147 65.984C184.805 65.8667 184.512 65.7173 184.267 65.536C184.032 65.344 183.829 65.136 183.659 64.912H183.563C183.584 65.0933 183.605 65.3227 183.627 65.6C183.648 65.8773 183.659 66.1173 183.659 66.32V69.84H182.251V57.424H183.403L183.595 58.592H183.659C183.829 58.3467 184.032 58.1227 184.267 57.92C184.512 57.7173 184.8 57.5573 185.131 57.44C185.472 57.3227 185.872 57.264 186.331 57.264ZM186.075 58.448C185.499 58.448 185.035 58.56 184.683 58.784C184.331 58.9973 184.075 59.3227 183.915 59.76C183.755 60.1973 183.669 60.752 183.659 61.424V61.696C183.659 62.4 183.733 62.9973 183.883 63.488C184.032 63.9787 184.283 64.352 184.635 64.608C184.997 64.864 185.488 64.992 186.107 64.992C186.629 64.992 187.056 64.848 187.387 64.56C187.728 64.272 187.979 63.8827 188.139 63.392C188.309 62.8907 188.395 62.32 188.395 61.68C188.395 60.6987 188.203 59.9147 187.819 59.328C187.445 58.7413 186.864 58.448 186.075 58.448ZM195.342 57.28C196.388 57.28 197.161 57.5093 197.662 57.968C198.164 58.4267 198.414 59.1573 198.414 60.16V66H197.39L197.118 64.784H197.054C196.809 65.0933 196.553 65.3547 196.286 65.568C196.03 65.7707 195.732 65.92 195.39 66.016C195.06 66.112 194.654 66.16 194.174 66.16C193.662 66.16 193.198 66.0693 192.782 65.888C192.377 65.7067 192.057 65.4293 191.822 65.056C191.588 64.672 191.47 64.192 191.47 63.616C191.47 62.7627 191.806 62.1067 192.478 61.648C193.15 61.1787 194.185 60.9227 195.582 60.88L197.038 60.832V60.32C197.038 59.6053 196.884 59.1093 196.574 58.832C196.265 58.5547 195.828 58.416 195.262 58.416C194.814 58.416 194.388 58.4853 193.982 58.624C193.577 58.752 193.198 58.9013 192.846 59.072L192.414 58.016C192.788 57.8133 193.23 57.6427 193.742 57.504C194.254 57.3547 194.788 57.28 195.342 57.28ZM195.758 61.856C194.692 61.8987 193.95 62.0693 193.534 62.368C193.129 62.6667 192.926 63.088 192.926 63.632C192.926 64.112 193.07 64.464 193.358 64.688C193.657 64.912 194.036 65.024 194.494 65.024C195.22 65.024 195.822 64.8267 196.302 64.432C196.782 64.0267 197.022 63.408 197.022 62.576V61.808L195.758 61.856ZM203.319 57.264C203.97 57.264 204.535 57.3547 205.015 57.536C205.495 57.7067 205.868 57.9627 206.135 58.304C206.402 58.6347 206.535 59.04 206.535 59.52C206.535 60.0427 206.391 60.4587 206.103 60.768C205.815 61.0667 205.42 61.2853 204.919 61.424V61.488C205.26 61.584 205.575 61.7173 205.863 61.888C206.151 62.0587 206.38 62.2827 206.551 62.56C206.732 62.8373 206.823 63.1947 206.823 63.632C206.823 64.1013 206.69 64.528 206.423 64.912C206.167 65.296 205.767 65.6 205.223 65.824C204.69 66.048 204.002 66.16 203.159 66.16C202.754 66.16 202.364 66.1387 201.991 66.096C201.628 66.0533 201.298 65.9893 200.999 65.904C200.711 65.8187 200.455 65.7173 200.231 65.6V64.336C200.594 64.5067 201.02 64.6613 201.511 64.8C202.012 64.9387 202.556 65.008 203.143 65.008C203.57 65.008 203.954 64.96 204.295 64.864C204.647 64.768 204.924 64.6187 205.127 64.416C205.33 64.2027 205.431 63.9147 205.431 63.552C205.431 63.2213 205.34 62.9547 205.159 62.752C204.978 62.5387 204.706 62.3787 204.343 62.272C203.991 62.1653 203.538 62.112 202.983 62.112H201.831V60.96H202.759C203.495 60.96 204.082 60.864 204.519 60.672C204.967 60.4693 205.191 60.128 205.191 59.648C205.191 59.2427 205.02 58.9387 204.679 58.736C204.348 58.5333 203.868 58.432 203.239 58.432C202.77 58.432 202.354 58.48 201.991 58.576C201.639 58.6613 201.25 58.7947 200.823 58.976L200.327 57.856C200.786 57.6533 201.266 57.504 201.767 57.408C202.268 57.312 202.786 57.264 203.319 57.264ZM212.987 57.264C214.043 57.264 214.891 57.632 215.531 58.368C216.182 59.104 216.507 60.2133 216.507 61.696C216.507 62.6667 216.358 63.488 216.059 64.16C215.771 64.8213 215.36 65.3227 214.827 65.664C214.304 65.9947 213.686 66.16 212.971 66.16C212.534 66.16 212.144 66.1013 211.803 65.984C211.462 65.8667 211.168 65.7173 210.923 65.536C210.688 65.344 210.486 65.136 210.315 64.912H210.219C210.24 65.0933 210.262 65.3227 210.283 65.6C210.304 65.8773 210.315 66.1173 210.315 66.32V69.84H208.907V57.424H210.059L210.251 58.592H210.315C210.486 58.3467 210.688 58.1227 210.923 57.92C211.168 57.7173 211.456 57.5573 211.787 57.44C212.128 57.3227 212.528 57.264 212.987 57.264ZM212.731 58.448C212.155 58.448 211.691 58.56 211.339 58.784C210.987 58.9973 210.731 59.3227 210.571 59.76C210.411 60.1973 210.326 60.752 210.315 61.424V61.696C210.315 62.4 210.39 62.9973 210.539 63.488C210.688 63.9787 210.939 64.352 211.291 64.608C211.654 64.864 212.144 64.992 212.763 64.992C213.286 64.992 213.712 64.848 214.043 64.56C214.384 64.272 214.635 63.8827 214.795 63.392C214.966 62.8907 215.051 62.32 215.051 61.68C215.051 60.6987 214.859 59.9147 214.475 59.328C214.102 58.7413 213.52 58.448 212.731 58.448ZM221.999 57.28C223.044 57.28 223.817 57.5093 224.319 57.968C224.82 58.4267 225.071 59.1573 225.071 60.16V66H224.047L223.775 64.784H223.711C223.465 65.0933 223.209 65.3547 222.943 65.568C222.687 65.7707 222.388 65.92 222.047 66.016C221.716 66.112 221.311 66.16 220.831 66.16C220.319 66.16 219.855 66.0693 219.439 65.888C219.033 65.7067 218.713 65.4293 218.479 65.056C218.244 64.672 218.127 64.192 218.127 63.616C218.127 62.7627 218.463 62.1067 219.135 61.648C219.807 61.1787 220.841 60.9227 222.239 60.88L223.695 60.832V60.32C223.695 59.6053 223.54 59.1093 223.231 58.832C222.921 58.5547 222.484 58.416 221.919 58.416C221.471 58.416 221.044 58.4853 220.639 58.624C220.233 58.752 219.855 58.9013 219.503 59.072L219.071 58.016C219.444 57.8133 219.887 57.6427 220.399 57.504C220.911 57.3547 221.444 57.28 221.999 57.28ZM222.415 61.856C221.348 61.8987 220.607 62.0693 220.191 62.368C219.785 62.6667 219.583 63.088 219.583 63.632C219.583 64.112 219.727 64.464 220.015 64.688C220.313 64.912 220.692 65.024 221.151 65.024C221.876 65.024 222.479 64.8267 222.959 64.432C223.439 64.0267 223.679 63.408 223.679 62.576V61.808L222.415 61.856ZM227.271 60.848C227.271 59.6 227.394 58.5387 227.639 57.664C227.895 56.7787 228.285 56.0747 228.807 55.552C229.341 55.0187 230.023 54.6613 230.855 54.48C231.549 54.3307 232.226 54.1973 232.887 54.08C233.549 53.9627 234.167 53.856 234.743 53.76L234.983 54.992C234.706 55.0347 234.397 55.088 234.055 55.152C233.714 55.2053 233.367 55.264 233.015 55.328C232.663 55.3813 232.322 55.44 231.991 55.504C231.671 55.5573 231.389 55.6107 231.143 55.664C230.791 55.7387 230.477 55.8667 230.199 56.048C229.922 56.2187 229.682 56.4533 229.479 56.752C229.287 57.0507 229.133 57.4187 229.015 57.856C228.898 58.2933 228.829 58.8107 228.807 59.408H228.903C229.053 59.2053 229.255 58.9973 229.511 58.784C229.778 58.5707 230.093 58.3893 230.455 58.24C230.829 58.0907 231.25 58.016 231.719 58.016C232.466 58.016 233.085 58.1813 233.575 58.512C234.077 58.832 234.45 59.28 234.695 59.856C234.951 60.432 235.079 61.104 235.079 61.872C235.079 62.8213 234.914 63.616 234.583 64.256C234.253 64.896 233.794 65.376 233.207 65.696C232.621 66.0053 231.938 66.16 231.159 66.16C230.573 66.16 230.039 66.048 229.559 65.824C229.079 65.5893 228.669 65.248 228.327 64.8C227.986 64.352 227.725 63.7973 227.543 63.136C227.362 62.4747 227.271 61.712 227.271 60.848ZM231.271 64.992C231.741 64.992 232.146 64.896 232.487 64.704C232.839 64.512 233.111 64.1973 233.303 63.76C233.495 63.3227 233.591 62.7413 233.591 62.016C233.591 61.1413 233.426 60.4533 233.095 59.952C232.775 59.44 232.242 59.184 231.495 59.184C231.026 59.184 230.599 59.2907 230.215 59.504C229.831 59.7067 229.511 59.9413 229.255 60.208C228.999 60.4747 228.818 60.6987 228.711 60.88C228.711 61.4027 228.749 61.9093 228.823 62.4C228.898 62.8907 229.026 63.3333 229.207 63.728C229.399 64.112 229.661 64.4213 229.991 64.656C230.333 64.88 230.759 64.992 231.271 64.992ZM244.753 61.696C244.753 62.4107 244.658 63.0453 244.466 63.6C244.284 64.144 244.018 64.608 243.666 64.992C243.324 65.376 242.903 65.6693 242.402 65.872C241.911 66.064 241.362 66.16 240.754 66.16C240.188 66.16 239.666 66.064 239.186 65.872C238.706 65.6693 238.29 65.376 237.938 64.992C237.586 64.608 237.308 64.144 237.106 63.6C236.914 63.0453 236.818 62.4107 236.818 61.696C236.818 60.7467 236.978 59.9467 237.298 59.296C237.618 58.6347 238.076 58.1333 238.674 57.792C239.271 57.44 239.98 57.264 240.802 57.264C241.58 57.264 242.263 57.44 242.85 57.792C243.447 58.1333 243.911 58.6347 244.242 59.296C244.583 59.9467 244.753 60.7467 244.753 61.696ZM238.274 61.696C238.274 62.368 238.359 62.9547 238.53 63.456C238.711 63.9467 238.988 64.3253 239.362 64.592C239.735 64.8587 240.21 64.992 240.786 64.992C241.362 64.992 241.836 64.8587 242.21 64.592C242.583 64.3253 242.855 63.9467 243.026 63.456C243.207 62.9547 243.298 62.368 243.298 61.696C243.298 61.0133 243.207 60.432 243.026 59.952C242.844 59.472 242.567 59.104 242.194 58.848C241.831 58.5813 241.356 58.448 240.77 58.448C239.895 58.448 239.26 58.736 238.866 59.312C238.471 59.888 238.274 60.6827 238.274 61.696ZM252.749 58.608H249.949V66H248.557V58.608H245.789V57.424H252.749V58.608ZM257.686 57.28C258.731 57.28 259.505 57.5093 260.006 57.968C260.507 58.4267 260.758 59.1573 260.758 60.16V66H259.734L259.462 64.784H259.398C259.153 65.0933 258.897 65.3547 258.63 65.568C258.374 65.7707 258.075 65.92 257.734 66.016C257.403 66.112 256.998 66.16 256.518 66.16C256.006 66.16 255.542 66.0693 255.126 65.888C254.721 65.7067 254.401 65.4293 254.166 65.056C253.931 64.672 253.814 64.192 253.814 63.616C253.814 62.7627 254.15 62.1067 254.822 61.648C255.494 61.1787 256.529 60.9227 257.926 60.88L259.382 60.832V60.32C259.382 59.6053 259.227 59.1093 258.918 58.832C258.609 58.5547 258.171 58.416 257.606 58.416C257.158 58.416 256.731 58.4853 256.326 58.624C255.921 58.752 255.542 58.9013 255.19 59.072L254.758 58.016C255.131 57.8133 255.574 57.6427 256.086 57.504C256.598 57.3547 257.131 57.28 257.686 57.28ZM258.102 61.856C257.035 61.8987 256.294 62.0693 255.878 62.368C255.473 62.6667 255.27 63.088 255.27 63.632C255.27 64.112 255.414 64.464 255.702 64.688C256.001 64.912 256.379 65.024 256.838 65.024C257.563 65.024 258.166 64.8267 258.646 64.432C259.126 64.0267 259.366 63.408 259.366 62.576V61.808L258.102 61.856ZM264.815 57.424V60.992H269.471V57.424H270.879V66H269.471V62.176H264.815V66H263.407V57.424H264.815ZM8.256 85.584C8.256 86.1173 8.096 86.5333 7.776 86.832C7.456 87.1307 7.04533 87.3333 6.544 87.44V87.504C7.07733 87.5787 7.54133 87.7707 7.936 88.08C8.33067 88.3787 8.528 88.848 8.528 89.488C8.528 89.8507 8.45867 90.1867 8.32 90.496C8.192 90.8053 7.98933 91.072 7.712 91.296C7.43467 91.52 7.07733 91.696 6.64 91.824C6.20267 91.9413 5.67467 92 5.056 92H1.36V83.424H5.04C5.648 83.424 6.192 83.4933 6.672 83.632C7.16267 83.76 7.54667 83.984 7.824 84.304C8.112 84.6133 8.256 85.04 8.256 85.584ZM7.072 89.488C7.072 88.9973 6.88533 88.6453 6.512 88.432C6.13867 88.2187 5.58933 88.112 4.864 88.112H2.768V90.864H4.896C5.6 90.864 6.13867 90.7627 6.512 90.56C6.88533 90.3467 7.072 89.9893 7.072 89.488ZM6.832 85.76C6.832 85.3547 6.68267 85.0613 6.384 84.88C6.096 84.688 5.62133 84.592 4.96 84.592H2.768V86.944H4.704C5.39733 86.944 5.92533 86.848 6.288 86.656C6.65067 86.464 6.832 86.1653 6.832 85.76ZM19.9164 83.424H21.4524L17.7884 87.552L21.7564 92H20.1244L16.2524 87.648V92H14.8444V83.424H16.2524V87.584L19.9164 83.424ZM26.5611 83.28C27.6065 83.28 28.3798 83.5093 28.8811 83.968C29.3825 84.4267 29.6331 85.1573 29.6331 86.16V92H28.6091L28.3371 90.784H28.2731C28.0278 91.0933 27.7718 91.3547 27.5051 91.568C27.2491 91.7707 26.9505 91.92 26.6091 92.016C26.2785 92.112 25.8731 92.16 25.3931 92.16C24.8811 92.16 24.4171 92.0693 24.0011 91.888C23.5958 91.7067 23.2758 91.4293 23.0411 91.056C22.8065 90.672 22.6891 90.192 22.6891 89.616C22.6891 88.7627 23.0251 88.1067 23.6971 87.648C24.3691 87.1787 25.4038 86.9227 26.8011 86.88L28.2571 86.832V86.32C28.2571 85.6053 28.1025 85.1093 27.7931 84.832C27.4838 84.5547 27.0465 84.416 26.4811 84.416C26.0331 84.416 25.6065 84.4853 25.2011 84.624C24.7958 84.752 24.4171 84.9013 24.0651 85.072L23.6331 84.016C24.0065 83.8133 24.4491 83.6427 24.9611 83.504C25.4731 83.3547 26.0065 83.28 26.5611 83.28ZM26.9771 87.856C25.9105 87.8987 25.1691 88.0693 24.7531 88.368C24.3478 88.6667 24.1451 89.088 24.1451 89.632C24.1451 90.112 24.2891 90.464 24.5771 90.688C24.8758 90.912 25.2545 91.024 25.7131 91.024C26.4385 91.024 27.0411 90.8267 27.5211 90.432C28.0011 90.0267 28.2411 89.408 28.2411 88.576V87.808L26.9771 87.856ZM33.5139 86.544C33.5139 87.0453 33.6525 87.4187 33.9299 87.664C34.2179 87.8987 34.6285 88.016 35.1619 88.016C35.6952 88.016 36.1805 87.936 36.6179 87.776C37.0552 87.6053 37.5032 87.3813 37.9619 87.104V83.424H39.3699V92H37.9619V88.176C37.4819 88.4853 37.0072 88.7307 36.5379 88.912C36.0792 89.0827 35.5245 89.168 34.8739 89.168C33.9992 89.168 33.3165 88.9387 32.8259 88.48C32.3459 88.0213 32.1059 87.408 32.1059 86.64V83.424H33.5139V86.544ZM45.4064 83.264C46.1424 83.264 46.7717 83.424 47.2944 83.744C47.8277 84.064 48.233 84.5173 48.5104 85.104C48.7984 85.68 48.9424 86.3573 48.9424 87.136V87.984H43.0704C43.0917 88.9547 43.337 89.696 43.8064 90.208C44.2864 90.7093 44.953 90.96 45.8064 90.96C46.3504 90.96 46.8304 90.912 47.2464 90.816C47.673 90.7093 48.1104 90.56 48.5584 90.368V91.6C48.121 91.792 47.689 91.9307 47.2624 92.016C46.8357 92.112 46.329 92.16 45.7424 92.16C44.9317 92.16 44.2117 91.9947 43.5824 91.664C42.9637 91.3333 42.4784 90.8427 42.1264 90.192C41.785 89.5307 41.6144 88.7253 41.6144 87.776C41.6144 86.8373 41.769 86.032 42.0784 85.36C42.3984 84.688 42.841 84.1707 43.4064 83.808C43.9824 83.4453 44.649 83.264 45.4064 83.264ZM45.3904 84.416C44.7184 84.416 44.185 84.6347 43.7904 85.072C43.4064 85.4987 43.177 86.096 43.1024 86.864H47.4704C47.4704 86.3733 47.3957 85.9467 47.2464 85.584C47.097 85.2213 46.8677 84.9387 46.5584 84.736C46.2597 84.5227 45.8704 84.416 45.3904 84.416ZM54.5656 92.16C53.8083 92.16 53.131 92.0053 52.5336 91.696C51.947 91.3867 51.483 90.9067 51.1416 90.256C50.811 89.6053 50.6456 88.7733 50.6456 87.76C50.6456 86.704 50.8216 85.8453 51.1736 85.184C51.5256 84.5227 52.0003 84.0373 52.5976 83.728C53.2056 83.4187 53.8936 83.264 54.6616 83.264C55.099 83.264 55.5203 83.312 55.9256 83.408C56.331 83.4933 56.6616 83.6 56.9176 83.728L56.4856 84.896C56.2296 84.8 55.931 84.7093 55.5896 84.624C55.2483 84.5387 54.9283 84.496 54.6296 84.496C54.0536 84.496 53.579 84.6187 53.2056 84.864C52.8323 85.1093 52.555 85.472 52.3736 85.952C52.1923 86.432 52.1016 87.0293 52.1016 87.744C52.1016 88.4267 52.1923 89.008 52.3736 89.488C52.555 89.968 52.827 90.3307 53.1896 90.576C53.5523 90.8213 54.0056 90.944 54.5496 90.944C55.019 90.944 55.4296 90.896 55.7816 90.8C56.1443 90.704 56.475 90.5867 56.7736 90.448V91.696C56.4856 91.8453 56.1656 91.9573 55.8136 92.032C55.4723 92.1173 55.0563 92.16 54.5656 92.16ZM64.7331 84.608H61.9331V92H60.5411V84.608H57.7731V83.424H64.7331V84.608ZM73.3185 85.584C73.3185 86.1173 73.1585 86.5333 72.8385 86.832C72.5185 87.1307 72.1078 87.3333 71.6065 87.44V87.504C72.1398 87.5787 72.6038 87.7707 72.9985 88.08C73.3932 88.3787 73.5905 88.848 73.5905 89.488C73.5905 89.8507 73.5212 90.1867 73.3825 90.496C73.2545 90.8053 73.0518 91.072 72.7745 91.296C72.4972 91.52 72.1398 91.696 71.7025 91.824C71.2652 91.9413 70.7372 92 70.1185 92H66.4225V83.424H70.1025C70.7105 83.424 71.2545 83.4933 71.7345 83.632C72.2252 83.76 72.6092 83.984 72.8865 84.304C73.1745 84.6133 73.3185 85.04 73.3185 85.584ZM72.1345 89.488C72.1345 88.9973 71.9478 88.6453 71.5745 88.432C71.2012 88.2187 70.6518 88.112 69.9265 88.112H67.8305V90.864H69.9585C70.6625 90.864 71.2012 90.7627 71.5745 90.56C71.9478 90.3467 72.1345 89.9893 72.1345 89.488ZM71.8945 85.76C71.8945 85.3547 71.7452 85.0613 71.4465 84.88C71.1585 84.688 70.6838 84.592 70.0225 84.592H67.8305V86.944H69.7665C70.4598 86.944 70.9878 86.848 71.3505 86.656C71.7132 86.464 71.8945 86.1653 71.8945 85.76ZM78.9533 83.264C79.6893 83.264 80.3186 83.424 80.8413 83.744C81.3746 84.064 81.7799 84.5173 82.0573 85.104C82.3453 85.68 82.4893 86.3573 82.4893 87.136V87.984H76.6173C76.6386 88.9547 76.8839 89.696 77.3533 90.208C77.8333 90.7093 78.4999 90.96 79.3533 90.96C79.8973 90.96 80.3773 90.912 80.7933 90.816C81.2199 90.7093 81.6573 90.56 82.1053 90.368V91.6C81.6679 91.792 81.2359 91.9307 80.8093 92.016C80.3826 92.112 79.8759 92.16 79.2893 92.16C78.4786 92.16 77.7586 91.9947 77.1293 91.664C76.5106 91.3333 76.0253 90.8427 75.6733 90.192C75.3319 89.5307 75.1613 88.7253 75.1613 87.776C75.1613 86.8373 75.3159 86.032 75.6253 85.36C75.9453 84.688 76.3879 84.1707 76.9533 83.808C77.5293 83.4453 78.1959 83.264 78.9533 83.264ZM78.9373 84.416C78.2653 84.416 77.7319 84.6347 77.3373 85.072C76.9533 85.4987 76.7239 86.096 76.6493 86.864H81.0173C81.0173 86.3733 80.9426 85.9467 80.7933 85.584C80.6439 85.2213 80.4146 84.9387 80.1053 84.736C79.8066 84.5227 79.4173 84.416 78.9373 84.416ZM94.0101 83.424H95.5461L91.8821 87.552L95.8501 92H94.2181L90.3461 87.648V92H88.9381V83.424H90.3461V87.584L94.0101 83.424ZM96.0629 83.424H97.5669L99.4229 88.304C99.5295 88.592 99.6255 88.8693 99.7109 89.136C99.8069 89.4027 99.8922 89.664 99.9669 89.92C100.042 90.1653 100.1 90.4053 100.143 90.64H100.207C100.271 90.3733 100.372 90.0267 100.511 89.6C100.65 89.1627 100.794 88.7253 100.943 88.288L102.687 83.424H104.207L100.511 93.184C100.308 93.7173 100.068 94.1813 99.7909 94.576C99.5242 94.9813 99.1935 95.2907 98.7989 95.504C98.4149 95.728 97.9455 95.84 97.3909 95.84C97.1349 95.84 96.9109 95.824 96.7189 95.792C96.5269 95.7707 96.3615 95.744 96.2229 95.712V94.592C96.3402 94.6133 96.4789 94.6347 96.6389 94.656C96.8095 94.6773 96.9855 94.688 97.1669 94.688C97.4975 94.688 97.7802 94.624 98.0149 94.496C98.2602 94.3787 98.4682 94.2027 98.6389 93.968C98.8095 93.744 98.9535 93.4773 99.0709 93.168L99.5189 92.032L96.0629 83.424ZM109.643 83.264C110.699 83.264 111.547 83.632 112.187 84.368C112.838 85.104 113.163 86.2133 113.163 87.696C113.163 88.6667 113.014 89.488 112.715 90.16C112.427 90.8213 112.016 91.3227 111.483 91.664C110.96 91.9947 110.342 92.16 109.627 92.16C109.19 92.16 108.8 92.1013 108.459 91.984C108.118 91.8667 107.824 91.7173 107.579 91.536C107.344 91.344 107.142 91.136 106.971 90.912H106.875C106.896 91.0933 106.918 91.3227 106.939 91.6C106.96 91.8773 106.971 92.1173 106.971 92.32V95.84H105.563V83.424H106.715L106.907 84.592H106.971C107.142 84.3467 107.344 84.1227 107.579 83.92C107.824 83.7173 108.112 83.5573 108.443 83.44C108.784 83.3227 109.184 83.264 109.643 83.264ZM109.387 84.448C108.811 84.448 108.347 84.56 107.995 84.784C107.643 84.9973 107.387 85.3227 107.227 85.76C107.067 86.1973 106.982 86.752 106.971 87.424V87.696C106.971 88.4 107.046 88.9973 107.195 89.488C107.344 89.9787 107.595 90.352 107.947 90.608C108.31 90.864 108.8 90.992 109.419 90.992C109.942 90.992 110.368 90.848 110.699 90.56C111.04 90.272 111.291 89.8827 111.451 89.392C111.622 88.8907 111.707 88.32 111.707 87.68C111.707 86.6987 111.515 85.9147 111.131 85.328C110.758 84.7413 110.176 84.448 109.387 84.448ZM118.847 92.16C118.09 92.16 117.412 92.0053 116.815 91.696C116.228 91.3867 115.764 90.9067 115.423 90.256C115.092 89.6053 114.927 88.7733 114.927 87.76C114.927 86.704 115.103 85.8453 115.455 85.184C115.807 84.5227 116.282 84.0373 116.879 83.728C117.487 83.4187 118.175 83.264 118.943 83.264C119.38 83.264 119.802 83.312 120.207 83.408C120.612 83.4933 120.943 83.6 121.199 83.728L120.767 84.896C120.511 84.8 120.212 84.7093 119.871 84.624C119.53 84.5387 119.21 84.496 118.911 84.496C118.335 84.496 117.86 84.6187 117.487 84.864C117.114 85.1093 116.836 85.472 116.655 85.952C116.474 86.432 116.383 87.0293 116.383 87.744C116.383 88.4267 116.474 89.008 116.655 89.488C116.836 89.968 117.108 90.3307 117.471 90.576C117.834 90.8213 118.287 90.944 118.831 90.944C119.3 90.944 119.711 90.896 120.063 90.8C120.426 90.704 120.756 90.5867 121.055 90.448V91.696C120.767 91.8453 120.447 91.9573 120.095 92.032C119.754 92.1173 119.338 92.16 118.847 92.16ZM130.55 87.696C130.55 88.4107 130.454 89.0453 130.262 89.6C130.081 90.144 129.814 90.608 129.462 90.992C129.121 91.376 128.7 91.6693 128.198 91.872C127.708 92.064 127.158 92.16 126.55 92.16C125.985 92.16 125.462 92.064 124.982 91.872C124.502 91.6693 124.086 91.376 123.734 90.992C123.382 90.608 123.105 90.144 122.902 89.6C122.71 89.0453 122.614 88.4107 122.614 87.696C122.614 86.7467 122.774 85.9467 123.094 85.296C123.414 84.6347 123.873 84.1333 124.47 83.792C125.068 83.44 125.777 83.264 126.598 83.264C127.377 83.264 128.06 83.44 128.646 83.792C129.244 84.1333 129.708 84.6347 130.038 85.296C130.38 85.9467 130.55 86.7467 130.55 87.696ZM124.07 87.696C124.07 88.368 124.156 88.9547 124.326 89.456C124.508 89.9467 124.785 90.3253 125.158 90.592C125.532 90.8587 126.006 90.992 126.582 90.992C127.158 90.992 127.633 90.8587 128.006 90.592C128.38 90.3253 128.652 89.9467 128.822 89.456C129.004 88.9547 129.094 88.368 129.094 87.696C129.094 87.0133 129.004 86.432 128.822 85.952C128.641 85.472 128.364 85.104 127.99 84.848C127.628 84.5813 127.153 84.448 126.566 84.448C125.692 84.448 125.057 84.736 124.662 85.312C124.268 85.888 124.07 86.6827 124.07 87.696ZM139.678 85.584C139.678 86.1173 139.518 86.5333 139.198 86.832C138.878 87.1307 138.467 87.3333 137.966 87.44V87.504C138.499 87.5787 138.963 87.7707 139.358 88.08C139.753 88.3787 139.95 88.848 139.95 89.488C139.95 89.8507 139.881 90.1867 139.742 90.496C139.614 90.8053 139.411 91.072 139.134 91.296C138.857 91.52 138.499 91.696 138.062 91.824C137.625 91.9413 137.097 92 136.478 92H132.782V83.424H136.462C137.07 83.424 137.614 83.4933 138.094 83.632C138.585 83.76 138.969 83.984 139.246 84.304C139.534 84.6133 139.678 85.04 139.678 85.584ZM138.494 89.488C138.494 88.9973 138.307 88.6453 137.934 88.432C137.561 88.2187 137.011 88.112 136.286 88.112H134.19V90.864H136.318C137.022 90.864 137.561 90.7627 137.934 90.56C138.307 90.3467 138.494 89.9893 138.494 89.488ZM138.254 85.76C138.254 85.3547 138.105 85.0613 137.806 84.88C137.518 84.688 137.043 84.592 136.382 84.592H134.19V86.944H136.126C136.819 86.944 137.347 86.848 137.71 86.656C138.073 86.464 138.254 86.1653 138.254 85.76ZM149.457 87.696C149.457 88.4107 149.361 89.0453 149.169 89.6C148.987 90.144 148.721 90.608 148.369 90.992C148.027 91.376 147.606 91.6693 147.105 91.872C146.614 92.064 146.065 92.16 145.457 92.16C144.891 92.16 144.369 92.064 143.889 91.872C143.409 91.6693 142.993 91.376 142.641 90.992C142.289 90.608 142.011 90.144 141.809 89.6C141.617 89.0453 141.521 88.4107 141.521 87.696C141.521 86.7467 141.681 85.9467 142.001 85.296C142.321 84.6347 142.779 84.1333 143.377 83.792C143.974 83.44 144.683 83.264 145.505 83.264C146.283 83.264 146.966 83.44 147.553 83.792C148.15 84.1333 148.614 84.6347 148.945 85.296C149.286 85.9467 149.457 86.7467 149.457 87.696ZM142.977 87.696C142.977 88.368 143.062 88.9547 143.233 89.456C143.414 89.9467 143.691 90.3253 144.065 90.592C144.438 90.8587 144.913 90.992 145.489 90.992C146.065 90.992 146.539 90.8587 146.913 90.592C147.286 90.3253 147.558 89.9467 147.729 89.456C147.91 88.9547 148.001 88.368 148.001 87.696C148.001 87.0133 147.91 86.432 147.729 85.952C147.547 85.472 147.27 85.104 146.897 84.848C146.534 84.5813 146.059 84.448 145.473 84.448C144.598 84.448 143.963 84.736 143.569 85.312C143.174 85.888 142.977 86.6827 142.977 87.696ZM158.632 79.872C158.589 80.4053 158.456 80.8533 158.232 81.216C158.019 81.5787 157.699 81.8507 157.272 82.032C156.845 82.2133 156.291 82.304 155.608 82.304C154.915 82.304 154.355 82.2133 153.928 82.032C153.512 81.8507 153.208 81.584 153.016 81.232C152.824 80.8693 152.707 80.416 152.664 79.872H153.976C154.029 80.448 154.179 80.8373 154.424 81.04C154.68 81.232 155.085 81.328 155.64 81.328C156.131 81.328 156.515 81.2267 156.792 81.024C157.08 80.8107 157.251 80.4267 157.304 79.872H158.632ZM153.016 88.656C153.016 88.752 153.011 88.8907 153 89.072C153 89.2427 152.995 89.4293 152.984 89.632C152.973 89.824 152.963 90.0107 152.952 90.192C152.941 90.3627 152.931 90.5013 152.92 90.608L157.512 83.424H159.24V92H157.928V86.944C157.928 86.7733 157.928 86.5493 157.928 86.272C157.939 85.9947 157.949 85.7227 157.96 85.456C157.971 85.1787 157.981 84.9707 157.992 84.832L153.432 92H151.688V83.424H153.016V88.656ZM170.315 83.264C171.371 83.264 172.219 83.632 172.859 84.368C173.51 85.104 173.835 86.2133 173.835 87.696C173.835 88.6667 173.686 89.488 173.387 90.16C173.099 90.8213 172.688 91.3227 172.155 91.664C171.632 91.9947 171.014 92.16 170.299 92.16C169.862 92.16 169.472 92.1013 169.131 91.984C168.79 91.8667 168.496 91.7173 168.251 91.536C168.016 91.344 167.814 91.136 167.643 90.912H167.547C167.568 91.0933 167.59 91.3227 167.611 91.6C167.632 91.8773 167.643 92.1173 167.643 92.32V95.84H166.235V83.424H167.387L167.579 84.592H167.643C167.814 84.3467 168.016 84.1227 168.251 83.92C168.496 83.7173 168.784 83.5573 169.115 83.44C169.456 83.3227 169.856 83.264 170.315 83.264ZM170.059 84.448C169.483 84.448 169.019 84.56 168.667 84.784C168.315 84.9973 168.059 85.3227 167.899 85.76C167.739 86.1973 167.654 86.752 167.643 87.424V87.696C167.643 88.4 167.718 88.9973 167.867 89.488C168.016 89.9787 168.267 90.352 168.619 90.608C168.982 90.864 169.472 90.992 170.091 90.992C170.614 90.992 171.04 90.848 171.371 90.56C171.712 90.272 171.963 89.8827 172.123 89.392C172.294 88.8907 172.379 88.32 172.379 87.68C172.379 86.6987 172.187 85.9147 171.803 85.328C171.43 84.7413 170.848 84.448 170.059 84.448ZM179.327 83.28C180.372 83.28 181.145 83.5093 181.647 83.968C182.148 84.4267 182.399 85.1573 182.399 86.16V92H181.375L181.103 90.784H181.039C180.793 91.0933 180.537 91.3547 180.271 91.568C180.015 91.7707 179.716 91.92 179.375 92.016C179.044 92.112 178.639 92.16 178.159 92.16C177.647 92.16 177.183 92.0693 176.767 91.888C176.361 91.7067 176.041 91.4293 175.807 91.056C175.572 90.672 175.455 90.192 175.455 89.616C175.455 88.7627 175.791 88.1067 176.463 87.648C177.135 87.1787 178.169 86.9227 179.567 86.88L181.023 86.832V86.32C181.023 85.6053 180.868 85.1093 180.559 84.832C180.249 84.5547 179.812 84.416 179.247 84.416C178.799 84.416 178.372 84.4853 177.967 84.624C177.561 84.752 177.183 84.9013 176.831 85.072L176.399 84.016C176.772 83.8133 177.215 83.6427 177.727 83.504C178.239 83.3547 178.772 83.28 179.327 83.28ZM179.743 87.856C178.676 87.8987 177.935 88.0693 177.519 88.368C177.113 88.6667 176.911 89.088 176.911 89.632C176.911 90.112 177.055 90.464 177.343 90.688C177.641 90.912 178.02 91.024 178.479 91.024C179.204 91.024 179.807 90.8267 180.287 90.432C180.767 90.0267 181.007 89.408 181.007 88.576V87.808L179.743 87.856ZM184.6 86.848C184.6 85.6 184.722 84.5387 184.968 83.664C185.224 82.7787 185.613 82.0747 186.136 81.552C186.669 81.0187 187.352 80.6613 188.184 80.48C188.877 80.3307 189.554 80.1973 190.216 80.08C190.877 79.9627 191.496 79.856 192.072 79.76L192.312 80.992C192.034 81.0347 191.725 81.088 191.384 81.152C191.042 81.2053 190.696 81.264 190.344 81.328C189.992 81.3813 189.65 81.44 189.32 81.504C189 81.5573 188.717 81.6107 188.472 81.664C188.12 81.7387 187.805 81.8667 187.528 82.048C187.25 82.2187 187.01 82.4533 186.808 82.752C186.616 83.0507 186.461 83.4187 186.344 83.856C186.226 84.2933 186.157 84.8107 186.136 85.408H186.232C186.381 85.2053 186.584 84.9973 186.84 84.784C187.106 84.5707 187.421 84.3893 187.784 84.24C188.157 84.0907 188.578 84.016 189.048 84.016C189.794 84.016 190.413 84.1813 190.904 84.512C191.405 84.832 191.778 85.28 192.024 85.856C192.28 86.432 192.408 87.104 192.408 87.872C192.408 88.8213 192.242 89.616 191.911 90.256C191.581 90.896 191.122 91.376 190.536 91.696C189.949 92.0053 189.266 92.16 188.488 92.16C187.901 92.16 187.368 92.048 186.888 91.824C186.408 91.5893 185.997 91.248 185.656 90.8C185.314 90.352 185.053 89.7973 184.872 89.136C184.69 88.4747 184.6 87.712 184.6 86.848ZM188.6 90.992C189.069 90.992 189.474 90.896 189.816 90.704C190.168 90.512 190.44 90.1973 190.632 89.76C190.824 89.3227 190.92 88.7413 190.92 88.016C190.92 87.1413 190.754 86.4533 190.424 85.952C190.104 85.44 189.57 85.184 188.824 85.184C188.354 85.184 187.928 85.2907 187.544 85.504C187.16 85.7067 186.84 85.9413 186.584 86.208C186.328 86.4747 186.146 86.6987 186.039 86.88C186.039 87.4027 186.077 87.9093 186.152 88.4C186.226 88.8907 186.354 89.3333 186.536 89.728C186.728 90.112 186.989 90.4213 187.32 90.656C187.661 90.88 188.088 90.992 188.6 90.992ZM202.082 87.696C202.082 88.4107 201.986 89.0453 201.794 89.6C201.612 90.144 201.346 90.608 200.994 90.992C200.652 91.376 200.231 91.6693 199.73 91.872C199.239 92.064 198.69 92.16 198.082 92.16C197.516 92.16 196.994 92.064 196.514 91.872C196.034 91.6693 195.618 91.376 195.266 90.992C194.914 90.608 194.636 90.144 194.434 89.6C194.242 89.0453 194.146 88.4107 194.146 87.696C194.146 86.7467 194.306 85.9467 194.626 85.296C194.946 84.6347 195.404 84.1333 196.002 83.792C196.599 83.44 197.308 83.264 198.13 83.264C198.908 83.264 199.591 83.44 200.178 83.792C200.775 84.1333 201.239 84.6347 201.57 85.296C201.911 85.9467 202.082 86.7467 202.082 87.696ZM195.602 87.696C195.602 88.368 195.687 88.9547 195.858 89.456C196.039 89.9467 196.316 90.3253 196.69 90.592C197.063 90.8587 197.538 90.992 198.114 90.992C198.69 90.992 199.164 90.8587 199.538 90.592C199.911 90.3253 200.183 89.9467 200.354 89.456C200.535 88.9547 200.626 88.368 200.626 87.696C200.626 87.0133 200.535 86.432 200.354 85.952C200.172 85.472 199.895 85.104 199.522 84.848C199.159 84.5813 198.684 84.448 198.098 84.448C197.223 84.448 196.588 84.736 196.194 85.312C195.799 85.888 195.602 86.6827 195.602 87.696ZM210.077 84.608H207.277V92H205.885V84.608H203.117V83.424H210.077V84.608ZM211.766 92V83.424H213.174V86.944H215.398C216.145 86.944 216.758 87.0347 217.238 87.216C217.718 87.3973 218.076 87.6693 218.31 88.032C218.545 88.384 218.662 88.832 218.662 89.376C218.662 89.9093 218.545 90.3733 218.31 90.768C218.086 91.1627 217.729 91.4667 217.238 91.68C216.758 91.8933 216.124 92 215.334 92H211.766ZM215.206 90.864C215.814 90.864 216.31 90.7627 216.694 90.56C217.078 90.3467 217.27 89.9787 217.27 89.456C217.27 88.9333 217.094 88.5813 216.742 88.4C216.39 88.208 215.884 88.112 215.222 88.112H213.174V90.864H215.206ZM220.086 92V83.424H221.494V92H220.086ZM229.893 83.424V86.992H234.549V83.424H235.957V92H234.549V88.176H229.893V92H228.485V83.424H229.893ZM241.921 83.28C242.966 83.28 243.739 83.5093 244.241 83.968C244.742 84.4267 244.993 85.1573 244.993 86.16V92H243.969L243.697 90.784H243.633C243.387 91.0933 243.131 91.3547 242.865 91.568C242.609 91.7707 242.31 91.92 241.969 92.016C241.638 92.112 241.233 92.16 240.753 92.16C240.241 92.16 239.777 92.0693 239.361 91.888C238.955 91.7067 238.635 91.4293 238.401 91.056C238.166 90.672 238.049 90.192 238.049 89.616C238.049 88.7627 238.385 88.1067 239.057 87.648C239.729 87.1787 240.763 86.9227 242.161 86.88L243.617 86.832V86.32C243.617 85.6053 243.462 85.1093 243.153 84.832C242.843 84.5547 242.406 84.416 241.841 84.416C241.393 84.416 240.966 84.4853 240.561 84.624C240.155 84.752 239.777 84.9013 239.424 85.072L238.993 84.016C239.366 83.8133 239.809 83.6427 240.321 83.504C240.833 83.3547 241.366 83.28 241.921 83.28ZM242.337 87.856C241.27 87.8987 240.529 88.0693 240.113 88.368C239.707 88.6667 239.505 89.088 239.505 89.632C239.505 90.112 239.649 90.464 239.937 90.688C240.235 90.912 240.614 91.024 241.073 91.024C241.798 91.024 242.401 90.8267 242.881 90.432C243.361 90.0267 243.601 89.408 243.601 88.576V87.808L242.337 87.856ZM251.363 90.832C252.718 89.744 253.779 88.8533 254.547 88.16C255.315 87.456 255.96 86.7253 256.483 85.968C257.016 85.2 257.283 84.448 257.283 83.712C257.283 83.0187 257.112 82.4747 256.771 82.08C256.44 81.6747 255.902 81.472 255.155 81.472C254.43 81.472 253.864 81.7013 253.459 82.16C253.064 82.608 252.851 83.2107 252.819 83.968H251.411C251.454 82.7733 251.816 81.8507 252.499 81.2C253.182 80.5493 254.062 80.224 255.139 80.224C256.238 80.224 257.107 80.528 257.747 81.136C258.398 81.744 258.723 82.5813 258.723 83.648C258.723 84.5333 258.456 85.3973 257.923 86.24C257.4 87.072 256.803 87.808 256.131 88.448C255.459 89.0773 254.6 89.8133 253.555 90.656H259.059V91.872H251.363V90.832ZM6.432 109.424H7.968L4.304 113.552L8.272 118H6.64L2.768 113.648V118H1.36V109.424H2.768V113.584L6.432 109.424ZM8.48475 109.424H9.98875L11.8448 114.304C11.9514 114.592 12.0474 114.869 12.1328 115.136C12.2288 115.403 12.3141 115.664 12.3888 115.92C12.4634 116.165 12.5221 116.405 12.5648 116.64H12.6288C12.6928 116.373 12.7941 116.027 12.9328 115.6C13.0714 115.163 13.2154 114.725 13.3648 114.288L15.1088 109.424H16.6288L12.9328 119.184C12.7301 119.717 12.4901 120.181 12.2128 120.576C11.9461 120.981 11.6154 121.291 11.2208 121.504C10.8368 121.728 10.3674 121.84 9.81275 121.84C9.55675 121.84 9.33275 121.824 9.14075 121.792C8.94875 121.771 8.78342 121.744 8.64475 121.712V120.592C8.76208 120.613 8.90075 120.635 9.06075 120.656C9.23142 120.677 9.40742 120.688 9.58875 120.688C9.91942 120.688 10.2021 120.624 10.4368 120.496C10.6821 120.379 10.8901 120.203 11.0608 119.968C11.2314 119.744 11.3754 119.477 11.4928 119.168L11.9408 118.032L8.48475 109.424ZM22.065 109.264C23.121 109.264 23.969 109.632 24.609 110.368C25.2597 111.104 25.585 112.213 25.585 113.696C25.585 114.667 25.4357 115.488 25.137 116.16C24.849 116.821 24.4383 117.323 23.905 117.664C23.3823 117.995 22.7637 118.16 22.049 118.16C21.6117 118.16 21.2223 118.101 20.881 117.984C20.5397 117.867 20.2463 117.717 20.001 117.536C19.7663 117.344 19.5637 117.136 19.393 116.912H19.297C19.3183 117.093 19.3397 117.323 19.361 117.6C19.3823 117.877 19.393 118.117 19.393 118.32V121.84H17.985V109.424H19.137L19.329 110.592H19.393C19.5637 110.347 19.7663 110.123 20.001 109.92C20.2463 109.717 20.5343 109.557 20.865 109.44C21.2063 109.323 21.6063 109.264 22.065 109.264ZM21.809 110.448C21.233 110.448 20.769 110.56 20.417 110.784C20.065 110.997 19.809 111.323 19.649 111.76C19.489 112.197 19.4037 112.752 19.393 113.424V113.696C19.393 114.4 19.4677 114.997 19.617 115.488C19.7663 115.979 20.017 116.352 20.369 116.608C20.7317 116.864 21.2223 116.992 21.841 116.992C22.3637 116.992 22.7903 116.848 23.121 116.56C23.4623 116.272 23.713 115.883 23.873 115.392C24.0437 114.891 24.129 114.32 24.129 113.68C24.129 112.699 23.937 111.915 23.553 111.328C23.1797 110.741 22.5983 110.448 21.809 110.448ZM31.2688 118.16C30.5114 118.16 29.8341 118.005 29.2368 117.696C28.6501 117.387 28.1861 116.907 27.8448 116.256C27.5141 115.605 27.3488 114.773 27.3488 113.76C27.3488 112.704 27.5248 111.845 27.8768 111.184C28.2288 110.523 28.7034 110.037 29.3008 109.728C29.9088 109.419 30.5968 109.264 31.3648 109.264C31.8021 109.264 32.2234 109.312 32.6288 109.408C33.0341 109.493 33.3648 109.6 33.6208 109.728L33.1888 110.896C32.9328 110.8 32.6341 110.709 32.2928 110.624C31.9514 110.539 31.6314 110.496 31.3328 110.496C30.7568 110.496 30.2821 110.619 29.9088 110.864C29.5354 111.109 29.2581 111.472 29.0768 111.952C28.8954 112.432 28.8048 113.029 28.8048 113.744C28.8048 114.427 28.8954 115.008 29.0768 115.488C29.2581 115.968 29.5301 116.331 29.8928 116.576C30.2554 116.821 30.7088 116.944 31.2528 116.944C31.7221 116.944 32.1328 116.896 32.4848 116.8C32.8474 116.704 33.1781 116.587 33.4768 116.448V117.696C33.1888 117.845 32.8688 117.957 32.5168 118.032C32.1754 118.117 31.7594 118.16 31.2688 118.16ZM38.8283 109.264C39.5643 109.264 40.1936 109.424 40.7163 109.744C41.2496 110.064 41.6549 110.517 41.9323 111.104C42.2203 111.68 42.3643 112.357 42.3643 113.136V113.984H36.4923C36.5136 114.955 36.7589 115.696 37.2283 116.208C37.7083 116.709 38.3749 116.96 39.2283 116.96C39.7723 116.96 40.2523 116.912 40.6683 116.816C41.0949 116.709 41.5323 116.56 41.9803 116.368V117.6C41.5429 117.792 41.1109 117.931 40.6843 118.016C40.2576 118.112 39.7509 118.16 39.1643 118.16C38.3536 118.16 37.6336 117.995 37.0043 117.664C36.3856 117.333 35.9003 116.843 35.5483 116.192C35.2069 115.531 35.0363 114.725 35.0363 113.776C35.0363 112.837 35.1909 112.032 35.5003 111.36C35.8203 110.688 36.2629 110.171 36.8283 109.808C37.4043 109.445 38.0709 109.264 38.8283 109.264ZM38.8123 110.416C38.1403 110.416 37.6069 110.635 37.2123 111.072C36.8283 111.499 36.5989 112.096 36.5243 112.864H40.8923C40.8923 112.373 40.8176 111.947 40.6683 111.584C40.5189 111.221 40.2896 110.939 39.9803 110.736C39.6816 110.523 39.2923 110.416 38.8123 110.416ZM56.0611 109.424V118H54.6531V110.624H50.2211V118H48.8131V109.424H56.0611ZM62.8775 109.264C63.9335 109.264 64.7815 109.632 65.4215 110.368C66.0722 111.104 66.3975 112.213 66.3975 113.696C66.3975 114.667 66.2482 115.488 65.9495 116.16C65.6615 116.821 65.2508 117.323 64.7175 117.664C64.1948 117.995 63.5762 118.16 62.8615 118.16C62.4242 118.16 62.0348 118.101 61.6935 117.984C61.3522 117.867 61.0588 117.717 60.8135 117.536C60.5788 117.344 60.3762 117.136 60.2055 116.912H60.1095C60.1308 117.093 60.1522 117.323 60.1735 117.6C60.1948 117.877 60.2055 118.117 60.2055 118.32V121.84H58.7975V109.424H59.9495L60.1415 110.592H60.2055C60.3762 110.347 60.5788 110.123 60.8135 109.92C61.0588 109.717 61.3468 109.557 61.6775 109.44C62.0188 109.323 62.4188 109.264 62.8775 109.264ZM62.6215 110.448C62.0455 110.448 61.5815 110.56 61.2295 110.784C60.8775 110.997 60.6215 111.323 60.4615 111.76C60.3015 112.197 60.2162 112.752 60.2055 113.424V113.696C60.2055 114.4 60.2802 114.997 60.4295 115.488C60.5788 115.979 60.8295 116.352 61.1815 116.608C61.5442 116.864 62.0348 116.992 62.6535 116.992C63.1762 116.992 63.6028 116.848 63.9335 116.56C64.2748 116.272 64.5255 115.883 64.6855 115.392C64.8562 114.891 64.9415 114.32 64.9415 113.68C64.9415 112.699 64.7495 111.915 64.3655 111.328C63.9922 110.741 63.4108 110.448 62.6215 110.448ZM76.0972 113.696C76.0972 114.411 76.0013 115.045 75.8093 115.6C75.6279 116.144 75.3613 116.608 75.0093 116.992C74.6679 117.376 74.2466 117.669 73.7453 117.872C73.2546 118.064 72.7053 118.16 72.0973 118.16C71.5319 118.16 71.0093 118.064 70.5293 117.872C70.0493 117.669 69.6333 117.376 69.2812 116.992C68.9293 116.608 68.6519 116.144 68.4493 115.6C68.2573 115.045 68.1613 114.411 68.1613 113.696C68.1613 112.747 68.3213 111.947 68.6413 111.296C68.9613 110.635 69.4199 110.133 70.0173 109.792C70.6146 109.44 71.3239 109.264 72.1453 109.264C72.9239 109.264 73.6066 109.44 74.1933 109.792C74.7906 110.133 75.2546 110.635 75.5853 111.296C75.9266 111.947 76.0972 112.747 76.0972 113.696ZM69.6173 113.696C69.6173 114.368 69.7026 114.955 69.8733 115.456C70.0546 115.947 70.3319 116.325 70.7053 116.592C71.0786 116.859 71.5533 116.992 72.1293 116.992C72.7053 116.992 73.1799 116.859 73.5533 116.592C73.9266 116.325 74.1986 115.947 74.3693 115.456C74.5506 114.955 74.6413 114.368 74.6413 113.696C74.6413 113.013 74.5506 112.432 74.3693 111.952C74.1879 111.472 73.9106 111.104 73.5373 110.848C73.1746 110.581 72.6999 110.448 72.1133 110.448C71.2386 110.448 70.6039 110.736 70.2093 111.312C69.8146 111.888 69.6173 112.683 69.6173 113.696ZM83.5608 109.424V110.608H79.7368V118H78.3288V109.424H83.5608ZM89.3306 109.264C90.3866 109.264 91.2346 109.632 91.8746 110.368C92.5253 111.104 92.8506 112.213 92.8506 113.696C92.8506 114.667 92.7013 115.488 92.4026 116.16C92.1146 116.821 91.704 117.323 91.1706 117.664C90.648 117.995 90.0293 118.16 89.3146 118.16C88.8773 118.16 88.488 118.101 88.1466 117.984C87.8053 117.867 87.512 117.717 87.2666 117.536C87.032 117.344 86.8293 117.136 86.6586 116.912H86.5626C86.584 117.093 86.6053 117.323 86.6266 117.6C86.648 117.877 86.6586 118.117 86.6586 118.32V121.84H85.2506V109.424H86.4026L86.5946 110.592H86.6586C86.8293 110.347 87.032 110.123 87.2666 109.92C87.512 109.717 87.8 109.557 88.1306 109.44C88.472 109.323 88.872 109.264 89.3306 109.264ZM89.0746 110.448C88.4986 110.448 88.0346 110.56 87.6826 110.784C87.3306 110.997 87.0746 111.323 86.9146 111.76C86.7546 112.197 86.6693 112.752 86.6586 113.424V113.696C86.6586 114.4 86.7333 114.997 86.8826 115.488C87.032 115.979 87.2826 116.352 87.6346 116.608C87.9973 116.864 88.488 116.992 89.1066 116.992C89.6293 116.992 90.056 116.848 90.3866 116.56C90.728 116.272 90.9786 115.883 91.1386 115.392C91.3093 114.891 91.3946 114.32 91.3946 113.68C91.3946 112.699 91.2026 111.915 90.8186 111.328C90.4453 110.741 89.864 110.448 89.0746 110.448ZM98.3424 109.28C99.3877 109.28 100.161 109.509 100.662 109.968C101.164 110.427 101.414 111.157 101.414 112.16V118H100.39L100.118 116.784H100.054C99.809 117.093 99.553 117.355 99.2864 117.568C99.0304 117.771 98.7317 117.92 98.3904 118.016C98.0597 118.112 97.6544 118.16 97.1744 118.16C96.6624 118.16 96.1984 118.069 95.7824 117.888C95.377 117.707 95.057 117.429 94.8224 117.056C94.5877 116.672 94.4704 116.192 94.4704 115.616C94.4704 114.763 94.8064 114.107 95.4784 113.648C96.1504 113.179 97.185 112.923 98.5824 112.88L100.038 112.832V112.32C100.038 111.605 99.8837 111.109 99.5744 110.832C99.265 110.555 98.8277 110.416 98.2624 110.416C97.8144 110.416 97.3877 110.485 96.9824 110.624C96.577 110.752 96.1984 110.901 95.8464 111.072L95.4144 110.016C95.7877 109.813 96.2304 109.643 96.7424 109.504C97.2544 109.355 97.7877 109.28 98.3424 109.28ZM98.7584 113.856C97.6917 113.899 96.9504 114.069 96.5344 114.368C96.129 114.667 95.9264 115.088 95.9264 115.632C95.9264 116.112 96.0704 116.464 96.3584 116.688C96.657 116.912 97.0357 117.024 97.4944 117.024C98.2197 117.024 98.8224 116.827 99.3024 116.432C99.7824 116.027 100.022 115.408 100.022 114.576V113.808L98.7584 113.856ZM113.263 109.424V118H111.999V112.528C111.999 112.304 112.004 112.069 112.015 111.824C112.036 111.579 112.058 111.339 112.079 111.104H112.031L109.231 118H108.047L105.327 111.104H105.279C105.3 111.339 105.311 111.579 105.311 111.824C105.322 112.069 105.327 112.32 105.327 112.576V118H104.063V109.424H105.935L108.639 116.32L111.391 109.424H113.263ZM125.201 109.424V118H123.937V112.528C123.937 112.304 123.942 112.069 123.953 111.824C123.974 111.579 123.995 111.339 124.017 111.104H123.969L121.169 118H119.985L117.265 111.104H117.217C117.238 111.339 117.249 111.579 117.249 111.824C117.259 112.069 117.265 112.32 117.265 112.576V118H116.001V109.424H117.873L120.577 116.32L123.329 109.424H125.201ZM129.346 109.424V112.992H134.002V109.424H135.41V118H134.002V114.176H129.346V118H127.938V109.424H129.346ZM145.582 113.696C145.582 114.411 145.486 115.045 145.294 115.6C145.112 116.144 144.846 116.608 144.494 116.992C144.152 117.376 143.731 117.669 143.23 117.872C142.739 118.064 142.19 118.16 141.582 118.16C141.016 118.16 140.494 118.064 140.014 117.872C139.534 117.669 139.118 117.376 138.766 116.992C138.414 116.608 138.136 116.144 137.934 115.6C137.742 115.045 137.646 114.411 137.646 113.696C137.646 112.747 137.806 111.947 138.126 111.296C138.446 110.635 138.904 110.133 139.502 109.792C140.099 109.44 140.808 109.264 141.63 109.264C142.408 109.264 143.091 109.44 143.678 109.792C144.275 110.133 144.739 110.635 145.07 111.296C145.411 111.947 145.582 112.747 145.582 113.696ZM139.102 113.696C139.102 114.368 139.187 114.955 139.358 115.456C139.539 115.947 139.816 116.325 140.19 116.592C140.563 116.859 141.038 116.992 141.614 116.992C142.19 116.992 142.664 116.859 143.038 116.592C143.411 116.325 143.683 115.947 143.854 115.456C144.035 114.955 144.126 114.368 144.126 113.696C144.126 113.013 144.035 112.432 143.854 111.952C143.672 111.472 143.395 111.104 143.022 110.848C142.659 110.581 142.184 110.448 141.598 110.448C140.723 110.448 140.088 110.736 139.694 111.312C139.299 111.888 139.102 112.683 139.102 113.696ZM154.757 105.872C154.714 106.405 154.581 106.853 154.357 107.216C154.144 107.579 153.824 107.851 153.397 108.032C152.97 108.213 152.416 108.304 151.733 108.304C151.04 108.304 150.48 108.213 150.053 108.032C149.637 107.851 149.333 107.584 149.141 107.232C148.949 106.869 148.832 106.416 148.789 105.872H150.101C150.154 106.448 150.304 106.837 150.549 107.04C150.805 107.232 151.21 107.328 151.765 107.328C152.256 107.328 152.64 107.227 152.917 107.024C153.205 106.811 153.376 106.427 153.429 105.872H154.757ZM149.141 114.656C149.141 114.752 149.136 114.891 149.125 115.072C149.125 115.243 149.12 115.429 149.109 115.632C149.098 115.824 149.088 116.011 149.077 116.192C149.066 116.363 149.056 116.501 149.045 116.608L153.637 109.424H155.365V118H154.053V112.944C154.053 112.773 154.053 112.549 154.053 112.272C154.064 111.995 154.074 111.723 154.085 111.456C154.096 111.179 154.106 110.971 154.117 110.832L149.557 118H147.813V109.424H149.141V114.656ZM163.688 114.656C163.688 114.752 163.683 114.891 163.672 115.072C163.672 115.243 163.667 115.429 163.656 115.632C163.645 115.824 163.635 116.011 163.624 116.192C163.613 116.363 163.603 116.501 163.592 116.608L168.184 109.424H169.912V118H168.6V112.944C168.6 112.773 168.6 112.549 168.6 112.272C168.611 111.995 168.621 111.723 168.632 111.456C168.643 111.179 168.653 110.971 168.664 110.832L164.104 118H162.36V109.424H163.688V114.656ZM174.049 109.424V112.992H178.705V109.424H180.113V118H178.705V114.176H174.049V118H172.641V109.424H174.049ZM193.117 109.424L189.581 113.584L193.421 118H191.821L188.109 113.648V118H186.797V113.648L183.085 118H181.485L185.325 113.584L181.789 109.424H183.325L186.797 113.584V109.424H188.109V113.584L191.597 109.424H193.117ZM197.828 109.264C198.564 109.264 199.194 109.424 199.716 109.744C200.25 110.064 200.655 110.517 200.932 111.104C201.22 111.68 201.364 112.357 201.364 113.136V113.984H195.492C195.514 114.955 195.759 115.696 196.228 116.208C196.708 116.709 197.375 116.96 198.228 116.96C198.772 116.96 199.252 116.912 199.668 116.816C200.095 116.709 200.532 116.56 200.98 116.368V117.6C200.543 117.792 200.111 117.931 199.684 118.016C199.258 118.112 198.751 118.16 198.164 118.16C197.354 118.16 196.634 117.995 196.004 117.664C195.386 117.333 194.9 116.843 194.548 116.192C194.207 115.531 194.036 114.725 194.036 113.776C194.036 112.837 194.191 112.032 194.5 111.36C194.82 110.688 195.263 110.171 195.828 109.808C196.404 109.445 197.071 109.264 197.828 109.264ZM197.812 110.416C197.14 110.416 196.607 110.635 196.212 111.072C195.828 111.499 195.599 112.096 195.524 112.864H199.892C199.892 112.373 199.818 111.947 199.668 111.584C199.519 111.221 199.29 110.939 198.98 110.736C198.682 110.523 198.292 110.416 197.812 110.416ZM204.956 109.424V112.992H209.612V109.424H211.02V118H209.612V114.176H204.956V118H203.548V109.424H204.956ZM217.047 109.264C217.783 109.264 218.412 109.424 218.935 109.744C219.468 110.064 219.874 110.517 220.151 111.104C220.439 111.68 220.583 112.357 220.583 113.136V113.984H214.711C214.732 114.955 214.978 115.696 215.447 116.208C215.927 116.709 216.594 116.96 217.447 116.96C217.991 116.96 218.471 116.912 218.887 116.816C219.314 116.709 219.751 116.56 220.199 116.368V117.6C219.762 117.792 219.33 117.931 218.903 118.016C218.476 118.112 217.97 118.16 217.383 118.16C216.572 118.16 215.852 117.995 215.223 117.664C214.604 117.333 214.119 116.843 213.767 116.192C213.426 115.531 213.255 114.725 213.255 113.776C213.255 112.837 213.41 112.032 213.719 111.36C214.039 110.688 214.482 110.171 215.047 109.808C215.623 109.445 216.29 109.264 217.047 109.264ZM217.031 110.416C216.359 110.416 215.826 110.635 215.431 111.072C215.047 111.499 214.818 112.096 214.743 112.864H219.111C219.111 112.373 219.036 111.947 218.887 111.584C218.738 111.221 218.508 110.939 218.199 110.736C217.9 110.523 217.511 110.416 217.031 110.416ZM226.846 109.264C227.902 109.264 228.75 109.632 229.39 110.368C230.041 111.104 230.366 112.213 230.366 113.696C230.366 114.667 230.217 115.488 229.918 116.16C229.63 116.821 229.22 117.323 228.686 117.664C228.164 117.995 227.545 118.16 226.83 118.16C226.393 118.16 226.004 118.101 225.662 117.984C225.321 117.867 225.028 117.717 224.782 117.536C224.548 117.344 224.345 117.136 224.174 116.912H224.078C224.1 117.093 224.121 117.323 224.142 117.6C224.164 117.877 224.174 118.117 224.174 118.32V121.84H222.766V109.424H223.918L224.11 110.592H224.174C224.345 110.347 224.548 110.123 224.782 109.92C225.028 109.717 225.316 109.557 225.646 109.44C225.988 109.323 226.388 109.264 226.846 109.264ZM226.59 110.448C226.014 110.448 225.55 110.56 225.198 110.784C224.846 110.997 224.59 111.323 224.43 111.76C224.27 112.197 224.185 112.752 224.174 113.424V113.696C224.174 114.4 224.249 114.997 224.398 115.488C224.548 115.979 224.798 116.352 225.15 116.608C225.513 116.864 226.004 116.992 226.622 116.992C227.145 116.992 227.572 116.848 227.902 116.56C228.244 116.272 228.494 115.883 228.654 115.392C228.825 114.891 228.91 114.32 228.91 113.68C228.91 112.699 228.718 111.915 228.334 111.328C227.961 110.741 227.38 110.448 226.59 110.448ZM233.938 114.656C233.938 114.752 233.933 114.891 233.922 115.072C233.922 115.243 233.917 115.429 233.906 115.632C233.895 115.824 233.885 116.011 233.874 116.192C233.863 116.363 233.853 116.501 233.842 116.608L238.434 109.424H240.162V118H238.85V112.944C238.85 112.773 238.85 112.549 238.85 112.272C238.861 111.995 238.871 111.723 238.882 111.456C238.893 111.179 238.903 110.971 238.914 110.832L234.354 118H232.61V109.424H233.938V114.656ZM244.219 114.656C244.219 114.752 244.214 114.891 244.203 115.072C244.203 115.243 244.198 115.429 244.187 115.632C244.177 115.824 244.166 116.011 244.155 116.192C244.145 116.363 244.134 116.501 244.123 116.608L248.715 109.424H250.443V118H249.131V112.944C249.131 112.773 249.131 112.549 249.131 112.272C249.142 111.995 249.153 111.723 249.163 111.456C249.174 111.179 249.185 110.971 249.195 110.832L244.635 118H242.891V109.424H244.219V114.656ZM10.288 144H8.848V138.672H2.992V144H1.552V132.576H2.992V137.408H8.848V132.576H10.288V144ZM13.4274 132.576H14.7714V138.848C14.7714 139.115 14.766 139.408 14.7554 139.728C14.7554 140.037 14.75 140.347 14.7394 140.656C14.7287 140.965 14.7127 141.243 14.6914 141.488C14.6807 141.723 14.67 141.904 14.6594 142.032H14.7234L21.0114 132.576H22.6114V144H21.2674V137.792C21.2674 137.504 21.2727 137.195 21.2834 136.864C21.294 136.523 21.3047 136.197 21.3154 135.888C21.3367 135.568 21.3527 135.285 21.3634 135.04C21.374 134.795 21.3847 134.613 21.3954 134.496H21.3314L15.0274 144H13.4274V132.576ZM30.4766 140.752C30.1353 141.509 29.7886 142.144 29.4366 142.656C29.0953 143.157 28.69 143.536 28.2206 143.792C27.7513 144.037 27.154 144.16 26.4286 144.16C26.13 144.16 25.8473 144.139 25.5806 144.096C25.3246 144.053 25.09 143.995 24.8766 143.92V142.496C25.09 142.592 25.3193 142.672 25.5646 142.736C25.81 142.789 26.066 142.816 26.3326 142.816C26.7273 142.816 27.0633 142.763 27.3406 142.656C27.6286 142.539 27.8793 142.352 28.0926 142.096C28.3166 141.84 28.5246 141.499 28.7166 141.072L24.3166 132.576H25.9006L29.0846 138.864C29.1273 138.939 29.17 139.029 29.2126 139.136C29.2553 139.232 29.298 139.333 29.3406 139.44C29.394 139.547 29.4366 139.648 29.4686 139.744H29.5326C29.5646 139.669 29.5966 139.584 29.6286 139.488C29.6713 139.381 29.7086 139.28 29.7406 139.184C29.7833 139.077 29.8206 138.987 29.8526 138.912L32.6046 132.576H34.1246L30.4766 140.752ZM43.2066 132.576C44.156 132.576 44.9506 132.667 45.5906 132.848C46.2413 133.029 46.7266 133.328 47.0466 133.744C47.3773 134.16 47.5426 134.715 47.5426 135.408C47.5426 135.856 47.4573 136.256 47.2866 136.608C47.1266 136.949 46.8813 137.237 46.5506 137.472C46.2306 137.696 45.836 137.851 45.3666 137.936V138.016C45.8466 138.091 46.2786 138.229 46.6626 138.432C47.0573 138.635 47.3666 138.923 47.5906 139.296C47.8146 139.669 47.9266 140.155 47.9266 140.752C47.9266 141.445 47.7666 142.037 47.4466 142.528C47.1266 143.008 46.668 143.376 46.0706 143.632C45.484 143.877 44.78 144 43.9586 144H39.9426V132.576H43.2066ZM43.4946 137.44C44.476 137.44 45.148 137.285 45.5106 136.976C45.8733 136.656 46.0546 136.187 46.0546 135.568C46.0546 134.939 45.8306 134.491 45.3826 134.224C44.9453 133.947 44.2413 133.808 43.2706 133.808H41.3826V137.44H43.4946ZM41.3826 138.64V142.784H43.6866C44.7 142.784 45.404 142.587 45.7986 142.192C46.1933 141.797 46.3906 141.28 46.3906 140.64C46.3906 140.235 46.3 139.883 46.1186 139.584C45.948 139.285 45.6546 139.056 45.2386 138.896C44.8333 138.725 44.2786 138.64 43.5746 138.64H41.3826ZM63.8209 144H50.3489V132.576H51.7889V142.72H56.3489V132.576H57.7889V142.72H62.3649V132.576H63.8209V144ZM69.1026 133.68C68.5693 133.68 68.084 133.744 67.6466 133.872C67.2093 133.989 66.8146 134.128 66.4626 134.288L65.8706 133.088C66.308 132.875 66.8093 132.709 67.3746 132.592C67.94 132.475 68.5213 132.416 69.1186 132.416C70.036 132.416 70.8306 132.56 71.5026 132.848C72.1853 133.125 72.7506 133.52 73.1986 134.032C73.6466 134.544 73.9773 135.147 74.1906 135.84C74.4146 136.523 74.5266 137.275 74.5266 138.096C74.5266 139.344 74.324 140.421 73.9186 141.328C73.5133 142.235 72.9 142.933 72.0786 143.424C71.268 143.915 70.244 144.16 69.0066 144.16C68.3453 144.16 67.7853 144.123 67.3266 144.048C66.868 143.973 66.4146 143.856 65.9666 143.696V142.448C66.4146 142.565 66.868 142.672 67.3266 142.768C67.7853 142.853 68.2706 142.896 68.7826 142.896C69.476 142.896 70.0786 142.805 70.5906 142.624C71.1133 142.432 71.5506 142.16 71.9026 141.808C72.2546 141.445 72.5213 141.003 72.7026 140.48C72.884 139.947 72.9853 139.339 73.0066 138.656H67.4546V137.392H72.9906C72.9373 136.805 72.8093 136.283 72.6066 135.824C72.404 135.365 72.132 134.976 71.7906 134.656C71.46 134.336 71.0653 134.096 70.6066 133.936C70.1586 133.765 69.6573 133.68 69.1026 133.68ZM81.3333 144V132.576H89.9093V144H88.4853V133.84H82.7733V144H81.3333ZM96.1564 135.264C96.8924 135.264 97.5217 135.424 98.0444 135.744C98.5777 136.064 98.983 136.517 99.2604 137.104C99.5484 137.68 99.6924 138.357 99.6924 139.136V139.984H93.8204C93.8417 140.955 94.087 141.696 94.5564 142.208C95.0364 142.709 95.703 142.96 96.5564 142.96C97.1004 142.96 97.5804 142.912 97.9964 142.816C98.423 142.709 98.8604 142.56 99.3084 142.368V143.6C98.871 143.792 98.439 143.931 98.0124 144.016C97.5857 144.112 97.079 144.16 96.4924 144.16C95.6817 144.16 94.9617 143.995 94.3324 143.664C93.7137 143.333 93.2284 142.843 92.8764 142.192C92.535 141.531 92.3644 140.725 92.3644 139.776C92.3644 138.837 92.519 138.032 92.8284 137.36C93.1484 136.688 93.591 136.171 94.1564 135.808C94.7324 135.445 95.399 135.264 96.1564 135.264ZM96.1404 136.416C95.4684 136.416 94.935 136.635 94.5404 137.072C94.1564 137.499 93.927 138.096 93.8524 138.864H98.2204C98.2204 138.373 98.1457 137.947 97.9964 137.584C97.847 137.221 97.6177 136.939 97.3084 136.736C97.0097 136.523 96.6204 136.416 96.1404 136.416ZM105.956 135.264C107.012 135.264 107.86 135.632 108.5 136.368C109.15 137.104 109.476 138.213 109.476 139.696C109.476 140.667 109.326 141.488 109.028 142.16C108.74 142.821 108.329 143.323 107.796 143.664C107.273 143.995 106.654 144.16 105.94 144.16C105.502 144.16 105.113 144.101 104.772 143.984C104.43 143.867 104.137 143.717 103.892 143.536C103.657 143.344 103.454 143.136 103.284 142.912H103.188C103.209 143.093 103.23 143.323 103.252 143.6C103.273 143.877 103.284 144.117 103.284 144.32V147.84H101.876V135.424H103.028L103.22 136.592H103.284C103.454 136.347 103.657 136.123 103.892 135.92C104.137 135.717 104.425 135.557 104.756 135.44C105.097 135.323 105.497 135.264 105.956 135.264ZM105.7 136.448C105.124 136.448 104.66 136.56 104.308 136.784C103.956 136.997 103.7 137.323 103.54 137.76C103.38 138.197 103.294 138.752 103.284 139.424V139.696C103.284 140.4 103.358 140.997 103.508 141.488C103.657 141.979 103.908 142.352 104.26 142.608C104.622 142.864 105.113 142.992 105.732 142.992C106.254 142.992 106.681 142.848 107.012 142.56C107.353 142.272 107.604 141.883 107.764 141.392C107.934 140.891 108.02 140.32 108.02 139.68C108.02 138.699 107.828 137.915 107.444 137.328C107.07 136.741 106.489 136.448 105.7 136.448ZM120.919 135.424V144H119.655V138.528C119.655 138.304 119.661 138.069 119.671 137.824C119.693 137.579 119.714 137.339 119.735 137.104H119.687L116.887 144H115.703L112.983 137.104H112.935C112.957 137.339 112.967 137.579 112.967 137.824C112.978 138.069 112.983 138.32 112.983 138.576V144H111.719V135.424H113.591L116.295 142.32L119.047 135.424H120.919ZM127.097 144.16C126.34 144.16 125.662 144.005 125.065 143.696C124.478 143.387 124.014 142.907 123.673 142.256C123.342 141.605 123.177 140.773 123.177 139.76C123.177 138.704 123.353 137.845 123.705 137.184C124.057 136.523 124.532 136.037 125.129 135.728C125.737 135.419 126.425 135.264 127.193 135.264C127.63 135.264 128.052 135.312 128.457 135.408C128.862 135.493 129.193 135.6 129.449 135.728L129.017 136.896C128.761 136.8 128.462 136.709 128.121 136.624C127.78 136.539 127.46 136.496 127.161 136.496C126.585 136.496 126.11 136.619 125.737 136.864C125.364 137.109 125.086 137.472 124.905 137.952C124.724 138.432 124.633 139.029 124.633 139.744C124.633 140.427 124.724 141.008 124.905 141.488C125.086 141.968 125.358 142.331 125.721 142.576C126.084 142.821 126.537 142.944 127.081 142.944C127.55 142.944 127.961 142.896 128.313 142.8C128.676 142.704 129.006 142.587 129.305 142.448V143.696C129.017 143.845 128.697 143.957 128.345 144.032C128.004 144.117 127.588 144.16 127.097 144.16ZM136.416 135.424H137.952L134.288 139.552L138.256 144H136.624L132.752 139.648V144H131.344V135.424H132.752V139.584L136.416 135.424ZM141.141 140.656C141.141 140.752 141.136 140.891 141.125 141.072C141.125 141.243 141.12 141.429 141.109 141.632C141.098 141.824 141.088 142.011 141.077 142.192C141.066 142.363 141.056 142.501 141.045 142.608L145.637 135.424H147.365V144H146.053V138.944C146.053 138.773 146.053 138.549 146.053 138.272C146.064 137.995 146.074 137.723 146.085 137.456C146.096 137.179 146.106 136.971 146.117 136.832L141.557 144H139.813V135.424H141.141V140.656ZM157.038 131.872C156.996 132.405 156.862 132.853 156.638 133.216C156.425 133.579 156.105 133.851 155.678 134.032C155.252 134.213 154.697 134.304 154.014 134.304C153.321 134.304 152.761 134.213 152.334 134.032C151.918 133.851 151.614 133.584 151.422 133.232C151.23 132.869 151.113 132.416 151.07 131.872H152.382C152.436 132.448 152.585 132.837 152.83 133.04C153.086 133.232 153.492 133.328 154.046 133.328C154.537 133.328 154.921 133.227 155.198 133.024C155.486 132.811 155.657 132.427 155.71 131.872H157.038ZM151.422 140.656C151.422 140.752 151.417 140.891 151.406 141.072C151.406 141.243 151.401 141.429 151.39 141.632C151.38 141.824 151.369 142.011 151.358 142.192C151.348 142.363 151.337 142.501 151.326 142.608L155.918 135.424H157.646V144H156.334V138.944C156.334 138.773 156.334 138.549 156.334 138.272C156.345 137.995 156.356 137.723 156.366 137.456C156.377 137.179 156.388 136.971 156.398 136.832L151.838 144H150.094V135.424H151.422V140.656ZM169.761 135.296C170.615 135.371 171.356 135.595 171.985 135.968C172.625 136.341 173.121 136.843 173.473 137.472C173.825 138.101 174.001 138.848 174.001 139.712C174.001 140.576 173.831 141.328 173.489 141.968C173.148 142.597 172.663 143.099 172.033 143.472C171.404 143.835 170.647 144.053 169.761 144.128V147.84H168.385V144.128C167.543 144.053 166.801 143.835 166.161 143.472C165.521 143.099 165.025 142.597 164.673 141.968C164.321 141.328 164.145 140.576 164.145 139.712C164.145 138.837 164.316 138.085 164.657 137.456C164.999 136.816 165.489 136.315 166.129 135.952C166.769 135.579 167.537 135.36 168.433 135.296V131.84H169.761V135.296ZM168.433 136.464C167.783 136.528 167.249 136.693 166.833 136.96C166.417 137.227 166.108 137.589 165.905 138.048C165.713 138.507 165.617 139.061 165.617 139.712C165.617 140.352 165.713 140.907 165.905 141.376C166.108 141.835 166.417 142.203 166.833 142.48C167.249 142.747 167.783 142.912 168.433 142.976V136.464ZM169.761 142.976C170.401 142.901 170.924 142.731 171.329 142.464C171.745 142.197 172.049 141.835 172.241 141.376C172.444 140.907 172.545 140.352 172.545 139.712C172.545 139.072 172.444 138.523 172.241 138.064C172.039 137.605 171.729 137.243 171.313 136.976C170.908 136.709 170.391 136.544 169.761 136.48V142.976ZM177.563 140.656C177.563 140.752 177.558 140.891 177.547 141.072C177.547 141.243 177.542 141.429 177.531 141.632C177.52 141.824 177.51 142.011 177.499 142.192C177.488 142.363 177.478 142.501 177.467 142.608L182.059 135.424H183.787V144H182.475V138.944C182.475 138.773 182.475 138.549 182.475 138.272C182.486 137.995 182.496 137.723 182.507 137.456C182.518 137.179 182.528 136.971 182.539 136.832L177.979 144H176.235V135.424H177.563V140.656ZM193.044 144H191.62V136.592H189.092C188.986 137.947 188.852 139.104 188.692 140.064C188.532 141.013 188.33 141.787 188.084 142.384C187.839 142.981 187.546 143.419 187.204 143.696C186.863 143.973 186.463 144.112 186.004 144.112C185.866 144.112 185.727 144.101 185.588 144.08C185.46 144.069 185.354 144.043 185.268 144V142.944C185.332 142.965 185.402 142.981 185.476 142.992C185.551 143.003 185.626 143.008 185.7 143.008C185.935 143.008 186.148 142.912 186.34 142.72C186.532 142.528 186.703 142.235 186.852 141.84C187.012 141.445 187.156 140.949 187.284 140.352C187.412 139.744 187.524 139.029 187.62 138.208C187.716 137.387 187.802 136.459 187.876 135.424H193.044V144ZM197.094 140.656C197.094 140.752 197.089 140.891 197.078 141.072C197.078 141.243 197.073 141.429 197.062 141.632C197.052 141.824 197.041 142.011 197.03 142.192C197.02 142.363 197.009 142.501 196.998 142.608L201.59 135.424H203.318V144H202.006V138.944C202.006 138.773 202.006 138.549 202.006 138.272C202.017 137.995 202.028 137.723 202.038 137.456C202.049 137.179 202.06 136.971 202.07 136.832L197.51 144H195.766V135.424H197.094V140.656ZM209.296 135.28C210.341 135.28 211.114 135.509 211.616 135.968C212.117 136.427 212.368 137.157 212.368 138.16V144H211.344L211.072 142.784H211.008C210.762 143.093 210.506 143.355 210.24 143.568C209.984 143.771 209.685 143.92 209.344 144.016C209.013 144.112 208.608 144.16 208.128 144.16C207.616 144.16 207.152 144.069 206.736 143.888C206.33 143.707 206.01 143.429 205.776 143.056C205.541 142.672 205.424 142.192 205.424 141.616C205.424 140.763 205.76 140.107 206.432 139.648C207.104 139.179 208.138 138.923 209.536 138.88L210.992 138.832V138.32C210.992 137.605 210.837 137.109 210.528 136.832C210.218 136.555 209.781 136.416 209.216 136.416C208.768 136.416 208.341 136.485 207.936 136.624C207.53 136.752 207.152 136.901 206.799 137.072L206.368 136.016C206.741 135.813 207.184 135.643 207.696 135.504C208.208 135.355 208.741 135.28 209.296 135.28ZM209.712 139.856C208.645 139.899 207.904 140.069 207.488 140.368C207.082 140.667 206.88 141.088 206.88 141.632C206.88 142.112 207.024 142.464 207.312 142.688C207.61 142.912 207.989 143.024 208.448 143.024C209.173 143.024 209.776 142.827 210.256 142.432C210.736 142.027 210.976 141.408 210.976 140.576V139.808L209.712 139.856ZM221.544 144H220.12V136.592H217.592C217.486 137.947 217.352 139.104 217.192 140.064C217.032 141.013 216.83 141.787 216.584 142.384C216.339 142.981 216.046 143.419 215.704 143.696C215.363 143.973 214.963 144.112 214.504 144.112C214.366 144.112 214.227 144.101 214.088 144.08C213.96 144.069 213.854 144.043 213.768 144V142.944C213.832 142.965 213.902 142.981 213.976 142.992C214.051 143.003 214.126 143.008 214.2 143.008C214.435 143.008 214.648 142.912 214.84 142.72C215.032 142.528 215.203 142.235 215.352 141.84C215.512 141.445 215.656 140.949 215.784 140.352C215.912 139.744 216.024 139.029 216.12 138.208C216.216 137.387 216.302 136.459 216.376 135.424H221.544V144Z" fill="#575757"/>
<path d="M12.7969 11.7109V14.875H4.04297V11.7109H12.7969ZM5.41406 4.9375V22H1.30078V4.9375H5.41406ZM15.5625 4.9375V22H11.4609V4.9375H15.5625ZM29.918 18.8359V22H20.8242V18.8359H29.918ZM22.2891 4.9375V22H18.1758V4.9375H22.2891ZM28.7461 11.7109V14.7695H20.8242V11.7109H28.7461ZM29.9531 4.9375V8.11328H20.8242V4.9375H29.9531ZM38.8359 8.52344L34.6758 22H30.2578L36.5273 4.9375H39.3281L38.8359 8.52344ZM42.2812 22L38.1094 8.52344L37.5703 4.9375H40.4062L46.7109 22H42.2812ZM42.1172 15.6367V18.8125H33.3633V15.6367H42.1172ZM59.2383 18.8359V22H50.6133V18.8359H59.2383ZM52.0781 4.9375V22H47.9648V4.9375H52.0781ZM66.8203 4.9375V22H62.707V4.9375H66.8203ZM71.9531 4.9375V8.11328H57.6914V4.9375H71.9531ZM85.1953 11.7109V14.875H76.4414V11.7109H85.1953ZM77.8125 4.9375V22H73.6992V4.9375H77.8125ZM87.9609 4.9375V22H83.8594V4.9375H87.9609ZM93.3398 4.9375L96.4805 12.3438L99.6328 4.9375H104.062L98.5781 15.8711V22H94.3945V15.8711L88.8984 4.9375H93.3398Z" fill="#FB9333"/>
<path d="M118.16 15.918H113.812V13.1758H118.16C118.832 13.1758 119.379 13.0664 119.801 12.8477C120.223 12.6211 120.531 12.3086 120.727 11.9102C120.922 11.5117 121.02 11.0625 121.02 10.5625C121.02 10.0547 120.922 9.58203 120.727 9.14453C120.531 8.70703 120.223 8.35547 119.801 8.08984C119.379 7.82422 118.832 7.69141 118.16 7.69141H115.031V22H111.516V4.9375H118.16C119.496 4.9375 120.641 5.17969 121.594 5.66406C122.555 6.14063 123.289 6.80078 123.797 7.64453C124.305 8.48828 124.559 9.45312 124.559 10.5391C124.559 11.6406 124.305 12.5938 123.797 13.3984C123.289 14.2031 122.555 14.8242 121.594 15.2617C120.641 15.6992 119.496 15.918 118.16 15.918ZM138.434 19.2578V22H129.352V19.2578H138.434ZM130.5 4.9375V22H126.984V4.9375H130.5ZM137.25 11.8867V14.5586H129.352V11.8867H137.25ZM138.422 4.9375V7.69141H129.352V4.9375H138.422ZM154.5 13.0703V13.8789C154.5 15.1758 154.324 16.3398 153.973 17.3711C153.621 18.4023 153.125 19.2812 152.484 20.0078C151.844 20.7266 151.078 21.2773 150.188 21.6602C149.305 22.043 148.324 22.2344 147.246 22.2344C146.176 22.2344 145.195 22.043 144.305 21.6602C143.422 21.2773 142.656 20.7266 142.008 20.0078C141.359 19.2812 140.855 18.4023 140.496 17.3711C140.145 16.3398 139.969 15.1758 139.969 13.8789V13.0703C139.969 11.7656 140.145 10.6016 140.496 9.57812C140.848 8.54688 141.344 7.66797 141.984 6.94141C142.633 6.21484 143.398 5.66016 144.281 5.27734C145.172 4.89453 146.152 4.70312 147.223 4.70312C148.301 4.70312 149.281 4.89453 150.164 5.27734C151.055 5.66016 151.82 6.21484 152.461 6.94141C153.109 7.66797 153.609 8.54688 153.961 9.57812C154.32 10.6016 154.5 11.7656 154.5 13.0703ZM150.949 13.8789V13.0469C150.949 12.1406 150.867 11.3438 150.703 10.6562C150.539 9.96875 150.297 9.39062 149.977 8.92188C149.656 8.45312 149.266 8.10156 148.805 7.86719C148.344 7.625 147.816 7.50391 147.223 7.50391C146.629 7.50391 146.102 7.625 145.641 7.86719C145.188 8.10156 144.801 8.45312 144.48 8.92188C144.168 9.39062 143.93 9.96875 143.766 10.6562C143.602 11.3438 143.52 12.1406 143.52 13.0469V13.8789C143.52 14.7773 143.602 15.5742 143.766 16.2695C143.93 16.957 144.172 17.5391 144.492 18.0156C144.812 18.4844 145.203 18.8398 145.664 19.082C146.125 19.3242 146.652 19.4453 147.246 19.4453C147.84 19.4453 148.367 19.3242 148.828 19.082C149.289 18.8398 149.676 18.4844 149.988 18.0156C150.301 17.5391 150.539 16.957 150.703 16.2695C150.867 15.5742 150.949 14.7773 150.949 13.8789ZM163.676 15.918H159.328V13.1758H163.676C164.348 13.1758 164.895 13.0664 165.316 12.8477C165.738 12.6211 166.047 12.3086 166.242 11.9102C166.438 11.5117 166.535 11.0625 166.535 10.5625C166.535 10.0547 166.438 9.58203 166.242 9.14453C166.047 8.70703 165.738 8.35547 165.316 8.08984C164.895 7.82422 164.348 7.69141 163.676 7.69141H160.547V22H157.031V4.9375H163.676C165.012 4.9375 166.156 5.17969 167.109 5.66406C168.07 6.14063 168.805 6.80078 169.312 7.64453C169.82 8.48828 170.074 9.45312 170.074 10.5391C170.074 11.6406 169.82 12.5938 169.312 13.3984C168.805 14.2031 168.07 14.8242 167.109 15.2617C166.156 15.6992 165.012 15.918 163.676 15.918ZM183.469 19.2578V22H174.879V19.2578H183.469ZM176.016 4.9375V22H172.5V4.9375H176.016ZM196.934 19.2578V22H187.852V19.2578H196.934ZM189 4.9375V22H185.484V4.9375H189ZM195.75 11.8867V14.5586H187.852V11.8867H195.75ZM196.922 4.9375V7.69141H187.852V4.9375H196.922Z" fill="#585858"/>
</svg>
