<svg width="370" height="483" viewBox="0 0 370 483" fill="none" xmlns="http://www.w3.org/2000/svg">
<rect width="370" height="483" rx="50" fill="white"/>
<rect x="106.882" y="21" width="100" height="100" rx="20" transform="rotate(15 106.882 21)" fill="#FFE8C8" fill-opacity="0.5"/>
<rect x="92" y="32" width="100" height="100" rx="20" fill="#FFE8C8"/>
<path d="M84.576 181.864V195.976H86.856V203.992H83.352V199H72.624V203.992H69.12V195.976H70.44C70.888 195.08 71.32 194.136 71.736 193.144C72.152 192.152 72.536 191.088 72.888 189.952C73.256 188.816 73.584 187.584 73.872 186.256C74.16 184.912 74.4 183.448 74.592 181.864H84.576ZM77.472 184.888C77.36 185.72 77.2 186.608 76.992 187.552C76.784 188.48 76.536 189.432 76.248 190.408C75.976 191.384 75.672 192.344 75.336 193.288C75 194.232 74.64 195.128 74.256 195.976H80.952V184.888H77.472ZM100.624 192.424C100.624 193.512 100.472 194.48 100.168 195.328C99.8801 196.176 99.4561 196.896 98.8961 197.488C98.3521 198.064 97.6881 198.504 96.9041 198.808C96.1201 199.096 95.2321 199.24 94.2401 199.24C93.3281 199.24 92.4801 199.096 91.6961 198.808C90.9281 198.504 90.2641 198.064 89.7041 197.488C89.1441 196.896 88.7041 196.176 88.3841 195.328C88.0801 194.48 87.9281 193.512 87.9281 192.424C87.9281 190.968 88.1841 189.744 88.6961 188.752C89.2081 187.744 89.9441 186.976 90.9041 186.448C91.8641 185.92 93.0001 185.656 94.3121 185.656C95.5441 185.656 96.6321 185.92 97.5761 186.448C98.5201 186.976 99.2641 187.744 99.8081 188.752C100.352 189.744 100.624 190.968 100.624 192.424ZM91.5761 192.424C91.5761 193.288 91.6641 194.016 91.8401 194.608C92.0321 195.184 92.3281 195.624 92.7281 195.928C93.1281 196.216 93.6481 196.36 94.2881 196.36C94.9281 196.36 95.4401 196.216 95.8241 195.928C96.2241 195.624 96.5121 195.184 96.6881 194.608C96.8801 194.016 96.9761 193.288 96.9761 192.424C96.9761 191.56 96.8801 190.84 96.6881 190.264C96.5121 189.688 96.2241 189.256 95.8241 188.968C95.4241 188.68 94.9041 188.536 94.2641 188.536C93.3201 188.536 92.6321 188.864 92.2001 189.52C91.7841 190.16 91.5761 191.128 91.5761 192.424ZM108.428 199.24C107.132 199.24 106.028 199.008 105.116 198.544C104.204 198.064 103.508 197.328 103.028 196.336C102.548 195.344 102.308 194.072 102.308 192.52C102.308 190.92 102.58 189.616 103.124 188.608C103.668 187.6 104.42 186.856 105.38 186.376C106.356 185.896 107.476 185.656 108.74 185.656C109.636 185.656 110.412 185.744 111.068 185.92C111.74 186.096 112.324 186.304 112.82 186.544L111.764 189.304C111.204 189.08 110.676 188.896 110.18 188.752C109.7 188.608 109.22 188.536 108.74 188.536C108.116 188.536 107.596 188.688 107.18 188.992C106.764 189.28 106.452 189.72 106.244 190.312C106.052 190.888 105.956 191.616 105.956 192.496C105.956 193.36 106.06 194.08 106.268 194.656C106.492 195.216 106.812 195.64 107.228 195.928C107.644 196.2 108.148 196.336 108.74 196.336C109.492 196.336 110.156 196.24 110.732 196.048C111.308 195.84 111.868 195.56 112.412 195.208V198.256C111.868 198.608 111.292 198.856 110.684 199C110.092 199.16 109.34 199.24 108.428 199.24ZM125.796 188.584H121.5V199H117.924V188.584H113.628V185.896H125.796V188.584ZM131.189 191.08C131.189 191.352 131.173 191.688 131.141 192.088C131.125 192.488 131.101 192.896 131.069 193.312C131.053 193.728 131.029 194.096 130.997 194.416C130.965 194.736 130.941 194.96 130.925 195.088L136.973 185.896H141.269V199H137.813V193.768C137.813 193.336 137.829 192.864 137.861 192.352C137.893 191.824 137.925 191.336 137.957 190.888C138.005 190.424 138.037 190.072 138.053 189.832L132.029 199H127.733V185.896H131.189V191.08ZM163.151 185.896L158.327 192.184L163.607 199H159.791L154.799 192.352V199H151.463V192.352L146.471 199H142.655L147.935 192.184L143.111 185.896H146.807L151.463 192.256V185.896H154.799V192.256L159.455 185.896H163.151ZM169.931 185.656C171.147 185.656 172.187 185.888 173.051 186.352C173.931 186.816 174.611 187.488 175.091 188.368C175.571 189.248 175.811 190.328 175.811 191.608V193.336H167.363C167.395 194.344 167.691 195.136 168.251 195.712C168.827 196.288 169.619 196.576 170.627 196.576C171.475 196.576 172.243 196.496 172.931 196.336C173.619 196.16 174.331 195.896 175.067 195.544V198.304C174.427 198.624 173.747 198.856 173.027 199C172.323 199.16 171.467 199.24 170.459 199.24C169.147 199.24 167.987 199 166.979 198.52C165.971 198.024 165.179 197.28 164.603 196.288C164.027 195.296 163.739 194.048 163.739 192.544C163.739 191.008 163.995 189.736 164.507 188.728C165.035 187.704 165.763 186.936 166.691 186.424C167.619 185.912 168.699 185.656 169.931 185.656ZM169.955 188.2C169.267 188.2 168.691 188.424 168.227 188.872C167.779 189.32 167.515 190.016 167.435 190.96H172.451C172.451 190.432 172.355 189.96 172.163 189.544C171.987 189.128 171.715 188.8 171.347 188.56C170.979 188.32 170.515 188.2 169.955 188.2ZM181.807 185.896V190.936H186.799V185.896H190.375V199H186.799V193.6H181.807V199H178.231V185.896H181.807ZM197.097 191.08C197.097 191.352 197.081 191.688 197.049 192.088C197.033 192.488 197.009 192.896 196.977 193.312C196.961 193.728 196.937 194.096 196.905 194.416C196.873 194.736 196.849 194.96 196.833 195.088L202.881 185.896H207.177V199H203.721V193.768C203.721 193.336 203.737 192.864 203.769 192.352C203.801 191.824 203.833 191.336 203.865 190.888C203.913 190.424 203.945 190.072 203.961 189.832L197.937 199H193.641V185.896H197.097V191.08ZM212.427 199H208.563L212.091 193.816C211.643 193.624 211.219 193.368 210.819 193.048C210.435 192.712 210.123 192.288 209.883 191.776C209.643 191.264 209.523 190.656 209.523 189.952C209.523 188.64 210.019 187.64 211.011 186.952C212.003 186.248 213.275 185.896 214.827 185.896H220.923V199H217.347V194.128H215.379L212.427 199ZM213.027 189.976C213.027 190.52 213.243 190.952 213.675 191.272C214.107 191.576 214.667 191.728 215.355 191.728H217.347V188.416H214.899C214.259 188.416 213.787 188.576 213.483 188.896C213.179 189.2 213.027 189.56 213.027 189.976Z" fill="#2B2B2B"/>
<path d="M42.448 228.68C41.84 228.68 41.2907 228.787 40.8 229C40.3093 229.203 39.8933 229.507 39.552 229.912C39.2107 230.307 38.9493 230.792 38.768 231.368C38.5867 231.933 38.496 232.573 38.496 233.288C38.496 234.227 38.64 235.043 38.928 235.736C39.2267 236.429 39.664 236.963 40.24 237.336C40.8267 237.709 41.5573 237.896 42.432 237.896C42.9333 237.896 43.408 237.853 43.856 237.768C44.304 237.683 44.7413 237.576 45.168 237.448V238.696C44.7413 238.856 44.2987 238.973 43.84 239.048C43.392 239.123 42.8533 239.16 42.224 239.16C41.0613 239.16 40.0907 238.92 39.312 238.44C38.5333 237.96 37.9467 237.277 37.552 236.392C37.168 235.507 36.976 234.467 36.976 233.272C36.976 232.408 37.0933 231.619 37.328 230.904C37.5733 230.189 37.9253 229.571 38.384 229.048C38.8533 228.525 39.4293 228.125 40.112 227.848C40.7947 227.56 41.5787 227.416 42.464 227.416C43.0507 227.416 43.616 227.475 44.16 227.592C44.704 227.709 45.1893 227.875 45.616 228.088L45.04 229.304C44.688 229.144 44.2933 229 43.856 228.872C43.4293 228.744 42.96 228.68 42.448 228.68ZM58.343 230.424V239H56.935V231.624H52.503V239H51.095V230.424H58.343ZM68.2154 234.696C68.2154 235.411 68.1194 236.045 67.9274 236.6C67.746 237.144 67.4794 237.608 67.1274 237.992C66.786 238.376 66.3647 238.669 65.8634 238.872C65.3727 239.064 64.8234 239.16 64.2154 239.16C63.65 239.16 63.1274 239.064 62.6474 238.872C62.1674 238.669 61.7514 238.376 61.3994 237.992C61.0474 237.608 60.77 237.144 60.5674 236.6C60.3754 236.045 60.2794 235.411 60.2794 234.696C60.2794 233.747 60.4394 232.947 60.7594 232.296C61.0794 231.635 61.538 231.133 62.1354 230.792C62.7327 230.44 63.442 230.264 64.2634 230.264C65.042 230.264 65.7247 230.44 66.3114 230.792C66.9087 231.133 67.3727 231.635 67.7034 232.296C68.0447 232.947 68.2154 233.747 68.2154 234.696ZM61.7354 234.696C61.7354 235.368 61.8207 235.955 61.9914 236.456C62.1727 236.947 62.45 237.325 62.8234 237.592C63.1967 237.859 63.6714 237.992 64.2474 237.992C64.8234 237.992 65.298 237.859 65.6714 237.592C66.0447 237.325 66.3167 236.947 66.4874 236.456C66.6687 235.955 66.7594 235.368 66.7594 234.696C66.7594 234.013 66.6687 233.432 66.4874 232.952C66.306 232.472 66.0287 232.104 65.6554 231.848C65.2927 231.581 64.818 231.448 64.2314 231.448C63.3567 231.448 62.722 231.736 62.3274 232.312C61.9327 232.888 61.7354 233.683 61.7354 234.696ZM79.3269 230.424V239H78.0629V233.528C78.0629 233.304 78.0682 233.069 78.0789 232.824C78.1002 232.579 78.1215 232.339 78.1429 232.104H78.0949L75.2949 239H74.1109L71.3909 232.104H71.3429C71.3642 232.339 71.3749 232.579 71.3749 232.824C71.3855 233.069 71.3909 233.32 71.3909 233.576V239H70.1269V230.424H71.9989L74.7029 237.32L77.4549 230.424H79.3269ZM89.2004 234.696C89.2004 235.411 89.1044 236.045 88.9124 236.6C88.731 237.144 88.4644 237.608 88.1124 237.992C87.771 238.376 87.3497 238.669 86.8484 238.872C86.3577 239.064 85.8084 239.16 85.2004 239.16C84.635 239.16 84.1124 239.064 83.6324 238.872C83.1524 238.669 82.7364 238.376 82.3844 237.992C82.0324 237.608 81.755 237.144 81.5524 236.6C81.3604 236.045 81.2644 235.411 81.2644 234.696C81.2644 233.747 81.4244 232.947 81.7444 232.296C82.0644 231.635 82.523 231.133 83.1204 230.792C83.7177 230.44 84.427 230.264 85.2484 230.264C86.027 230.264 86.7097 230.44 87.2964 230.792C87.8937 231.133 88.3577 231.635 88.6884 232.296C89.0297 232.947 89.2004 233.747 89.2004 234.696ZM82.7204 234.696C82.7204 235.368 82.8057 235.955 82.9764 236.456C83.1577 236.947 83.435 237.325 83.8084 237.592C84.1817 237.859 84.6564 237.992 85.2324 237.992C85.8084 237.992 86.283 237.859 86.6564 237.592C87.0297 237.325 87.3017 236.947 87.4724 236.456C87.6537 235.955 87.7444 235.368 87.7444 234.696C87.7444 234.013 87.6537 233.432 87.4724 232.952C87.291 232.472 87.0137 232.104 86.6404 231.848C86.2777 231.581 85.803 231.448 85.2164 231.448C84.3417 231.448 83.707 231.736 83.3124 232.312C82.9177 232.888 82.7204 233.683 82.7204 234.696ZM102.728 230.424V237.832H103.976V241.96H102.568V239H91.1119V230.424H92.5199V237.816H96.2159V230.424H97.6239V237.816H101.336V230.424H102.728ZM109.244 233.944C109.991 233.944 110.609 234.035 111.1 234.216C111.591 234.397 111.959 234.669 112.204 235.032C112.46 235.384 112.588 235.832 112.588 236.376C112.588 236.909 112.465 237.373 112.22 237.768C111.985 238.163 111.617 238.467 111.116 238.68C110.615 238.893 109.969 239 109.18 239H105.292V230.424H106.7V233.944H109.244ZM111.18 236.456C111.18 235.933 110.993 235.581 110.62 235.4C110.257 235.208 109.745 235.112 109.084 235.112H106.7V237.864H109.116C109.713 237.864 110.204 237.757 110.588 237.544C110.983 237.331 111.18 236.968 111.18 236.456ZM125.608 234.696C125.608 235.645 125.453 236.456 125.144 237.128C124.835 237.789 124.397 238.296 123.832 238.648C123.267 238.989 122.595 239.16 121.816 239.16C121.091 239.16 120.456 239.011 119.912 238.712C119.368 238.403 118.936 237.955 118.616 237.368C118.296 236.771 118.109 236.04 118.056 235.176H115.88V239H114.472V230.424H115.88V233.992H118.072C118.147 233.181 118.344 232.504 118.664 231.96C118.995 231.405 119.427 230.984 119.96 230.696C120.504 230.408 121.133 230.264 121.848 230.264C122.584 230.264 123.235 230.44 123.8 230.792C124.365 231.133 124.808 231.635 125.128 232.296C125.448 232.947 125.608 233.747 125.608 234.696ZM119.496 234.696C119.496 235.411 119.576 236.013 119.736 236.504C119.907 236.995 120.163 237.368 120.504 237.624C120.845 237.869 121.288 237.992 121.832 237.992C122.376 237.992 122.819 237.869 123.16 237.624C123.501 237.368 123.752 236.995 123.912 236.504C124.072 236.013 124.152 235.411 124.152 234.696C124.152 233.981 124.072 233.384 123.912 232.904C123.752 232.424 123.501 232.061 123.16 231.816C122.819 231.571 122.376 231.448 121.832 231.448C121.288 231.448 120.845 231.571 120.504 231.816C120.163 232.061 119.907 232.424 119.736 232.904C119.576 233.384 119.496 233.981 119.496 234.696ZM132.881 230.424V233.992H137.537V230.424H138.945V239H137.537V235.176H132.881V239H131.473V230.424H132.881ZM144.588 230.28C145.633 230.28 146.407 230.509 146.908 230.968C147.409 231.427 147.66 232.157 147.66 233.16V239H146.636L146.364 237.784H146.3C146.055 238.093 145.799 238.355 145.532 238.568C145.276 238.771 144.977 238.92 144.636 239.016C144.305 239.112 143.9 239.16 143.42 239.16C142.908 239.16 142.444 239.069 142.028 238.888C141.623 238.707 141.303 238.429 141.068 238.056C140.833 237.672 140.716 237.192 140.716 236.616C140.716 235.763 141.052 235.107 141.724 234.648C142.396 234.179 143.431 233.923 144.828 233.88L146.284 233.832V233.32C146.284 232.605 146.129 232.109 145.82 231.832C145.511 231.555 145.073 231.416 144.508 231.416C144.06 231.416 143.633 231.485 143.228 231.624C142.823 231.752 142.444 231.901 142.092 232.072L141.66 231.016C142.033 230.813 142.476 230.643 142.988 230.504C143.5 230.355 144.033 230.28 144.588 230.28ZM145.004 234.856C143.937 234.899 143.196 235.069 142.78 235.368C142.375 235.667 142.172 236.088 142.172 236.632C142.172 237.112 142.316 237.464 142.604 237.688C142.903 237.912 143.281 238.024 143.74 238.024C144.465 238.024 145.068 237.827 145.548 237.432C146.028 237.027 146.268 236.408 146.268 235.576V234.808L145.004 234.856ZM161.621 230.424V239H149.989V230.424H151.397V237.816H155.093V230.424H156.501V237.816H160.213V230.424H161.621ZM167.356 230.264C168.092 230.264 168.721 230.424 169.244 230.744C169.777 231.064 170.182 231.517 170.46 232.104C170.748 232.68 170.892 233.357 170.892 234.136V234.984H165.02C165.041 235.955 165.286 236.696 165.756 237.208C166.236 237.709 166.902 237.96 167.756 237.96C168.3 237.96 168.78 237.912 169.196 237.816C169.622 237.709 170.06 237.56 170.508 237.368V238.6C170.07 238.792 169.638 238.931 169.212 239.016C168.785 239.112 168.278 239.16 167.692 239.16C166.881 239.16 166.161 238.995 165.532 238.664C164.913 238.333 164.428 237.843 164.076 237.192C163.734 236.531 163.564 235.725 163.564 234.776C163.564 233.837 163.718 233.032 164.028 232.36C164.348 231.688 164.79 231.171 165.356 230.808C165.932 230.445 166.598 230.264 167.356 230.264ZM167.34 231.416C166.668 231.416 166.134 231.635 165.74 232.072C165.356 232.499 165.126 233.096 165.052 233.864H169.42C169.42 233.373 169.345 232.947 169.196 232.584C169.046 232.221 168.817 231.939 168.508 231.736C168.209 231.523 167.82 231.416 167.34 231.416ZM177.987 230.424V231.608H174.163V239H172.755V230.424H177.987ZM186.657 234.696C186.657 235.411 186.561 236.045 186.369 236.6C186.187 237.144 185.921 237.608 185.569 237.992C185.227 238.376 184.806 238.669 184.305 238.872C183.814 239.064 183.265 239.16 182.657 239.16C182.091 239.16 181.569 239.064 181.089 238.872C180.609 238.669 180.193 238.376 179.841 237.992C179.489 237.608 179.211 237.144 179.009 236.6C178.817 236.045 178.721 235.411 178.721 234.696C178.721 233.747 178.881 232.947 179.201 232.296C179.521 231.635 179.979 231.133 180.577 230.792C181.174 230.44 181.883 230.264 182.705 230.264C183.483 230.264 184.166 230.44 184.753 230.792C185.35 231.133 185.814 231.635 186.145 232.296C186.486 232.947 186.657 233.747 186.657 234.696ZM180.177 234.696C180.177 235.368 180.262 235.955 180.433 236.456C180.614 236.947 180.891 237.325 181.265 237.592C181.638 237.859 182.113 237.992 182.689 237.992C183.265 237.992 183.739 237.859 184.113 237.592C184.486 237.325 184.758 236.947 184.929 236.456C185.11 235.955 185.201 235.368 185.201 234.696C185.201 234.013 185.11 233.432 184.929 232.952C184.747 232.472 184.47 232.104 184.097 231.848C183.734 231.581 183.259 231.448 182.673 231.448C181.798 231.448 181.163 231.736 180.769 232.312C180.374 232.888 180.177 233.683 180.177 234.696ZM195.954 239.16C195.196 239.16 194.519 239.005 193.922 238.696C193.335 238.387 192.871 237.907 192.53 237.256C192.199 236.605 192.034 235.773 192.034 234.76C192.034 233.704 192.21 232.845 192.562 232.184C192.914 231.523 193.388 231.037 193.986 230.728C194.594 230.419 195.282 230.264 196.05 230.264C196.487 230.264 196.908 230.312 197.314 230.408C197.719 230.493 198.05 230.6 198.306 230.728L197.874 231.896C197.618 231.8 197.319 231.709 196.978 231.624C196.636 231.539 196.316 231.496 196.018 231.496C195.442 231.496 194.967 231.619 194.594 231.864C194.22 232.109 193.943 232.472 193.762 232.952C193.58 233.432 193.49 234.029 193.49 234.744C193.49 235.427 193.58 236.008 193.762 236.488C193.943 236.968 194.215 237.331 194.578 237.576C194.94 237.821 195.394 237.944 195.938 237.944C196.407 237.944 196.818 237.896 197.17 237.8C197.532 237.704 197.863 237.587 198.162 237.448V238.696C197.874 238.845 197.554 238.957 197.202 239.032C196.86 239.117 196.444 239.16 195.954 239.16ZM203.129 230.28C204.175 230.28 204.948 230.509 205.449 230.968C205.951 231.427 206.201 232.157 206.201 233.16V239H205.177L204.905 237.784H204.841C204.596 238.093 204.34 238.355 204.073 238.568C203.817 238.771 203.519 238.92 203.177 239.016C202.847 239.112 202.441 239.16 201.961 239.16C201.449 239.16 200.985 239.069 200.569 238.888C200.164 238.707 199.844 238.429 199.609 238.056C199.375 237.672 199.257 237.192 199.257 236.616C199.257 235.763 199.593 235.107 200.265 234.648C200.937 234.179 201.972 233.923 203.369 233.88L204.825 233.832V233.32C204.825 232.605 204.671 232.109 204.361 231.832C204.052 231.555 203.615 231.416 203.049 231.416C202.601 231.416 202.175 231.485 201.769 231.624C201.364 231.752 200.985 231.901 200.633 232.072L200.201 231.016C200.575 230.813 201.017 230.643 201.529 230.504C202.041 230.355 202.575 230.28 203.129 230.28ZM203.545 234.856C202.479 234.899 201.737 235.069 201.321 235.368C200.916 235.667 200.713 236.088 200.713 236.632C200.713 237.112 200.857 237.464 201.145 237.688C201.444 237.912 201.823 238.024 202.281 238.024C203.007 238.024 203.609 237.827 204.089 237.432C204.569 237.027 204.809 236.408 204.809 235.576V234.808L203.545 234.856ZM215.474 226.872C215.431 227.405 215.298 227.853 215.074 228.216C214.861 228.579 214.541 228.851 214.114 229.032C213.687 229.213 213.133 229.304 212.45 229.304C211.757 229.304 211.197 229.213 210.77 229.032C210.354 228.851 210.05 228.584 209.858 228.232C209.666 227.869 209.549 227.416 209.506 226.872H210.818C210.871 227.448 211.021 227.837 211.266 228.04C211.522 228.232 211.927 228.328 212.482 228.328C212.973 228.328 213.357 228.227 213.634 228.024C213.922 227.811 214.093 227.427 214.146 226.872H215.474ZM209.858 235.656C209.858 235.752 209.853 235.891 209.842 236.072C209.842 236.243 209.837 236.429 209.826 236.632C209.815 236.824 209.805 237.011 209.794 237.192C209.783 237.363 209.773 237.501 209.762 237.608L214.354 230.424H216.082V239H214.77V233.944C214.77 233.773 214.77 233.549 214.77 233.272C214.781 232.995 214.791 232.723 214.802 232.456C214.813 232.179 214.823 231.971 214.834 231.832L210.274 239H208.53V230.424H209.858V235.656ZM224.411 231.608H221.611V239H220.219V231.608H217.451V230.424H224.411V231.608ZM229.029 230.28C230.074 230.28 230.847 230.509 231.349 230.968C231.85 231.427 232.101 232.157 232.101 233.16V239H231.077L230.805 237.784H230.741C230.495 238.093 230.239 238.355 229.973 238.568C229.717 238.771 229.418 238.92 229.077 239.016C228.746 239.112 228.341 239.16 227.861 239.16C227.349 239.16 226.885 239.069 226.469 238.888C226.063 238.707 225.743 238.429 225.509 238.056C225.274 237.672 225.157 237.192 225.157 236.616C225.157 235.763 225.493 235.107 226.165 234.648C226.837 234.179 227.871 233.923 229.269 233.88L230.725 233.832V233.32C230.725 232.605 230.57 232.109 230.261 231.832C229.951 231.555 229.514 231.416 228.949 231.416C228.501 231.416 228.074 231.485 227.669 231.624C227.263 231.752 226.885 231.901 226.533 232.072L226.101 231.016C226.474 230.813 226.917 230.643 227.429 230.504C227.941 230.355 228.474 230.28 229.029 230.28ZM229.445 234.856C228.378 234.899 227.637 235.069 227.221 235.368C226.815 235.667 226.613 236.088 226.613 236.632C226.613 237.112 226.757 237.464 227.045 237.688C227.343 237.912 227.722 238.024 228.181 238.024C228.906 238.024 229.509 237.827 229.989 237.432C230.469 237.027 230.709 236.408 230.709 235.576V234.808L229.445 234.856ZM235.805 236.984L234.013 241.288H233.037L234.205 236.984H235.805ZM248.123 232.584C248.123 233.117 247.963 233.533 247.643 233.832C247.323 234.131 246.912 234.333 246.411 234.44V234.504C246.944 234.579 247.408 234.771 247.803 235.08C248.198 235.379 248.395 235.848 248.395 236.488C248.395 236.851 248.326 237.187 248.187 237.496C248.059 237.805 247.856 238.072 247.579 238.296C247.302 238.52 246.944 238.696 246.507 238.824C246.07 238.941 245.542 239 244.923 239H241.227V230.424H244.907C245.515 230.424 246.059 230.493 246.539 230.632C247.03 230.76 247.414 230.984 247.691 231.304C247.979 231.613 248.123 232.04 248.123 232.584ZM246.939 236.488C246.939 235.997 246.752 235.645 246.379 235.432C246.006 235.219 245.456 235.112 244.731 235.112H242.635V237.864H244.763C245.467 237.864 246.006 237.763 246.379 237.56C246.752 237.347 246.939 236.989 246.939 236.488ZM246.699 232.76C246.699 232.355 246.55 232.061 246.251 231.88C245.963 231.688 245.488 231.592 244.827 231.592H242.635V233.944H244.571C245.264 233.944 245.792 233.848 246.155 233.656C246.518 233.464 246.699 233.165 246.699 232.76ZM250.126 239V230.424H251.534V233.944H253.758C254.504 233.944 255.118 234.035 255.598 234.216C256.078 234.397 256.435 234.669 256.67 235.032C256.904 235.384 257.022 235.832 257.022 236.376C257.022 236.909 256.904 237.373 256.67 237.768C256.446 238.163 256.088 238.467 255.598 238.68C255.118 238.893 254.483 239 253.694 239H250.126ZM253.566 237.864C254.174 237.864 254.67 237.763 255.054 237.56C255.438 237.347 255.63 236.979 255.63 236.456C255.63 235.933 255.454 235.581 255.102 235.4C254.75 235.208 254.243 235.112 253.582 235.112H251.534V237.864H253.566ZM258.446 239V230.424H259.854V239H258.446ZM269.644 239.16C268.887 239.16 268.21 239.005 267.612 238.696C267.026 238.387 266.562 237.907 266.22 237.256C265.89 236.605 265.724 235.773 265.724 234.76C265.724 233.704 265.9 232.845 266.252 232.184C266.604 231.523 267.079 231.037 267.676 230.728C268.284 230.419 268.972 230.264 269.74 230.264C270.178 230.264 270.599 230.312 271.004 230.408C271.41 230.493 271.74 230.6 271.996 230.728L271.564 231.896C271.308 231.8 271.01 231.709 270.668 231.624C270.327 231.539 270.007 231.496 269.708 231.496C269.132 231.496 268.658 231.619 268.284 231.864C267.911 232.109 267.634 232.472 267.452 232.952C267.271 233.432 267.18 234.029 267.18 234.744C267.18 235.427 267.271 236.008 267.452 236.488C267.634 236.968 267.906 237.331 268.268 237.576C268.631 237.821 269.084 237.944 269.628 237.944C270.098 237.944 270.508 237.896 270.86 237.8C271.223 237.704 271.554 237.587 271.852 237.448V238.696C271.564 238.845 271.244 238.957 270.892 239.032C270.551 239.117 270.135 239.16 269.644 239.16ZM282.772 230.424V239H281.508V233.528C281.508 233.304 281.513 233.069 281.524 232.824C281.545 232.579 281.567 232.339 281.588 232.104H281.54L278.74 239H277.556L274.836 232.104H274.788C274.809 232.339 274.82 232.579 274.82 232.824C274.831 233.069 274.836 233.32 274.836 233.576V239H273.572V230.424H275.444L278.148 237.32L280.9 230.424H282.772ZM292.645 234.696C292.645 235.411 292.549 236.045 292.357 236.6C292.176 237.144 291.909 237.608 291.557 237.992C291.216 238.376 290.795 238.669 290.293 238.872C289.803 239.064 289.253 239.16 288.645 239.16C288.08 239.16 287.557 239.064 287.077 238.872C286.597 238.669 286.181 238.376 285.829 237.992C285.477 237.608 285.2 237.144 284.997 236.6C284.805 236.045 284.709 235.411 284.709 234.696C284.709 233.747 284.869 232.947 285.189 232.296C285.509 231.635 285.968 231.133 286.565 230.792C287.163 230.44 287.872 230.264 288.693 230.264C289.472 230.264 290.155 230.44 290.741 230.792C291.339 231.133 291.803 231.635 292.133 232.296C292.475 232.947 292.645 233.747 292.645 234.696ZM286.165 234.696C286.165 235.368 286.251 235.955 286.421 236.456C286.603 236.947 286.88 237.325 287.253 237.592C287.627 237.859 288.101 237.992 288.677 237.992C289.253 237.992 289.728 237.859 290.101 237.592C290.475 237.325 290.747 236.947 290.917 236.456C291.099 235.955 291.189 235.368 291.189 234.696C291.189 234.013 291.099 233.432 290.917 232.952C290.736 232.472 290.459 232.104 290.085 231.848C289.723 231.581 289.248 231.448 288.661 231.448C287.787 231.448 287.152 231.736 286.757 232.312C286.363 232.888 286.165 233.683 286.165 234.696ZM304.532 230.424L300.996 234.584L304.836 239H303.236L299.524 234.648V239H298.212V234.648L294.5 239H292.9L296.74 234.584L293.204 230.424H294.74L298.212 234.584V230.424H299.524V234.584L303.012 230.424H304.532ZM308.924 230.264C309.66 230.264 310.289 230.424 310.812 230.744C311.345 231.064 311.751 231.517 312.028 232.104C312.316 232.68 312.46 233.357 312.46 234.136V234.984H306.588C306.609 235.955 306.855 236.696 307.324 237.208C307.804 237.709 308.471 237.96 309.324 237.96C309.868 237.96 310.348 237.912 310.764 237.816C311.191 237.709 311.628 237.56 312.076 237.368V238.6C311.639 238.792 311.207 238.931 310.78 239.016C310.353 239.112 309.847 239.16 309.26 239.16C308.449 239.16 307.729 238.995 307.1 238.664C306.481 238.333 305.996 237.843 305.644 237.192C305.303 236.531 305.132 235.725 305.132 234.776C305.132 233.837 305.287 233.032 305.596 232.36C305.916 231.688 306.359 231.171 306.924 230.808C307.5 230.445 308.167 230.264 308.924 230.264ZM308.908 231.416C308.236 231.416 307.703 231.635 307.308 232.072C306.924 232.499 306.695 233.096 306.62 233.864H310.988C310.988 233.373 310.913 232.947 310.764 232.584C310.615 232.221 310.385 231.939 310.076 231.736C309.777 231.523 309.388 231.416 308.908 231.416ZM320.243 231.608H317.443V239H316.051V231.608H313.283V230.424H320.243V231.608ZM324.768 230.264C325.504 230.264 326.134 230.424 326.656 230.744C327.19 231.064 327.595 231.517 327.872 232.104C328.16 232.68 328.304 233.357 328.304 234.136V234.984H322.432C322.454 235.955 322.699 236.696 323.168 237.208C323.648 237.709 324.315 237.96 325.168 237.96C325.712 237.96 326.192 237.912 326.608 237.816C327.035 237.709 327.472 237.56 327.92 237.368V238.6C327.483 238.792 327.051 238.931 326.624 239.016C326.198 239.112 325.691 239.16 325.104 239.16C324.294 239.16 323.574 238.995 322.944 238.664C322.326 238.333 321.84 237.843 321.488 237.192C321.147 236.531 320.976 235.725 320.976 234.776C320.976 233.837 321.131 233.032 321.44 232.36C321.76 231.688 322.203 231.171 322.768 230.808C323.344 230.445 324.011 230.264 324.768 230.264ZM324.752 231.416C324.08 231.416 323.547 231.635 323.152 232.072C322.768 232.499 322.539 233.096 322.464 233.864H326.832C326.832 233.373 326.758 232.947 326.608 232.584C326.459 232.221 326.23 231.939 325.92 231.736C325.622 231.523 325.232 231.416 324.752 231.416ZM36.016 259.424H37.52L39.376 264.304C39.4827 264.592 39.5787 264.869 39.664 265.136C39.76 265.403 39.8453 265.664 39.92 265.92C39.9947 266.165 40.0533 266.405 40.096 266.64H40.16C40.224 266.373 40.3253 266.027 40.464 265.6C40.6027 265.163 40.7467 264.725 40.896 264.288L42.64 259.424H44.16L40.464 269.184C40.2613 269.717 40.0213 270.181 39.744 270.576C39.4773 270.981 39.1467 271.291 38.752 271.504C38.368 271.728 37.8987 271.84 37.344 271.84C37.088 271.84 36.864 271.824 36.672 271.792C36.48 271.771 36.3147 271.744 36.176 271.712V270.592C36.2933 270.613 36.432 270.635 36.592 270.656C36.7627 270.677 36.9387 270.688 37.12 270.688C37.4507 270.688 37.7333 270.624 37.968 270.496C38.2133 270.379 38.4213 270.203 38.592 269.968C38.7627 269.744 38.9067 269.477 39.024 269.168L39.472 268.032L36.016 259.424ZM52.0923 261.584C52.0923 262.117 51.9323 262.533 51.6123 262.832C51.2923 263.131 50.8816 263.333 50.3802 263.44V263.504C50.9136 263.579 51.3776 263.771 51.7723 264.08C52.1669 264.379 52.3643 264.848 52.3643 265.488C52.3643 265.851 52.2949 266.187 52.1563 266.496C52.0283 266.805 51.8256 267.072 51.5483 267.296C51.2709 267.52 50.9136 267.696 50.4763 267.824C50.0389 267.941 49.5109 268 48.8923 268H45.1962V259.424H48.8763C49.4843 259.424 50.0283 259.493 50.5083 259.632C50.9989 259.76 51.3829 259.984 51.6603 260.304C51.9483 260.613 52.0923 261.04 52.0923 261.584ZM50.9083 265.488C50.9083 264.997 50.7216 264.645 50.3482 264.432C49.9749 264.219 49.4256 264.112 48.7003 264.112H46.6042V266.864H48.7323C49.4363 266.864 49.9749 266.763 50.3482 266.56C50.7216 266.347 50.9083 265.989 50.9083 265.488ZM50.6683 261.76C50.6683 261.355 50.5189 261.061 50.2203 260.88C49.9323 260.688 49.4576 260.592 48.7962 260.592H46.6042V262.944H48.5402C49.2336 262.944 49.7616 262.848 50.1242 262.656C50.4869 262.464 50.6683 262.165 50.6683 261.76ZM57.407 259.264C58.143 259.264 58.7723 259.424 59.295 259.744C59.8283 260.064 60.2337 260.517 60.511 261.104C60.799 261.68 60.943 262.357 60.943 263.136V263.984H55.071C55.0923 264.955 55.3377 265.696 55.807 266.208C56.287 266.709 56.9537 266.96 57.807 266.96C58.351 266.96 58.831 266.912 59.247 266.816C59.6737 266.709 60.111 266.56 60.559 266.368V267.6C60.1217 267.792 59.6897 267.931 59.263 268.016C58.8363 268.112 58.3297 268.16 57.743 268.16C56.9323 268.16 56.2123 267.995 55.583 267.664C54.9643 267.333 54.479 266.843 54.127 266.192C53.7857 265.531 53.615 264.725 53.615 263.776C53.615 262.837 53.7697 262.032 54.079 261.36C54.399 260.688 54.8417 260.171 55.407 259.808C55.983 259.445 56.6497 259.264 57.407 259.264ZM57.391 260.416C56.719 260.416 56.1857 260.635 55.791 261.072C55.407 261.499 55.1777 262.096 55.103 262.864H59.471C59.471 262.373 59.3963 261.947 59.247 261.584C59.0977 261.221 58.8683 260.939 58.559 260.736C58.2603 260.523 57.871 260.416 57.391 260.416ZM69.3343 268H67.9103V260.592H65.3823C65.2756 261.947 65.1423 263.104 64.9823 264.064C64.8223 265.013 64.6196 265.787 64.3743 266.384C64.1289 266.981 63.8356 267.419 63.4943 267.696C63.1529 267.973 62.7529 268.112 62.2943 268.112C62.1556 268.112 62.0169 268.101 61.8783 268.08C61.7503 268.069 61.6436 268.043 61.5583 268V266.944C61.6223 266.965 61.6916 266.981 61.7663 266.992C61.8409 267.003 61.9156 267.008 61.9903 267.008C62.2249 267.008 62.4383 266.912 62.6303 266.72C62.8223 266.528 62.9929 266.235 63.1423 265.84C63.3023 265.445 63.4463 264.949 63.5743 264.352C63.7023 263.744 63.8143 263.029 63.9103 262.208C64.0063 261.387 64.0916 260.459 64.1663 259.424H69.3343V268ZM73.0643 264.656C73.0643 264.752 73.0589 264.891 73.0483 265.072C73.0483 265.243 73.0429 265.429 73.0323 265.632C73.0216 265.824 73.0109 266.011 73.0003 266.192C72.9896 266.363 72.9789 266.501 72.9683 266.608L77.5603 259.424H79.2883V268H77.9763V262.944C77.9763 262.773 77.9763 262.549 77.9763 262.272C77.9869 261.995 77.9976 261.723 78.0083 261.456C78.0189 261.179 78.0296 260.971 78.0403 260.832L73.4803 268H71.7363V259.424H73.0643V264.656ZM82.9295 262.544C82.9295 263.045 83.0682 263.419 83.3455 263.664C83.6335 263.899 84.0442 264.016 84.5775 264.016C85.1108 264.016 85.5962 263.936 86.0335 263.776C86.4708 263.605 86.9188 263.381 87.3775 263.104V259.424H88.7855V268H87.3775V264.176C86.8975 264.485 86.4228 264.731 85.9535 264.912C85.4948 265.083 84.9402 265.168 84.2895 265.168C83.4148 265.168 82.7322 264.939 82.2415 264.48C81.7615 264.021 81.5215 263.408 81.5215 262.64V259.424H82.9295V262.544ZM92.518 264.656C92.518 264.752 92.5127 264.891 92.502 265.072C92.502 265.243 92.4967 265.429 92.486 265.632C92.4753 265.824 92.4647 266.011 92.454 266.192C92.4433 266.363 92.4327 266.501 92.422 266.608L97.014 259.424H98.742V268H97.43V262.944C97.43 262.773 97.43 262.549 97.43 262.272C97.4407 261.995 97.4513 261.723 97.462 261.456C97.4727 261.179 97.4833 260.971 97.494 260.832L92.934 268H91.19V259.424H92.518V264.656ZM107.071 260.608H104.271V268H102.879V260.608H100.111V259.424H107.071V260.608ZM112.393 262.944C113.139 262.944 113.758 263.035 114.249 263.216C114.739 263.397 115.107 263.669 115.353 264.032C115.609 264.384 115.737 264.832 115.737 265.376C115.737 265.909 115.614 266.373 115.369 266.768C115.134 267.163 114.766 267.467 114.265 267.68C113.763 267.893 113.118 268 112.329 268H108.441V259.424H109.849V262.944H112.393ZM114.329 265.456C114.329 264.933 114.142 264.581 113.769 264.4C113.406 264.208 112.894 264.112 112.233 264.112H109.849V266.864H112.265C112.862 266.864 113.353 266.757 113.737 266.544C114.131 266.331 114.329 265.968 114.329 265.456ZM125.006 268.16C124.249 268.16 123.572 268.005 122.974 267.696C122.388 267.387 121.924 266.907 121.582 266.256C121.252 265.605 121.086 264.773 121.086 263.76C121.086 262.704 121.262 261.845 121.614 261.184C121.966 260.523 122.441 260.037 123.038 259.728C123.646 259.419 124.334 259.264 125.102 259.264C125.54 259.264 125.961 259.312 126.366 259.408C126.772 259.493 127.102 259.6 127.358 259.728L126.926 260.896C126.67 260.8 126.372 260.709 126.03 260.624C125.689 260.539 125.369 260.496 125.07 260.496C124.494 260.496 124.02 260.619 123.646 260.864C123.273 261.109 122.996 261.472 122.814 261.952C122.633 262.432 122.542 263.029 122.542 263.744C122.542 264.427 122.633 265.008 122.814 265.488C122.996 265.968 123.268 266.331 123.63 266.576C123.993 266.821 124.446 266.944 124.99 266.944C125.46 266.944 125.87 266.896 126.222 266.8C126.585 266.704 126.916 266.587 127.214 266.448V267.696C126.926 267.845 126.606 267.957 126.254 268.032C125.913 268.117 125.497 268.16 125.006 268.16ZM135.83 261.584C135.83 262.117 135.67 262.533 135.35 262.832C135.03 263.131 134.619 263.333 134.118 263.44V263.504C134.651 263.579 135.115 263.771 135.51 264.08C135.904 264.379 136.102 264.848 136.102 265.488C136.102 265.851 136.032 266.187 135.894 266.496C135.766 266.805 135.563 267.072 135.286 267.296C135.008 267.52 134.651 267.696 134.214 267.824C133.776 267.941 133.248 268 132.63 268H128.934V259.424H132.614C133.222 259.424 133.766 259.493 134.246 259.632C134.736 259.76 135.12 259.984 135.398 260.304C135.686 260.613 135.83 261.04 135.83 261.584ZM134.646 265.488C134.646 264.997 134.459 264.645 134.086 264.432C133.712 264.219 133.163 264.112 132.438 264.112H130.342V266.864H132.47C133.174 266.864 133.712 266.763 134.086 266.56C134.459 266.347 134.646 265.989 134.646 265.488ZM134.406 261.76C134.406 261.355 134.256 261.061 133.958 260.88C133.67 260.688 133.195 260.592 132.534 260.592H130.342V262.944H132.278C132.971 262.944 133.499 262.848 133.862 262.656C134.224 262.464 134.406 262.165 134.406 261.76ZM145.289 263.696C145.289 264.411 145.193 265.045 145.001 265.6C144.819 266.144 144.553 266.608 144.201 266.992C143.859 267.376 143.438 267.669 142.937 267.872C142.446 268.064 141.897 268.16 141.289 268.16C140.723 268.16 140.201 268.064 139.721 267.872C139.241 267.669 138.825 267.376 138.473 266.992C138.121 266.608 137.843 266.144 137.641 265.6C137.449 265.045 137.353 264.411 137.353 263.696C137.353 262.747 137.513 261.947 137.833 261.296C138.153 260.635 138.611 260.133 139.209 259.792C139.806 259.44 140.515 259.264 141.337 259.264C142.115 259.264 142.798 259.44 143.385 259.792C143.982 260.133 144.446 260.635 144.777 261.296C145.118 261.947 145.289 262.747 145.289 263.696ZM138.809 263.696C138.809 264.368 138.894 264.955 139.065 265.456C139.246 265.947 139.523 266.325 139.897 266.592C140.27 266.859 140.745 266.992 141.321 266.992C141.897 266.992 142.371 266.859 142.745 266.592C143.118 266.325 143.39 265.947 143.561 265.456C143.742 264.955 143.833 264.368 143.833 263.696C143.833 263.013 143.742 262.432 143.561 261.952C143.379 261.472 143.102 261.104 142.729 260.848C142.366 260.581 141.891 260.448 141.305 260.448C140.43 260.448 139.795 260.736 139.401 261.312C139.006 261.888 138.809 262.683 138.809 263.696ZM154.144 255.872C154.101 256.405 153.968 256.853 153.744 257.216C153.531 257.579 153.211 257.851 152.784 258.032C152.357 258.213 151.803 258.304 151.12 258.304C150.427 258.304 149.867 258.213 149.44 258.032C149.024 257.851 148.72 257.584 148.528 257.232C148.336 256.869 148.219 256.416 148.176 255.872H149.488C149.541 256.448 149.691 256.837 149.936 257.04C150.192 257.232 150.597 257.328 151.152 257.328C151.643 257.328 152.027 257.227 152.304 257.024C152.592 256.811 152.763 256.427 152.816 255.872H154.144ZM148.528 264.656C148.528 264.752 148.523 264.891 148.512 265.072C148.512 265.243 148.507 265.429 148.496 265.632C148.485 265.824 148.475 266.011 148.464 266.192C148.453 266.363 148.443 266.501 148.432 266.608L153.024 259.424H154.752V268H153.44V262.944C153.44 262.773 153.44 262.549 153.44 262.272C153.451 261.995 153.461 261.723 153.472 261.456C153.483 261.179 153.493 260.971 153.504 260.832L148.944 268H147.2V259.424H148.528V264.656ZM168.355 259.424V268H166.947V260.624H162.515V268H161.107V259.424H168.355ZM174.851 259.264C175.907 259.264 176.755 259.632 177.395 260.368C178.046 261.104 178.371 262.213 178.371 263.696C178.371 264.667 178.222 265.488 177.923 266.16C177.635 266.821 177.225 267.323 176.691 267.664C176.169 267.995 175.55 268.16 174.835 268.16C174.398 268.16 174.009 268.101 173.667 267.984C173.326 267.867 173.033 267.717 172.787 267.536C172.553 267.344 172.35 267.136 172.179 266.912H172.083C172.105 267.093 172.126 267.323 172.147 267.6C172.169 267.877 172.179 268.117 172.179 268.32V271.84H170.771V259.424H171.923L172.115 260.592H172.179C172.35 260.347 172.553 260.123 172.787 259.92C173.033 259.717 173.321 259.557 173.651 259.44C173.993 259.323 174.393 259.264 174.851 259.264ZM174.595 260.448C174.019 260.448 173.555 260.56 173.203 260.784C172.851 260.997 172.595 261.323 172.435 261.76C172.275 262.197 172.19 262.752 172.179 263.424V263.696C172.179 264.4 172.254 264.997 172.403 265.488C172.553 265.979 172.803 266.352 173.155 266.608C173.518 266.864 174.009 266.992 174.627 266.992C175.15 266.992 175.577 266.848 175.907 266.56C176.249 266.272 176.499 265.883 176.659 265.392C176.83 264.891 176.915 264.32 176.915 263.68C176.915 262.699 176.723 261.915 176.339 261.328C175.966 260.741 175.385 260.448 174.595 260.448ZM187.751 263.696C187.751 264.411 187.655 265.045 187.463 265.6C187.282 266.144 187.015 266.608 186.663 266.992C186.322 267.376 185.9 267.669 185.399 267.872C184.908 268.064 184.359 268.16 183.751 268.16C183.186 268.16 182.663 268.064 182.183 267.872C181.703 267.669 181.287 267.376 180.935 266.992C180.583 266.608 180.306 266.144 180.103 265.6C179.911 265.045 179.815 264.411 179.815 263.696C179.815 262.747 179.975 261.947 180.295 261.296C180.615 260.635 181.074 260.133 181.671 259.792C182.268 259.44 182.978 259.264 183.799 259.264C184.578 259.264 185.26 259.44 185.847 259.792C186.444 260.133 186.908 260.635 187.239 261.296C187.58 261.947 187.751 262.747 187.751 263.696ZM181.271 263.696C181.271 264.368 181.356 264.955 181.527 265.456C181.708 265.947 181.986 266.325 182.359 266.592C182.732 266.859 183.207 266.992 183.783 266.992C184.359 266.992 184.834 266.859 185.207 266.592C185.58 266.325 185.852 265.947 186.023 265.456C186.204 264.955 186.295 264.368 186.295 263.696C186.295 263.013 186.204 262.432 186.023 261.952C185.842 261.472 185.564 261.104 185.191 260.848C184.828 260.581 184.354 260.448 183.767 260.448C182.892 260.448 182.258 260.736 181.863 261.312C181.468 261.888 181.271 262.683 181.271 263.696ZM194.895 259.424V260.608H191.071V268H189.663V259.424H194.895ZM200.344 259.264C201.4 259.264 202.248 259.632 202.888 260.368C203.539 261.104 203.864 262.213 203.864 263.696C203.864 264.667 203.715 265.488 203.416 266.16C203.128 266.821 202.718 267.323 202.184 267.664C201.662 267.995 201.043 268.16 200.328 268.16C199.891 268.16 199.502 268.101 199.16 267.984C198.819 267.867 198.526 267.717 198.28 267.536C198.046 267.344 197.843 267.136 197.672 266.912H197.576C197.598 267.093 197.619 267.323 197.64 267.6C197.662 267.877 197.672 268.117 197.672 268.32V271.84H196.264V259.424H197.416L197.608 260.592H197.672C197.843 260.347 198.046 260.123 198.28 259.92C198.526 259.717 198.814 259.557 199.144 259.44C199.486 259.323 199.886 259.264 200.344 259.264ZM200.088 260.448C199.512 260.448 199.048 260.56 198.696 260.784C198.344 260.997 198.088 261.323 197.928 261.76C197.768 262.197 197.683 262.752 197.672 263.424V263.696C197.672 264.4 197.747 264.997 197.896 265.488C198.046 265.979 198.296 266.352 198.648 266.608C199.011 266.864 199.502 266.992 200.12 266.992C200.643 266.992 201.07 266.848 201.4 266.56C201.742 266.272 201.992 265.883 202.152 265.392C202.323 264.891 202.408 264.32 202.408 263.68C202.408 262.699 202.216 261.915 201.832 261.328C201.459 260.741 200.878 260.448 200.088 260.448ZM209.1 259.264C209.836 259.264 210.465 259.424 210.988 259.744C211.521 260.064 211.927 260.517 212.204 261.104C212.492 261.68 212.636 262.357 212.636 263.136V263.984H206.764C206.785 264.955 207.031 265.696 207.5 266.208C207.98 266.709 208.647 266.96 209.5 266.96C210.044 266.96 210.524 266.912 210.94 266.816C211.367 266.709 211.804 266.56 212.252 266.368V267.6C211.815 267.792 211.383 267.931 210.956 268.016C210.529 268.112 210.023 268.16 209.436 268.16C208.625 268.16 207.905 267.995 207.276 267.664C206.657 267.333 206.172 266.843 205.82 266.192C205.479 265.531 205.308 264.725 205.308 263.776C205.308 262.837 205.463 262.032 205.772 261.36C206.092 260.688 206.535 260.171 207.1 259.808C207.676 259.445 208.343 259.264 209.1 259.264ZM209.084 260.416C208.412 260.416 207.879 260.635 207.484 261.072C207.1 261.499 206.871 262.096 206.796 262.864H211.164C211.164 262.373 211.089 261.947 210.94 261.584C210.791 261.221 210.561 260.939 210.252 260.736C209.953 260.523 209.564 260.416 209.084 260.416ZM217.939 268.16C217.182 268.16 216.505 268.005 215.907 267.696C215.321 267.387 214.857 266.907 214.515 266.256C214.185 265.605 214.019 264.773 214.019 263.76C214.019 262.704 214.195 261.845 214.547 261.184C214.899 260.523 215.374 260.037 215.971 259.728C216.579 259.419 217.267 259.264 218.035 259.264C218.473 259.264 218.894 259.312 219.299 259.408C219.705 259.493 220.035 259.6 220.291 259.728L219.859 260.896C219.603 260.8 219.305 260.709 218.963 260.624C218.622 260.539 218.302 260.496 218.003 260.496C217.427 260.496 216.953 260.619 216.579 260.864C216.206 261.109 215.929 261.472 215.747 261.952C215.566 262.432 215.475 263.029 215.475 263.744C215.475 264.427 215.566 265.008 215.747 265.488C215.929 265.968 216.201 266.331 216.563 266.576C216.926 266.821 217.379 266.944 217.923 266.944C218.393 266.944 218.803 266.896 219.155 266.8C219.518 266.704 219.849 266.587 220.147 266.448V267.696C219.859 267.845 219.539 267.957 219.187 268.032C218.846 268.117 218.43 268.16 217.939 268.16ZM225.307 268.16C224.55 268.16 223.872 268.005 223.275 267.696C222.688 267.387 222.224 266.907 221.883 266.256C221.552 265.605 221.387 264.773 221.387 263.76C221.387 262.704 221.563 261.845 221.915 261.184C222.267 260.523 222.742 260.037 223.339 259.728C223.947 259.419 224.635 259.264 225.403 259.264C225.84 259.264 226.262 259.312 226.667 259.408C227.072 259.493 227.403 259.6 227.659 259.728L227.227 260.896C226.971 260.8 226.672 260.709 226.331 260.624C225.99 260.539 225.67 260.496 225.371 260.496C224.795 260.496 224.32 260.619 223.947 260.864C223.574 261.109 223.296 261.472 223.115 261.952C222.934 262.432 222.843 263.029 222.843 263.744C222.843 264.427 222.934 265.008 223.115 265.488C223.296 265.968 223.568 266.331 223.931 266.576C224.294 266.821 224.747 266.944 225.291 266.944C225.76 266.944 226.171 266.896 226.523 266.8C226.886 266.704 227.216 266.587 227.515 266.448V267.696C227.227 267.845 226.907 267.957 226.555 268.032C226.214 268.117 225.798 268.16 225.307 268.16ZM240.076 261.584C240.076 262.117 239.916 262.533 239.596 262.832C239.276 263.131 238.865 263.333 238.364 263.44V263.504C238.897 263.579 239.361 263.771 239.756 264.08C240.151 264.379 240.348 264.848 240.348 265.488C240.348 265.851 240.279 266.187 240.14 266.496C240.012 266.805 239.809 267.072 239.532 267.296C239.255 267.52 238.897 267.696 238.46 267.824C238.023 267.941 237.495 268 236.876 268H233.18V259.424H236.86C237.468 259.424 238.012 259.493 238.492 259.632C238.983 259.76 239.367 259.984 239.644 260.304C239.932 260.613 240.076 261.04 240.076 261.584ZM238.892 265.488C238.892 264.997 238.705 264.645 238.332 264.432C237.959 264.219 237.409 264.112 236.684 264.112H234.588V266.864H236.716C237.42 266.864 237.959 266.763 238.332 266.56C238.705 266.347 238.892 265.989 238.892 265.488ZM238.652 261.76C238.652 261.355 238.503 261.061 238.204 260.88C237.916 260.688 237.441 260.592 236.78 260.592H234.588V262.944H236.524C237.217 262.944 237.745 262.848 238.108 262.656C238.471 262.464 238.652 262.165 238.652 261.76ZM244.68 259.424H246.184L248.04 264.304C248.147 264.592 248.243 264.869 248.328 265.136C248.424 265.403 248.51 265.664 248.584 265.92C248.659 266.165 248.718 266.405 248.76 266.64H248.824C248.888 266.373 248.99 266.027 249.128 265.6C249.267 265.163 249.411 264.725 249.56 264.288L251.304 259.424H252.824L249.128 269.184C248.926 269.717 248.686 270.181 248.408 270.576C248.142 270.981 247.811 271.291 247.416 271.504C247.032 271.728 246.563 271.84 246.008 271.84C245.752 271.84 245.528 271.824 245.336 271.792C245.144 271.771 244.979 271.744 244.84 271.712V270.592C244.958 270.613 245.096 270.635 245.256 270.656C245.427 270.677 245.603 270.688 245.784 270.688C246.115 270.688 246.398 270.624 246.632 270.496C246.878 270.379 247.086 270.203 247.256 269.968C247.427 269.744 247.571 269.477 247.688 269.168L248.136 268.032L244.68 259.424ZM260.076 268H258.652V260.592H256.124C256.017 261.947 255.884 263.104 255.724 264.064C255.564 265.013 255.361 265.787 255.116 266.384C254.871 266.981 254.577 267.419 254.236 267.696C253.895 267.973 253.495 268.112 253.036 268.112C252.897 268.112 252.759 268.101 252.62 268.08C252.492 268.069 252.385 268.043 252.3 268V266.944C252.364 266.965 252.433 266.981 252.508 266.992C252.583 267.003 252.657 267.008 252.732 267.008C252.967 267.008 253.18 266.912 253.372 266.72C253.564 266.528 253.735 266.235 253.884 265.84C254.044 265.445 254.188 264.949 254.316 264.352C254.444 263.744 254.556 263.029 254.652 262.208C254.748 261.387 254.833 260.459 254.908 259.424H260.076V268ZM261.134 259.424H262.638L264.494 264.304C264.601 264.592 264.697 264.869 264.782 265.136C264.878 265.403 264.963 265.664 265.038 265.92C265.113 266.165 265.171 266.405 265.214 266.64H265.278C265.342 266.373 265.443 266.027 265.582 265.6C265.721 265.163 265.865 264.725 266.014 264.288L267.758 259.424H269.278L265.582 269.184C265.379 269.717 265.139 270.181 264.862 270.576C264.595 270.981 264.265 271.291 263.87 271.504C263.486 271.728 263.017 271.84 262.462 271.84C262.206 271.84 261.982 271.824 261.79 271.792C261.598 271.771 261.433 271.744 261.294 271.712V270.592C261.411 270.613 261.55 270.635 261.71 270.656C261.881 270.677 262.057 270.688 262.238 270.688C262.569 270.688 262.851 270.624 263.086 270.496C263.331 270.379 263.539 270.203 263.71 269.968C263.881 269.744 264.025 269.477 264.142 269.168L264.59 268.032L261.134 259.424ZM271.546 262.544C271.546 263.045 271.685 263.419 271.962 263.664C272.25 263.899 272.661 264.016 273.194 264.016C273.728 264.016 274.213 263.936 274.65 263.776C275.088 263.605 275.536 263.381 275.994 263.104V259.424H277.402V268H275.994V264.176C275.514 264.485 275.04 264.731 274.57 264.912C274.112 265.083 273.557 265.168 272.906 265.168C272.032 265.168 271.349 264.939 270.858 264.48C270.378 264.021 270.138 263.408 270.138 262.64V259.424H271.546V262.544ZM291.439 259.424V268H279.807V259.424H281.215V266.816H284.911V259.424H286.319V266.816H290.031V259.424H291.439ZM297.174 259.264C297.91 259.264 298.539 259.424 299.062 259.744C299.595 260.064 300.001 260.517 300.278 261.104C300.566 261.68 300.71 262.357 300.71 263.136V263.984H294.838C294.859 264.955 295.105 265.696 295.574 266.208C296.054 266.709 296.721 266.96 297.574 266.96C298.118 266.96 298.598 266.912 299.014 266.816C299.441 266.709 299.878 266.56 300.326 266.368V267.6C299.889 267.792 299.457 267.931 299.03 268.016C298.603 268.112 298.097 268.16 297.51 268.16C296.699 268.16 295.979 267.995 295.35 267.664C294.731 267.333 294.246 266.843 293.894 266.192C293.553 265.531 293.382 264.725 293.382 263.776C293.382 262.837 293.537 262.032 293.846 261.36C294.166 260.688 294.609 260.171 295.174 259.808C295.75 259.445 296.417 259.264 297.174 259.264ZM297.158 260.416C296.486 260.416 295.953 260.635 295.558 261.072C295.174 261.499 294.945 262.096 294.87 262.864H299.238C299.238 262.373 299.163 261.947 299.014 261.584C298.865 261.221 298.635 260.939 298.326 260.736C298.027 260.523 297.638 260.416 297.158 260.416ZM303.981 259.424V262.992H308.637V259.424H310.045V268H308.637V264.176H303.981V268H302.573V259.424H303.981ZM313.769 264.656C313.769 264.752 313.763 264.891 313.753 265.072C313.753 265.243 313.747 265.429 313.737 265.632C313.726 265.824 313.715 266.011 313.705 266.192C313.694 266.363 313.683 266.501 313.673 266.608L318.265 259.424H319.993V268H318.681V262.944C318.681 262.773 318.681 262.549 318.681 262.272C318.691 261.995 318.702 261.723 318.713 261.456C318.723 261.179 318.734 260.971 318.745 260.832L314.185 268H312.441V259.424H313.769V264.656ZM323.73 264.656C323.73 264.752 323.725 264.891 323.714 265.072C323.714 265.243 323.709 265.429 323.698 265.632C323.687 265.824 323.677 266.011 323.666 266.192C323.655 266.363 323.645 266.501 323.634 266.608L328.226 259.424H329.954V268H328.642V262.944C328.642 262.773 328.642 262.549 328.642 262.272C328.653 261.995 328.663 261.723 328.674 261.456C328.685 261.179 328.695 260.971 328.706 260.832L324.146 268H322.402V259.424H323.73V264.656ZM40.8 297.16C40.0427 297.16 39.3653 297.005 38.768 296.696C38.1813 296.387 37.7173 295.907 37.376 295.256C37.0453 294.605 36.88 293.773 36.88 292.76C36.88 291.704 37.056 290.845 37.408 290.184C37.76 289.523 38.2347 289.037 38.832 288.728C39.44 288.419 40.128 288.264 40.896 288.264C41.3333 288.264 41.7547 288.312 42.16 288.408C42.5653 288.493 42.896 288.6 43.152 288.728L42.72 289.896C42.464 289.8 42.1653 289.709 41.824 289.624C41.4827 289.539 41.1627 289.496 40.864 289.496C40.288 289.496 39.8133 289.619 39.44 289.864C39.0667 290.109 38.7893 290.472 38.608 290.952C38.4267 291.432 38.336 292.029 38.336 292.744C38.336 293.427 38.4267 294.008 38.608 294.488C38.7893 294.968 39.0613 295.331 39.424 295.576C39.7867 295.821 40.24 295.944 40.784 295.944C41.2533 295.944 41.664 295.896 42.016 295.8C42.3787 295.704 42.7093 295.587 43.008 295.448V296.696C42.72 296.845 42.4 296.957 42.048 297.032C41.7067 297.117 41.2907 297.16 40.8 297.16ZM51.6235 290.584C51.6235 291.117 51.4635 291.533 51.1435 291.832C50.8235 292.131 50.4128 292.333 49.9115 292.44V292.504C50.4448 292.579 50.9088 292.771 51.3035 293.08C51.6982 293.379 51.8955 293.848 51.8955 294.488C51.8955 294.851 51.8262 295.187 51.6875 295.496C51.5595 295.805 51.3568 296.072 51.0795 296.296C50.8022 296.52 50.4448 296.696 50.0075 296.824C49.5702 296.941 49.0422 297 48.4235 297H44.7275V288.424H48.4075C49.0155 288.424 49.5595 288.493 50.0395 288.632C50.5302 288.76 50.9142 288.984 51.1915 289.304C51.4795 289.613 51.6235 290.04 51.6235 290.584ZM50.4395 294.488C50.4395 293.997 50.2528 293.645 49.8795 293.432C49.5062 293.219 48.9568 293.112 48.2315 293.112H46.1355V295.864H48.2635C48.9675 295.864 49.5062 295.763 49.8795 295.56C50.2528 295.347 50.4395 294.989 50.4395 294.488ZM50.1995 290.76C50.1995 290.355 50.0502 290.061 49.7515 289.88C49.4635 289.688 48.9888 289.592 48.3275 289.592H46.1355V291.944H48.0715C48.7648 291.944 49.2928 291.848 49.6555 291.656C50.0182 291.464 50.1995 291.165 50.1995 290.76ZM61.0823 292.696C61.0823 293.411 60.9863 294.045 60.7943 294.6C60.6129 295.144 60.3463 295.608 59.9943 295.992C59.6529 296.376 59.2316 296.669 58.7303 296.872C58.2396 297.064 57.6903 297.16 57.0823 297.16C56.5169 297.16 55.9943 297.064 55.5143 296.872C55.0343 296.669 54.6183 296.376 54.2663 295.992C53.9143 295.608 53.6369 295.144 53.4343 294.6C53.2423 294.045 53.1463 293.411 53.1463 292.696C53.1463 291.747 53.3063 290.947 53.6263 290.296C53.9463 289.635 54.4049 289.133 55.0023 288.792C55.5996 288.44 56.3089 288.264 57.1303 288.264C57.9089 288.264 58.5916 288.44 59.1783 288.792C59.7756 289.133 60.2396 289.635 60.5703 290.296C60.9116 290.947 61.0823 291.747 61.0823 292.696ZM54.6023 292.696C54.6023 293.368 54.6876 293.955 54.8583 294.456C55.0396 294.947 55.3169 295.325 55.6903 295.592C56.0636 295.859 56.5383 295.992 57.1143 295.992C57.6903 295.992 58.1649 295.859 58.5383 295.592C58.9116 295.325 59.1836 294.947 59.3543 294.456C59.5356 293.955 59.6263 293.368 59.6263 292.696C59.6263 292.013 59.5356 291.432 59.3543 290.952C59.1729 290.472 58.8956 290.104 58.5223 289.848C58.1596 289.581 57.6849 289.448 57.0983 289.448C56.2236 289.448 55.5889 289.736 55.1943 290.312C54.7996 290.888 54.6023 291.683 54.6023 292.696ZM66.3058 288.264C67.0418 288.264 67.6711 288.424 68.1938 288.744C68.7271 289.064 69.1324 289.517 69.4098 290.104C69.6978 290.68 69.8418 291.357 69.8418 292.136V292.984H63.9698C63.9911 293.955 64.2364 294.696 64.7058 295.208C65.1858 295.709 65.8524 295.96 66.7058 295.96C67.2498 295.96 67.7298 295.912 68.1458 295.816C68.5724 295.709 69.0098 295.56 69.4578 295.368V296.6C69.0204 296.792 68.5884 296.931 68.1618 297.016C67.7351 297.112 67.2284 297.16 66.6418 297.16C65.8311 297.16 65.1111 296.995 64.4818 296.664C63.8631 296.333 63.3778 295.843 63.0258 295.192C62.6844 294.531 62.5138 293.725 62.5138 292.776C62.5138 291.837 62.6684 291.032 62.9778 290.36C63.2978 289.688 63.7404 289.171 64.3058 288.808C64.8818 288.445 65.5484 288.264 66.3058 288.264ZM66.2898 289.416C65.6178 289.416 65.0844 289.635 64.6898 290.072C64.3058 290.499 64.0764 291.096 64.0018 291.864H68.3698C68.3698 291.373 68.2951 290.947 68.1458 290.584C67.9964 290.221 67.7671 289.939 67.4578 289.736C67.1591 289.523 66.7698 289.416 66.2898 289.416ZM76.937 288.424V289.608H73.113V297H71.705V288.424H76.937ZM85.6066 292.696C85.6066 293.411 85.5106 294.045 85.3186 294.6C85.1373 295.144 84.8706 295.608 84.5186 295.992C84.1773 296.376 83.756 296.669 83.2546 296.872C82.764 297.064 82.2146 297.16 81.6066 297.16C81.0413 297.16 80.5186 297.064 80.0386 296.872C79.5586 296.669 79.1426 296.376 78.7906 295.992C78.4386 295.608 78.1613 295.144 77.9586 294.6C77.7666 294.045 77.6706 293.411 77.6706 292.696C77.6706 291.747 77.8306 290.947 78.1506 290.296C78.4706 289.635 78.9293 289.133 79.5266 288.792C80.124 288.44 80.8333 288.264 81.6546 288.264C82.4333 288.264 83.116 288.44 83.7026 288.792C84.3 289.133 84.764 289.635 85.0946 290.296C85.436 290.947 85.6066 291.747 85.6066 292.696ZM79.1266 292.696C79.1266 293.368 79.212 293.955 79.3826 294.456C79.564 294.947 79.8413 295.325 80.2146 295.592C80.588 295.859 81.0626 295.992 81.6386 295.992C82.2146 295.992 82.6893 295.859 83.0626 295.592C83.436 295.325 83.708 294.947 83.8786 294.456C84.06 293.955 84.1506 293.368 84.1506 292.696C84.1506 292.013 84.06 291.432 83.8786 290.952C83.6973 290.472 83.42 290.104 83.0466 289.848C82.684 289.581 82.2093 289.448 81.6226 289.448C80.748 289.448 80.1133 289.736 79.7186 290.312C79.324 290.888 79.1266 291.683 79.1266 292.696ZM93.7197 288.264C94.3704 288.264 94.9357 288.355 95.4157 288.536C95.8957 288.707 96.2691 288.963 96.5357 289.304C96.8024 289.635 96.9357 290.04 96.9357 290.52C96.9357 291.043 96.7917 291.459 96.5037 291.768C96.2157 292.067 95.8211 292.285 95.3197 292.424V292.488C95.6611 292.584 95.9757 292.717 96.2637 292.888C96.5517 293.059 96.7811 293.283 96.9517 293.56C97.1331 293.837 97.2237 294.195 97.2237 294.632C97.2237 295.101 97.0904 295.528 96.8237 295.912C96.5677 296.296 96.1677 296.6 95.6237 296.824C95.0904 297.048 94.4024 297.16 93.5597 297.16C93.1544 297.16 92.7651 297.139 92.3917 297.096C92.0291 297.053 91.6984 296.989 91.3997 296.904C91.1117 296.819 90.8557 296.717 90.6317 296.6V295.336C90.9944 295.507 91.4211 295.661 91.9117 295.8C92.4131 295.939 92.9571 296.008 93.5437 296.008C93.9704 296.008 94.3544 295.96 94.6957 295.864C95.0477 295.768 95.3251 295.619 95.5277 295.416C95.7304 295.203 95.8317 294.915 95.8317 294.552C95.8317 294.221 95.7411 293.955 95.5597 293.752C95.3784 293.539 95.1064 293.379 94.7437 293.272C94.3917 293.165 93.9384 293.112 93.3837 293.112H92.2317V291.96H93.1597C93.8957 291.96 94.4824 291.864 94.9197 291.672C95.3677 291.469 95.5917 291.128 95.5917 290.648C95.5917 290.243 95.4211 289.939 95.0797 289.736C94.7491 289.533 94.2691 289.432 93.6397 289.432C93.1704 289.432 92.7544 289.48 92.3917 289.576C92.0397 289.661 91.6504 289.795 91.2237 289.976L90.7277 288.856C91.1864 288.653 91.6664 288.504 92.1677 288.408C92.6691 288.312 93.1864 288.264 93.7197 288.264ZM105.355 288.424V295.816H106.603V299.976H105.243V297H99.2755V299.976H97.9315V295.816H98.6195C99.1102 295.133 99.5155 294.392 99.8355 293.592C100.166 292.781 100.411 291.939 100.571 291.064C100.742 290.179 100.833 289.299 100.843 288.424H105.355ZM102.091 289.528C102.049 290.253 101.937 291.005 101.755 291.784C101.574 292.552 101.339 293.288 101.051 293.992C100.774 294.696 100.449 295.304 100.075 295.816H103.995V289.528H102.091ZM115.42 292.696C115.42 293.411 115.324 294.045 115.132 294.6C114.951 295.144 114.684 295.608 114.332 295.992C113.991 296.376 113.57 296.669 113.068 296.872C112.578 297.064 112.028 297.16 111.42 297.16C110.855 297.16 110.332 297.064 109.852 296.872C109.372 296.669 108.956 296.376 108.604 295.992C108.252 295.608 107.975 295.144 107.772 294.6C107.58 294.045 107.484 293.411 107.484 292.696C107.484 291.747 107.644 290.947 107.964 290.296C108.284 289.635 108.743 289.133 109.34 288.792C109.938 288.44 110.647 288.264 111.468 288.264C112.247 288.264 112.93 288.44 113.516 288.792C114.114 289.133 114.578 289.635 114.908 290.296C115.25 290.947 115.42 291.747 115.42 292.696ZM108.94 292.696C108.94 293.368 109.026 293.955 109.196 294.456C109.378 294.947 109.655 295.325 110.028 295.592C110.402 295.859 110.876 295.992 111.452 295.992C112.028 295.992 112.503 295.859 112.876 295.592C113.25 295.325 113.522 294.947 113.692 294.456C113.874 293.955 113.964 293.368 113.964 292.696C113.964 292.013 113.874 291.432 113.692 290.952C113.511 290.472 113.234 290.104 112.86 289.848C112.498 289.581 112.023 289.448 111.436 289.448C110.562 289.448 109.927 289.736 109.532 290.312C109.138 290.888 108.94 291.683 108.94 292.696ZM121.412 288.264C122.468 288.264 123.316 288.632 123.956 289.368C124.607 290.104 124.932 291.213 124.932 292.696C124.932 293.667 124.783 294.488 124.484 295.16C124.196 295.821 123.785 296.323 123.252 296.664C122.729 296.995 122.111 297.16 121.396 297.16C120.959 297.16 120.569 297.101 120.228 296.984C119.887 296.867 119.593 296.717 119.348 296.536C119.113 296.344 118.911 296.136 118.74 295.912H118.644C118.665 296.093 118.687 296.323 118.708 296.6C118.729 296.877 118.74 297.117 118.74 297.32V300.84H117.332V288.424H118.484L118.676 289.592H118.74C118.911 289.347 119.113 289.123 119.348 288.92C119.593 288.717 119.881 288.557 120.212 288.44C120.553 288.323 120.953 288.264 121.412 288.264ZM121.156 289.448C120.58 289.448 120.116 289.56 119.764 289.784C119.412 289.997 119.156 290.323 118.996 290.76C118.836 291.197 118.751 291.752 118.74 292.424V292.696C118.74 293.4 118.815 293.997 118.964 294.488C119.113 294.979 119.364 295.352 119.716 295.608C120.079 295.864 120.569 295.992 121.188 295.992C121.711 295.992 122.137 295.848 122.468 295.56C122.809 295.272 123.06 294.883 123.22 294.392C123.391 293.891 123.476 293.32 123.476 292.68C123.476 291.699 123.284 290.915 122.9 290.328C122.527 289.741 121.945 289.448 121.156 289.448ZM134.312 292.696C134.312 293.411 134.216 294.045 134.024 294.6C133.842 295.144 133.576 295.608 133.224 295.992C132.882 296.376 132.461 296.669 131.96 296.872C131.469 297.064 130.92 297.16 130.312 297.16C129.746 297.16 129.224 297.064 128.744 296.872C128.264 296.669 127.848 296.376 127.496 295.992C127.144 295.608 126.866 295.144 126.664 294.6C126.472 294.045 126.376 293.411 126.376 292.696C126.376 291.747 126.536 290.947 126.856 290.296C127.176 289.635 127.634 289.133 128.232 288.792C128.829 288.44 129.538 288.264 130.36 288.264C131.138 288.264 131.821 288.44 132.408 288.792C133.005 289.133 133.469 289.635 133.8 290.296C134.141 290.947 134.312 291.747 134.312 292.696ZM127.832 292.696C127.832 293.368 127.917 293.955 128.088 294.456C128.269 294.947 128.546 295.325 128.92 295.592C129.293 295.859 129.768 295.992 130.344 295.992C130.92 295.992 131.394 295.859 131.768 295.592C132.141 295.325 132.413 294.947 132.584 294.456C132.765 293.955 132.856 293.368 132.856 292.696C132.856 292.013 132.765 291.432 132.584 290.952C132.402 290.472 132.125 290.104 131.752 289.848C131.389 289.581 130.914 289.448 130.328 289.448C129.453 289.448 128.818 289.736 128.424 290.312C128.029 290.888 127.832 291.683 127.832 292.696ZM143.119 290.584C143.119 291.117 142.959 291.533 142.639 291.832C142.319 292.131 141.908 292.333 141.407 292.44V292.504C141.94 292.579 142.404 292.771 142.799 293.08C143.194 293.379 143.391 293.848 143.391 294.488C143.391 294.851 143.322 295.187 143.183 295.496C143.055 295.805 142.852 296.072 142.575 296.296C142.298 296.52 141.94 296.696 141.503 296.824C141.066 296.941 140.538 297 139.919 297H136.223V288.424H139.903C140.511 288.424 141.055 288.493 141.535 288.632C142.026 288.76 142.41 288.984 142.687 289.304C142.975 289.613 143.119 290.04 143.119 290.584ZM141.935 294.488C141.935 293.997 141.748 293.645 141.375 293.432C141.002 293.219 140.452 293.112 139.727 293.112H137.631V295.864H139.759C140.463 295.864 141.002 295.763 141.375 295.56C141.748 295.347 141.935 294.989 141.935 294.488ZM141.695 290.76C141.695 290.355 141.546 290.061 141.247 289.88C140.959 289.688 140.484 289.592 139.823 289.592H137.631V291.944H139.567C140.26 291.944 140.788 291.848 141.151 291.656C141.514 291.464 141.695 291.165 141.695 290.76ZM149.074 291.944C149.821 291.944 150.439 292.035 150.93 292.216C151.421 292.397 151.789 292.669 152.034 293.032C152.29 293.384 152.418 293.832 152.418 294.376C152.418 294.909 152.295 295.373 152.05 295.768C151.815 296.163 151.447 296.467 150.946 296.68C150.445 296.893 149.799 297 149.01 297H145.122V288.424H146.53V291.944H149.074ZM151.01 294.456C151.01 293.933 150.823 293.581 150.45 293.4C150.087 293.208 149.575 293.112 148.914 293.112H146.53V295.864H148.946C149.543 295.864 150.034 295.757 150.418 295.544C150.813 295.331 151.01 294.968 151.01 294.456ZM154.83 297H153.198L155.646 293.4C155.315 293.315 154.995 293.181 154.686 293C154.377 292.808 154.126 292.547 153.934 292.216C153.742 291.875 153.646 291.453 153.646 290.952C153.646 290.131 153.923 289.507 154.478 289.08C155.033 288.643 155.769 288.424 156.686 288.424H160.526V297H159.118V293.592H157.038L154.83 297ZM155.006 290.968C155.006 291.459 155.187 291.827 155.55 292.072C155.923 292.307 156.441 292.424 157.102 292.424H159.118V289.592H156.83C156.179 289.592 155.71 289.72 155.422 289.976C155.145 290.232 155.006 290.563 155.006 290.968ZM168.193 293.656C168.193 293.752 168.188 293.891 168.177 294.072C168.177 294.243 168.172 294.429 168.161 294.632C168.15 294.824 168.14 295.011 168.129 295.192C168.118 295.363 168.108 295.501 168.097 295.608L172.689 288.424H174.417V297H173.105V291.944C173.105 291.773 173.105 291.549 173.105 291.272C173.116 290.995 173.126 290.723 173.137 290.456C173.148 290.179 173.158 289.971 173.169 289.832L168.609 297H166.865V288.424H168.193V293.656ZM185.892 288.296C186.745 288.371 187.487 288.595 188.116 288.968C188.756 289.341 189.252 289.843 189.604 290.472C189.956 291.101 190.132 291.848 190.132 292.712C190.132 293.576 189.961 294.328 189.62 294.968C189.279 295.597 188.793 296.099 188.164 296.472C187.535 296.835 186.777 297.053 185.892 297.128V300.84H184.516V297.128C183.673 297.053 182.932 296.835 182.292 296.472C181.652 296.099 181.156 295.597 180.804 294.968C180.452 294.328 180.276 293.576 180.276 292.712C180.276 291.837 180.447 291.085 180.788 290.456C181.129 289.816 181.62 289.315 182.26 288.952C182.9 288.579 183.668 288.36 184.564 288.296V284.84H185.892V288.296ZM184.564 289.464C183.913 289.528 183.38 289.693 182.964 289.96C182.548 290.227 182.239 290.589 182.036 291.048C181.844 291.507 181.748 292.061 181.748 292.712C181.748 293.352 181.844 293.907 182.036 294.376C182.239 294.835 182.548 295.203 182.964 295.48C183.38 295.747 183.913 295.912 184.564 295.976V289.464ZM185.892 295.976C186.532 295.901 187.055 295.731 187.46 295.464C187.876 295.197 188.18 294.835 188.372 294.376C188.575 293.907 188.676 293.352 188.676 292.712C188.676 292.072 188.575 291.523 188.372 291.064C188.169 290.605 187.86 290.243 187.444 289.976C187.039 289.709 186.521 289.544 185.892 289.48V295.976ZM193.374 293.656C193.374 293.752 193.368 293.891 193.358 294.072C193.358 294.243 193.352 294.429 193.342 294.632C193.331 294.824 193.32 295.011 193.31 295.192C193.299 295.363 193.288 295.501 193.278 295.608L197.87 288.424H199.598V297H198.286V291.944C198.286 291.773 198.286 291.549 198.286 291.272C198.296 290.995 198.307 290.723 198.318 290.456C198.328 290.179 198.339 289.971 198.35 289.832L193.79 297H192.046V288.424H193.374V293.656ZM204.263 288.264C204.914 288.264 205.479 288.355 205.959 288.536C206.439 288.707 206.812 288.963 207.079 289.304C207.346 289.635 207.479 290.04 207.479 290.52C207.479 291.043 207.335 291.459 207.047 291.768C206.759 292.067 206.364 292.285 205.863 292.424V292.488C206.204 292.584 206.519 292.717 206.807 292.888C207.095 293.059 207.324 293.283 207.495 293.56C207.676 293.837 207.767 294.195 207.767 294.632C207.767 295.101 207.634 295.528 207.367 295.912C207.111 296.296 206.711 296.6 206.167 296.824C205.634 297.048 204.946 297.16 204.103 297.16C203.698 297.16 203.308 297.139 202.935 297.096C202.572 297.053 202.242 296.989 201.943 296.904C201.655 296.819 201.399 296.717 201.175 296.6V295.336C201.538 295.507 201.964 295.661 202.455 295.8C202.956 295.939 203.5 296.008 204.087 296.008C204.514 296.008 204.898 295.96 205.239 295.864C205.591 295.768 205.868 295.619 206.071 295.416C206.274 295.203 206.375 294.915 206.375 294.552C206.375 294.221 206.284 293.955 206.103 293.752C205.922 293.539 205.65 293.379 205.287 293.272C204.935 293.165 204.482 293.112 203.927 293.112H202.775V291.96H203.703C204.439 291.96 205.026 291.864 205.463 291.672C205.911 291.469 206.135 291.128 206.135 290.648C206.135 290.243 205.964 289.939 205.623 289.736C205.292 289.533 204.812 289.432 204.183 289.432C203.714 289.432 203.298 289.48 202.935 289.576C202.583 289.661 202.194 289.795 201.767 289.976L201.271 288.856C201.73 288.653 202.21 288.504 202.711 288.408C203.212 288.312 203.73 288.264 204.263 288.264ZM210.859 293.656C210.859 293.752 210.853 293.891 210.843 294.072C210.843 294.243 210.837 294.429 210.827 294.632C210.816 294.824 210.805 295.011 210.795 295.192C210.784 295.363 210.773 295.501 210.763 295.608L215.355 288.424H217.083V297H215.771V291.944C215.771 291.773 215.771 291.549 215.771 291.272C215.781 290.995 215.792 290.723 215.803 290.456C215.813 290.179 215.824 289.971 215.835 289.832L211.275 297H209.531V288.424H210.859V293.656ZM220.724 291.544C220.724 292.045 220.863 292.419 221.14 292.664C221.428 292.899 221.839 293.016 222.372 293.016C222.905 293.016 223.391 292.936 223.828 292.776C224.265 292.605 224.713 292.381 225.172 292.104V288.424H226.58V297H225.172V293.176C224.692 293.485 224.217 293.731 223.748 293.912C223.289 294.083 222.735 294.168 222.084 294.168C221.209 294.168 220.527 293.939 220.036 293.48C219.556 293.021 219.316 292.408 219.316 291.64V288.424H220.724V291.544ZM232.296 288.264C233.032 288.264 233.662 288.424 234.184 288.744C234.718 289.064 235.123 289.517 235.4 290.104C235.688 290.68 235.832 291.357 235.832 292.136V292.984H229.96C229.982 293.955 230.227 294.696 230.696 295.208C231.176 295.709 231.843 295.96 232.696 295.96C233.24 295.96 233.72 295.912 234.136 295.816C234.563 295.709 235 295.56 235.448 295.368V296.6C235.011 296.792 234.579 296.931 234.152 297.016C233.726 297.112 233.219 297.16 232.632 297.16C231.822 297.16 231.102 296.995 230.472 296.664C229.854 296.333 229.368 295.843 229.016 295.192C228.675 294.531 228.504 293.725 228.504 292.776C228.504 291.837 228.659 291.032 228.968 290.36C229.288 289.688 229.731 289.171 230.296 288.808C230.872 288.445 231.539 288.264 232.296 288.264ZM232.28 289.416C231.608 289.416 231.075 289.635 230.68 290.072C230.296 290.499 230.067 291.096 229.992 291.864H234.36C234.36 291.373 234.286 290.947 234.136 290.584C233.987 290.221 233.758 289.939 233.448 289.736C233.15 289.523 232.76 289.416 232.28 289.416ZM241.136 297.16C240.378 297.16 239.701 297.005 239.104 296.696C238.517 296.387 238.053 295.907 237.712 295.256C237.381 294.605 237.216 293.773 237.216 292.76C237.216 291.704 237.392 290.845 237.744 290.184C238.096 289.523 238.57 289.037 239.168 288.728C239.776 288.419 240.464 288.264 241.232 288.264C241.669 288.264 242.09 288.312 242.496 288.408C242.901 288.493 243.232 288.6 243.488 288.728L243.056 289.896C242.8 289.8 242.501 289.709 242.16 289.624C241.818 289.539 241.498 289.496 241.2 289.496C240.624 289.496 240.149 289.619 239.776 289.864C239.402 290.109 239.125 290.472 238.944 290.952C238.762 291.432 238.672 292.029 238.672 292.744C238.672 293.427 238.762 294.008 238.944 294.488C239.125 294.968 239.397 295.331 239.76 295.576C240.122 295.821 240.576 295.944 241.12 295.944C241.589 295.944 242 295.896 242.352 295.8C242.714 295.704 243.045 295.587 243.344 295.448V296.696C243.056 296.845 242.736 296.957 242.384 297.032C242.042 297.117 241.626 297.16 241.136 297.16ZM250.135 288.424H251.671L248.007 292.552L251.975 297H250.343L246.471 292.648V297H245.063V288.424H246.471V292.584L250.135 288.424ZM260.355 292.696C260.355 293.411 260.259 294.045 260.067 294.6C259.886 295.144 259.619 295.608 259.267 295.992C258.926 296.376 258.505 296.669 258.003 296.872C257.513 297.064 256.963 297.16 256.355 297.16C255.79 297.16 255.267 297.064 254.787 296.872C254.307 296.669 253.891 296.376 253.539 295.992C253.187 295.608 252.91 295.144 252.707 294.6C252.515 294.045 252.419 293.411 252.419 292.696C252.419 291.747 252.579 290.947 252.899 290.296C253.219 289.635 253.678 289.133 254.275 288.792C254.873 288.44 255.582 288.264 256.403 288.264C257.182 288.264 257.865 288.44 258.451 288.792C259.049 289.133 259.513 289.635 259.843 290.296C260.185 290.947 260.355 291.747 260.355 292.696ZM253.875 292.696C253.875 293.368 253.961 293.955 254.131 294.456C254.313 294.947 254.59 295.325 254.963 295.592C255.337 295.859 255.811 295.992 256.387 295.992C256.963 295.992 257.438 295.859 257.811 295.592C258.185 295.325 258.457 294.947 258.627 294.456C258.809 293.955 258.899 293.368 258.899 292.696C258.899 292.013 258.809 291.432 258.627 290.952C258.446 290.472 258.169 290.104 257.795 289.848C257.433 289.581 256.958 289.448 256.371 289.448C255.497 289.448 254.862 289.736 254.467 290.312C254.073 290.888 253.875 291.683 253.875 292.696ZM269.211 284.872C269.168 285.405 269.035 285.853 268.811 286.216C268.598 286.579 268.278 286.851 267.851 287.032C267.424 287.213 266.87 287.304 266.187 287.304C265.494 287.304 264.934 287.213 264.507 287.032C264.091 286.851 263.787 286.584 263.595 286.232C263.403 285.869 263.286 285.416 263.243 284.872H264.555C264.608 285.448 264.758 285.837 265.003 286.04C265.259 286.232 265.664 286.328 266.219 286.328C266.71 286.328 267.094 286.227 267.371 286.024C267.659 285.811 267.83 285.427 267.883 284.872H269.211ZM263.595 293.656C263.595 293.752 263.59 293.891 263.579 294.072C263.579 294.243 263.574 294.429 263.563 294.632C263.552 294.824 263.542 295.011 263.531 295.192C263.52 295.363 263.51 295.501 263.499 295.608L268.091 288.424H269.819V297H268.507V291.944C268.507 291.773 268.507 291.549 268.507 291.272C268.518 290.995 268.528 290.723 268.539 290.456C268.55 290.179 268.56 289.971 268.571 289.832L264.011 297H262.267V288.424H263.595V293.656ZM281.294 288.296C282.147 288.371 282.888 288.595 283.518 288.968C284.158 289.341 284.654 289.843 285.006 290.472C285.358 291.101 285.534 291.848 285.534 292.712C285.534 293.576 285.363 294.328 285.022 294.968C284.68 295.597 284.195 296.099 283.566 296.472C282.936 296.835 282.179 297.053 281.294 297.128V300.84H279.918V297.128C279.075 297.053 278.334 296.835 277.694 296.472C277.054 296.099 276.558 295.597 276.206 294.968C275.854 294.328 275.678 293.576 275.678 292.712C275.678 291.837 275.848 291.085 276.19 290.456C276.531 289.816 277.022 289.315 277.662 288.952C278.302 288.579 279.07 288.36 279.966 288.296V284.84H281.294V288.296ZM279.966 289.464C279.315 289.528 278.782 289.693 278.366 289.96C277.95 290.227 277.64 290.589 277.438 291.048C277.246 291.507 277.15 292.061 277.15 292.712C277.15 293.352 277.246 293.907 277.438 294.376C277.64 294.835 277.95 295.203 278.366 295.48C278.782 295.747 279.315 295.912 279.966 295.976V289.464ZM281.294 295.976C281.934 295.901 282.456 295.731 282.862 295.464C283.278 295.197 283.582 294.835 283.774 294.376C283.976 293.907 284.078 293.352 284.078 292.712C284.078 292.072 283.976 291.523 283.774 291.064C283.571 290.605 283.262 290.243 282.846 289.976C282.44 289.709 281.923 289.544 281.294 289.48V295.976ZM294.903 292.696C294.903 293.411 294.807 294.045 294.615 294.6C294.434 295.144 294.167 295.608 293.815 295.992C293.474 296.376 293.053 296.669 292.551 296.872C292.061 297.064 291.511 297.16 290.903 297.16C290.338 297.16 289.815 297.064 289.335 296.872C288.855 296.669 288.439 296.376 288.087 295.992C287.735 295.608 287.458 295.144 287.255 294.6C287.063 294.045 286.967 293.411 286.967 292.696C286.967 291.747 287.127 290.947 287.447 290.296C287.767 289.635 288.226 289.133 288.823 288.792C289.421 288.44 290.13 288.264 290.951 288.264C291.73 288.264 292.413 288.44 292.999 288.792C293.597 289.133 294.061 289.635 294.391 290.296C294.733 290.947 294.903 291.747 294.903 292.696ZM288.423 292.696C288.423 293.368 288.509 293.955 288.679 294.456C288.861 294.947 289.138 295.325 289.511 295.592C289.885 295.859 290.359 295.992 290.935 295.992C291.511 295.992 291.986 295.859 292.359 295.592C292.733 295.325 293.005 294.947 293.175 294.456C293.357 293.955 293.447 293.368 293.447 292.696C293.447 292.013 293.357 291.432 293.175 290.952C292.994 290.472 292.717 290.104 292.343 289.848C291.981 289.581 291.506 289.448 290.919 289.448C290.045 289.448 289.41 289.736 289.015 290.312C288.621 290.888 288.423 291.683 288.423 292.696ZM300.895 288.264C301.951 288.264 302.799 288.632 303.439 289.368C304.09 290.104 304.415 291.213 304.415 292.696C304.415 293.667 304.266 294.488 303.967 295.16C303.679 295.821 303.268 296.323 302.735 296.664C302.212 296.995 301.594 297.16 300.879 297.16C300.442 297.16 300.052 297.101 299.711 296.984C299.37 296.867 299.076 296.717 298.831 296.536C298.596 296.344 298.394 296.136 298.223 295.912H298.127C298.148 296.093 298.17 296.323 298.191 296.6C298.212 296.877 298.223 297.117 298.223 297.32V300.84H296.815V288.424H297.967L298.159 289.592H298.223C298.394 289.347 298.596 289.123 298.831 288.92C299.076 288.717 299.364 288.557 299.695 288.44C300.036 288.323 300.436 288.264 300.895 288.264ZM300.639 289.448C300.063 289.448 299.599 289.56 299.247 289.784C298.895 289.997 298.639 290.323 298.479 290.76C298.319 291.197 298.234 291.752 298.223 292.424V292.696C298.223 293.4 298.298 293.997 298.447 294.488C298.596 294.979 298.847 295.352 299.199 295.608C299.562 295.864 300.052 295.992 300.671 295.992C301.194 295.992 301.62 295.848 301.951 295.56C302.292 295.272 302.543 294.883 302.703 294.392C302.874 293.891 302.959 293.32 302.959 292.68C302.959 291.699 302.767 290.915 302.383 290.328C302.01 289.741 301.428 289.448 300.639 289.448ZM315.539 288.424V297H314.275V291.528C314.275 291.304 314.28 291.069 314.291 290.824C314.312 290.579 314.333 290.339 314.355 290.104H314.307L311.507 297H310.323L307.603 290.104H307.555C307.576 290.339 307.587 290.579 307.587 290.824C307.597 291.069 307.603 291.32 307.603 291.576V297H306.339V288.424H308.211L310.915 295.32L313.667 288.424H315.539ZM317.956 297V288.424H319.364V291.944H321.588C322.335 291.944 322.948 292.035 323.428 292.216C323.908 292.397 324.266 292.669 324.5 293.032C324.735 293.384 324.852 293.832 324.852 294.376C324.852 294.909 324.735 295.373 324.5 295.768C324.276 296.163 323.919 296.467 323.428 296.68C322.948 296.893 322.314 297 321.524 297H317.956ZM321.396 295.864C322.004 295.864 322.5 295.763 322.884 295.56C323.268 295.347 323.46 294.979 323.46 294.456C323.46 293.933 323.284 293.581 322.932 293.4C322.58 293.208 322.074 293.112 321.412 293.112H319.364V295.864H321.396ZM326.276 297V288.424H327.684V297H326.276Z" fill="#575757"/>
<g clip-path="url(#clip0_27_278)">
<path d="M130.512 80.498C122.861 79.7794 117 73.4347 117 65.7383V63.043C117 60.8136 118.814 59 121.043 59C123.272 59 125.086 60.8136 125.086 63.043C125.086 63.7865 125.69 64.3906 126.434 64.3906H129.219C129.964 64.3906 130.566 64.9934 130.566 65.7383C130.566 66.4832 129.964 67.0859 129.219 67.0859H126.434C124.204 67.0859 122.391 65.2724 122.391 63.043C122.391 62.2994 121.787 61.6953 121.043 61.6953C120.299 61.6953 119.695 62.2994 119.695 63.043V65.7383C119.695 72.0357 124.506 77.2262 130.765 77.8132C131.506 77.8829 132.05 78.541 131.981 79.282C131.911 80.0206 131.257 80.5657 130.512 80.498Z" fill="#FB9333"/>
<path d="M148.108 79.282C148.04 78.541 148.584 77.883 149.325 77.8132C155.584 77.2262 160.305 72.0357 160.305 65.7383V63.043C160.305 62.2994 159.7 61.6953 158.957 61.6953C158.213 61.6953 157.609 62.2994 157.609 63.043C157.609 65.2724 155.796 67.0859 153.566 67.0859H150.871C150.126 67.0859 149.523 66.4832 149.523 65.7383C149.523 64.9934 150.126 64.3906 150.871 64.3906H153.566C154.31 64.3906 154.914 63.7865 154.914 63.043C154.914 60.8136 156.727 59 158.957 59C161.186 59 163 60.8136 163 63.043V65.7383C163 73.4347 157.229 79.7794 149.577 80.498C148.832 80.5657 148.178 80.0206 148.108 79.282Z" fill="#FB9333"/>
<path d="M150.871 59H140H129.219C128.474 59 127.871 59.6028 127.871 60.3477V73.8242C127.871 78.9767 131.147 83.5223 135.957 85.2201V95.5664H140H144.043V85.2201C148.853 83.5224 152.219 78.9767 152.219 73.8242V60.3477C152.219 59.6028 151.616 59 150.871 59Z" fill="#FFDF40"/>
<path d="M144.043 85.2201C148.853 83.5224 152.219 78.9767 152.219 73.8242V60.3477C152.219 59.6028 151.616 59 150.871 59H140V95.5664H144.043V85.2201Z" fill="#FFBE40"/>
<path d="M146.883 69.3917C146.724 68.9034 146.303 68.548 145.795 68.4744L142.626 68.0137L141.208 65.1421C140.982 64.6814 140.491 64.4512 140 64.4512C139.509 64.4512 139.018 64.6814 138.792 65.1421L137.375 68.0137L134.206 68.4744C133.698 68.548 133.276 68.9034 133.117 69.3917C132.959 69.8786 133.091 70.4143 133.458 70.7722L135.752 73.0083L135.211 76.1642C135.124 76.6696 135.332 77.1802 135.747 77.4816C136.161 77.7843 136.717 77.8238 137.165 77.5843L140 76.0957L142.835 77.5842C143.282 77.8214 143.836 77.7867 144.254 77.4815C144.668 77.1801 144.876 76.6695 144.789 76.1641L144.248 73.0082L146.542 70.7721C146.909 70.4143 147.041 69.8786 146.883 69.3917Z" fill="#FFBE40"/>
<path d="M144.254 77.4816C144.668 77.1802 144.876 76.6696 144.789 76.1642L144.248 73.0083L146.542 70.7722C146.909 70.4143 147.041 69.8786 146.883 69.3917C146.724 68.9034 146.303 68.548 145.795 68.4744L142.626 68.0137L141.208 65.1421C140.982 64.6814 140.491 64.4512 140 64.4512V76.0957L142.835 77.5842C143.282 77.8215 143.836 77.7868 144.254 77.4816Z" fill="#FB9333"/>
<path d="M150.781 99.6094H149.434V95.5664C149.434 94.8215 148.831 94.2188 148.086 94.2188H140H131.914C131.169 94.2188 130.566 94.8215 130.566 95.5664V99.6094H129.219C128.474 99.6094 127.871 100.212 127.871 100.957V103.652C127.871 104.397 128.474 105 129.219 105H140H150.781C151.526 105 152.129 104.397 152.129 103.652V100.957C152.129 100.212 151.526 99.6094 150.781 99.6094Z" fill="#FB9333"/>
<path d="M152.129 103.652V100.957C152.129 100.212 151.526 99.6094 150.781 99.6094H149.434V95.5664C149.434 94.8215 148.831 94.2188 148.086 94.2188H140V105H150.781C151.526 105 152.129 104.397 152.129 103.652Z" fill="#FB9333"/>
<path d="M142.695 98.2617H140H137.305C136.56 98.2617 135.957 98.8645 135.957 99.6094C135.957 100.354 136.56 100.957 137.305 100.957H140H142.695C143.44 100.957 144.043 100.354 144.043 99.6094C144.043 98.8645 143.44 98.2617 142.695 98.2617Z" fill="white"/>
<path d="M144.043 99.6094C144.043 98.8645 143.44 98.2617 142.695 98.2617H140V100.957H142.695C143.44 100.957 144.043 100.354 144.043 99.6094Z" fill="white"/>
</g>
<defs>
<clipPath id="clip0_27_278">
<rect width="46" height="46" fill="white" transform="translate(117 59)"/>
</clipPath>
</defs>
</svg>
